SplineFontDB: 3.2
FontName: GenSekiHentaiganaGothic-Bold
FullName: GenSeki Hentaigana Gothic Bold
FamilyName: GenSeki Hentaigana Gothic
Weight: Bold
Copyright: Copyright 2014-2021 Adobe (http://www.adobe.com/), with Reserved Font Name 'Source'. Source is a trademark of Adobe in the United States and/or other countries.
Version: 2.1
ItalicAngle: 0
UnderlinePosition: -100
UnderlineWidth: 50
Ascent: 880
Descent: 120
InvalidEm: 0
LayerCount: 2
Layer: 0 0 "+gMyXYgAA" 1
Layer: 1 0 "+Uk2XYgAA" 0
HasVMetrics: 1
XUID: [1021 501 934139072 14135697]
BaseHoriz: 4 'icfb' 'icft' 'ideo' 'romn'
BaseScript: 'DFLT' 2  -85 845 -120 0
BaseScript: 'cyrl' 3  -85 845 -120 0
BaseScript: 'grek' 3  -85 845 -120 0
BaseScript: 'hani' 2  -85 845 -120 0
BaseScript: 'kana' 2  -85 845 -120 0
BaseScript: 'latn' 3  -85 845 -120 0
BaseVert: 4 'icfb' 'icft' 'ideo' 'romn'
BaseScript: 'DFLT' 2  35 965 0 120
BaseScript: 'cyrl' 3  35 965 0 120
BaseScript: 'grek' 3  35 965 0 120
BaseScript: 'hani' 2  35 965 0 120
BaseScript: 'kana' 2  35 965 0 120
BaseScript: 'latn' 3  35 965 0 120
StyleMap: 0x0020
FSType: 0
OS2Version: 0
OS2_WeightWidthSlopeOnly: 0
OS2_UseTypoMetrics: 0
CreationTime: 1746358171
ModificationTime: 1746363238
PfmFamily: 33
TTFWeight: 700
TTFWidth: 5
LineGap: 0
VLineGap: 0
Panose: 2 11 8 0 0 0 0 0 0 0
OS2TypoAscent: 880
OS2TypoAOffset: 0
OS2TypoDescent: -120
OS2TypoDOffset: 0
OS2TypoLinegap: 0
OS2WinAscent: 880
OS2WinAOffset: 0
OS2WinDescent: 120
OS2WinDOffset: 0
HheadAscent: 880
HheadAOffset: 0
HheadDescent: -120
HheadDOffset: 0
OS2SubXSize: 650
OS2SubYSize: 600
OS2SubXOff: 0
OS2SubYOff: 75
OS2SupXSize: 650
OS2SupYSize: 600
OS2SupXOff: 0
OS2SupYOff: 350
OS2StrikeYSize: 50
OS2StrikeYPos: 325
OS2CapHeight: 733
OS2XHeight: 543
OS2Vendor: 'ZIHI'
Lookup: 4 0 0 "Dakuten and handakuten" { "Dakuten and handakuten subtable"  } ['ccmp' ('DFLT' <'dflt' > 'kana' <'JAN ' 'dflt' > ) ]
MarkAttachClasses: 1
DEI: 91125

StartChar: .notdef
Encoding: 1114112 -1 0
Width: 1000
GlyphClass: 1
Flags: W
LayerCount: 2
Fore
SplineSet
100 -120 m 1
 100 880 l 1
 900 880 l 1
 900 -120 l 1
 100 -120 l 1
500 421 m 1
 818 830 l 1
 182 830 l 1
 500 421 l 1
532 380 m 1
 850 -29 l 1
 850 789 l 1
 532 380 l 1
182 -70 m 1
 818 -70 l 1
 500 339 l 1
 182 -70 l 1
150 789 m 1
 150 -29 l 1
 468 380 l 1
 150 789 l 1
EndSplineSet
EndChar

StartChar: exclam
Encoding: 33 33 2
Width: 370
GlyphClass: 1
Flags: W
LayerCount: 2
Fore
SplineSet
126 436 m 1
 116 621 l 1
 111 761 l 1
 185 761 l 1
 259 761 l 1
 254 621 l 1
 233 252 l 1
 137 252 l 1
 126 436 l 1
250 151 m 0
 267 134 276 110 276 82 c 0
 276 55 267 31 250 14 c 0
 234 -4 212 -14 185 -14 c 0
 133 -14 94 28 94 82 c 0
 94 137 133 178 185 178 c 0
 212 178 234 168 250 151 c 0
EndSplineSet
EndChar

StartChar: quotedbl
Encoding: 34 34 3
Width: 574
GlyphClass: 1
Flags: W
LayerCount: 2
Fore
SplineSet
106 533 m 1
 92 641 l 1
 87 779 l 1
 162 779 l 1
 237 779 l 1
 232 641 l 1
 203 425 l 1
 121 425 l 1
 106 533 l 1
356 533 m 1
 342 641 l 1
 337 779 l 1
 412 779 l 1
 487 779 l 1
 482 641 l 1
 453 425 l 1
 371 425 l 1
 356 533 l 1
EndSplineSet
EndChar

StartChar: numbersign
Encoding: 35 35 4
Width: 590
GlyphClass: 1
Flags: W
LayerCount: 2
Fore
SplineSet
325 108 m 1
 338 217 l 1
 212 217 l 1
 199 108 l 1
 186 0 l 1
 99 0 l 1
 125 217 l 1
 82 217 l 2
 67 217 53 216 39 215 c 0
 35 217 35 313 39 315 c 0
 51 314 71 313 87 313 c 2
 136 313 l 1
 153 450 l 1
 107 450 l 2
 92 450 77 449 62 448 c 0
 58 450 58 545 62 548 c 0
 74 546 96 545 113 545 c 2
 165 545 l 1
 189 738 l 1
 275 738 l 1
 252 545 l 1
 378 545 l 1
 403 738 l 1
 489 738 l 1
 466 545 l 1
 511 545 l 2
 526 545 541 546 556 547 c 0
 560 545 560 450 556 447 c 0
 544 449 522 450 505 450 c 2
 454 450 l 1
 437 313 l 1
 485 313 l 2
 501 313 517 314 533 315 c 0
 537 313 537 217 533 214 c 0
 520 216 497 217 479 217 c 2
 425 217 l 1
 400 0 l 1
 312 0 l 1
 325 108 l 1
357 381 m 1
 366 450 l 1
 240 450 l 1
 231 381 l 1
 223 313 l 1
 349 313 l 1
 357 381 l 1
EndSplineSet
EndChar

StartChar: dollar
Encoding: 36 36 5
Width: 590
GlyphClass: 1
Flags: W
LayerCount: 2
Fore
SplineSet
369 406 m 0
 445 368 521 317 521 205 c 0
 521 96 460 15 345 -8 c 1
 345 -66 l 2
 345 -86 346 -110 348 -124 c 0
 345 -130 246 -130 243 -124 c 0
 245 -110 246 -88 246 -68 c 2
 246 -12 l 1
 178 -4 101 27 48 75 c 1
 113 175 l 1
 168 131 220 106 278 106 c 0
 348 106 380 137 380 194 c 0
 380 262 304 292 229 332 c 0
 153 372 77 422 77 526 c 0
 77 635 141 710 246 730 c 1
 246 788 l 2
 246 808 245 832 243 846 c 0
 246 852 345 852 348 846 c 0
 346 832 345 808 345 789 c 2
 345 732 l 1
 417 722 468 687 511 642 c 1
 437 557 l 1
 396 595 361 615 309 615 c 0
 250 615 217 588 217 532 c 0
 217 471 293 445 369 406 c 0
EndSplineSet
EndChar

StartChar: percent
Encoding: 37 37 6
Width: 963
GlyphClass: 1
Flags: W
LayerCount: 2
Fore
SplineSet
82 347 m 0
 51 388 32 447 32 521 c 0
 32 669 106 754 212 754 c 0
 318 754 393 669 393 521 c 0
 393 447 374 388 342 347 c 0
 310 307 265 285 212 285 c 0
 159 285 114 307 82 347 c 0
267 404 m 0
 281 428 289 467 289 521 c 0
 289 629 255 671 212 671 c 0
 169 671 135 629 135 521 c 0
 135 467 144 428 157 404 c 0
 171 379 191 368 212 368 c 0
 234 368 253 379 267 404 c 0
437 370 m 1
 639 754 l 1
 726 754 l 1
 525 370 l 1
 324 -14 l 1
 236 -14 l 1
 437 370 l 1
621 48 m 0
 589 89 570 148 570 222 c 0
 570 370 645 456 751 456 c 0
 856 456 931 370 931 222 c 0
 931 148 912 89 880 48 c 0
 849 8 804 -14 751 -14 c 0
 698 -14 653 8 621 48 c 0
805 106 m 0
 819 130 827 168 827 222 c 0
 827 332 794 372 751 372 c 0
 707 372 674 332 674 222 c 0
 674 168 682 130 696 106 c 0
 710 81 729 70 751 70 c 0
 773 70 792 81 805 106 c 0
EndSplineSet
EndChar

StartChar: ampersand
Encoding: 38 38 7
Width: 740
GlyphClass: 1
Flags: W
LayerCount: 2
Fore
SplineSet
662 281 m 0
 642 238 617 198 588 159 c 1
 636 132 681 113 719 106 c 1
 684 -14 l 1
 624 -1 561 25 498 64 c 1
 437 16 363 -14 272 -14 c 0
 195 -14 134 10 93 48 c 0
 52 87 30 139 30 196 c 0
 30 299 95 359 169 407 c 1
 140 462 123 517 123 566 c 0
 123 669 198 754 316 754 c 0
 421 754 488 689 488 592 c 0
 488 494 408 433 329 379 c 1
 373 323 429 270 489 225 c 1
 528 277 560 340 579 414 c 1
 714 414 l 1
 700 368 683 323 662 281 c 0
203 129 m 0
 225 111 255 100 290 100 c 0
 327 100 363 113 397 136 c 1
 366 162 336 190 308 219 c 0
 281 248 255 278 231 309 c 1
 195 278 170 245 170 205 c 0
 170 174 182 147 203 129 c 0
265 631 m 0
 252 616 244 594 244 567 c 0
 244 536 254 502 271 468 c 1
 300 486 326 503 344 523 c 0
 363 543 374 565 374 592 c 0
 374 629 357 656 319 656 c 0
 298 656 279 647 265 631 c 0
EndSplineSet
EndChar

StartChar: quotesingle
Encoding: 39 39 8
Width: 325
GlyphClass: 1
Flags: W
LayerCount: 2
Fore
SplineSet
106 533 m 1
 92 641 l 1
 87 779 l 1
 162 779 l 1
 237 779 l 1
 232 641 l 1
 203 425 l 1
 121 425 l 1
 106 533 l 1
EndSplineSet
EndChar

StartChar: parenleft
Encoding: 40 40 9
Width: 378
GlyphClass: 1
Flags: W
LayerCount: 2
Fore
SplineSet
124 39 m 0
 99 124 85 215 85 315 c 0
 85 415 99 506 124 591 c 0
 150 676 188 756 235 833 c 1
 326 794 l 1
 242 648 204 479 204 315 c 0
 204 151 242 -17 326 -163 c 1
 235 -202 l 1
 188 -125 150 -46 124 39 c 0
EndSplineSet
EndChar

StartChar: parenright
Encoding: 41 41 10
Width: 378
GlyphClass: 1
Flags: W
LayerCount: 2
Fore
SplineSet
254 39 m 0
 228 -46 191 -125 143 -202 c 1
 52 -163 l 1
 136 -17 174 151 174 315 c 0
 174 479 136 648 52 794 c 1
 143 833 l 1
 191 756 228 676 254 591 c 0
 279 506 293 415 293 315 c 0
 293 215 279 124 254 39 c 0
EndSplineSet
EndChar

StartChar: asterisk
Encoding: 42 42 11
Width: 507
GlyphClass: 1
Flags: W
LayerCount: 2
Fore
SplineSet
371 521 m 1
 405 464 l 1
 342 418 l 1
 297 468 l 1
 253 518 l 1
 165 418 l 1
 102 464 l 1
 168 578 l 1
 50 631 l 1
 74 705 l 1
 200 677 l 1
 214 808 l 1
 293 808 l 1
 305 677 l 1
 433 705 l 1
 457 631 l 1
 337 578 l 1
 371 521 l 1
EndSplineSet
EndChar

StartChar: plus
Encoding: 43 43 12
Width: 590
GlyphClass: 1
Flags: W
LayerCount: 2
Fore
SplineSet
349 533 m 1
 349 427 l 1
 450 427 l 2
 485 427 518 429 551 432 c 1
 555 427 555 322 551 320 c 0
 539 321 519 322 501 322 c 2
 450 322 l 1
 349 322 l 1
 349 216 l 2
 349 180 351 136 354 110 c 1
 349 104 240 104 235 110 c 1
 238 136 240 180 240 216 c 2
 240 322 l 1
 139 322 l 2
 105 322 72 320 39 318 c 1
 35 322 35 427 39 431 c 1
 64 429 105 427 139 427 c 2
 240 427 l 1
 240 534 l 2
 240 570 238 614 235 640 c 1
 240 646 349 646 352 640 c 0
 350 627 349 606 349 587 c 2
 349 533 l 1
EndSplineSet
EndChar

StartChar: comma
Encoding: 44 44 13
Width: 325
GlyphClass: 1
Flags: W
LayerCount: 2
Fore
SplineSet
142 -75 m 0
 163 -51 174 -24 174 5 c 1
 164 4 l 1
 116 4 72 35 72 91 c 0
 72 144 115 178 168 178 c 0
 235 178 273 124 273 33 c 0
 273 -26 256 -77 224 -119 c 0
 192 -161 145 -194 84 -214 c 1
 53 -134 l 1
 92 -119 122 -99 142 -75 c 0
EndSplineSet
EndChar

StartChar: hyphen
Encoding: 45 45 14
Width: 370
GlyphClass: 1
Flags: W
LayerCount: 2
Fore
SplineSet
185 339 m 1
 254 339 l 2
 278 339 300 340 322 342 c 0
 326 339 326 233 322 230 c 0
 305 232 278 233 254 233 c 2
 185 233 l 1
 117 233 l 2
 93 233 71 232 49 230 c 0
 45 233 45 339 49 342 c 0
 66 340 93 339 117 339 c 2
 185 339 l 1
EndSplineSet
EndChar

StartChar: period
Encoding: 46 46 15
Width: 325
GlyphClass: 1
Flags: W
LayerCount: 2
Fore
SplineSet
97 14 m 0
 81 31 71 55 71 82 c 0
 71 110 81 134 97 151 c 0
 114 168 137 178 163 178 c 0
 215 178 254 137 254 82 c 0
 254 28 215 -14 163 -14 c 0
 137 -14 114 -4 97 14 c 0
EndSplineSet
EndChar

StartChar: slash
Encoding: 47 47 16
Width: 387
GlyphClass: 1
Flags: W
LayerCount: 2
Fore
SplineSet
138 312 m 1
 263 806 l 1
 360 806 l 1
 236 312 l 1
 112 -181 l 1
 14 -181 l 1
 138 312 l 1
EndSplineSet
EndChar

StartChar: zero
Encoding: 48 48 17
Width: 590
GlyphClass: 1
Flags: W
LayerCount: 2
Fore
SplineSet
113 84 m 0
 69 149 44 246 44 374 c 0
 44 629 144 754 295 754 c 0
 446 754 546 628 546 374 c 0
 546 246 521 149 477 84 c 0
 433 19 371 -14 295 -14 c 0
 220 -14 157 19 113 84 c 0
375 159 m 0
 394 201 406 270 406 374 c 0
 406 580 359 641 295 641 c 0
 231 641 183 580 183 374 c 0
 183 270 195 201 215 159 c 0
 235 117 263 101 295 101 c 0
 327 101 355 117 375 159 c 0
EndSplineSet
EndChar

StartChar: one
Encoding: 49 49 18
Width: 589
GlyphClass: 1
Flags: W
LayerCount: 2
Fore
SplineSet
407 370 m 1
 407 0 l 1
 334 0 l 1
 262 0 l 1
 262 583 l 1
 130 513 l 1
 71 608 l 1
 299 741 l 1
 407 741 l 1
 407 370 l 1
EndSplineSet
EndChar

StartChar: two
Encoding: 50 50 19
Width: 590
GlyphClass: 1
Flags: W
LayerCount: 2
Fore
SplineSet
415 0 m 1
 291 0 l 1
 43 0 l 1
 43 85 l 1
 245 265 363 404 363 519 c 0
 363 592 323 638 252 638 c 0
 198 638 154 603 117 562 c 1
 35 641 l 1
 104 715 170 754 271 754 c 0
 411 754 504 664 504 526 c 0
 504 392 392 248 257 115 c 1
 295 120 344 124 379 124 c 2
 459 124 l 2
 487 124 513 126 539 128 c 1
 543 124 543 0 539 -3 c 0
 524 -1 499 0 477 0 c 2
 415 0 l 1
EndSplineSet
EndChar

StartChar: three
Encoding: 51 51 20
Width: 590
GlyphClass: 1
Flags: W
LayerCount: 2
Fore
SplineSet
444 703 m 0
 486 670 510 621 510 557 c 0
 510 477 465 419 387 388 c 1
 387 383 l 1
 470 360 534 298 534 200 c 0
 534 132 504 79 457 42 c 0
 409 6 344 -14 273 -14 c 0
 157 -14 78 30 26 89 c 1
 95 182 l 1
 139 139 192 106 260 106 c 0
 335 106 386 143 386 209 c 0
 386 282 343 327 183 327 c 1
 183 433 l 1
 318 433 362 479 362 546 c 0
 362 604 326 638 263 638 c 0
 210 638 167 614 124 573 c 1
 48 664 l 1
 112 719 183 754 270 754 c 0
 342 754 402 737 444 703 c 0
EndSplineSet
EndChar

StartChar: four
Encoding: 52 52 21
Width: 590
GlyphClass: 1
Flags: W
LayerCount: 2
Fore
SplineSet
159 516 m 1
 297 741 l 1
 474 741 l 1
 474 304 l 1
 518 304 l 2
 534 304 548 305 562 306 c 0
 566 304 566 192 562 190 c 0
 551 191 534 192 518 192 c 2
 474 192 l 1
 474 96 l 2
 474 64 476 24 478 0 c 1
 474 -6 337 -6 333 0 c 1
 335 24 337 64 337 96 c 2
 337 192 l 1
 179 192 l 1
 21 192 l 1
 21 292 l 1
 159 516 l 1
221 396 m 1
 164 304 l 1
 250 304 l 1
 337 304 l 1
 337 455 l 2
 337 498 340 565 343 609 c 1
 338 609 l 1
 320 569 300 528 279 488 c 2
 221 396 l 1
EndSplineSet
EndChar

StartChar: five
Encoding: 53 53 22
Width: 590
GlyphClass: 1
Flags: W
LayerCount: 2
Fore
SplineSet
95 561 m 1
 105 741 l 1
 303 741 l 1
 402 741 l 2
 435 741 468 743 501 745 c 1
 505 741 505 617 501 611 c 1
 468 615 413 617 367 617 c 2
 232 617 l 1
 218 460 l 1
 247 474 273 480 307 480 c 0
 432 480 535 407 535 246 c 0
 535 81 412 -14 277 -14 c 0
 159 -14 82 32 26 87 c 1
 94 181 l 1
 136 140 189 106 257 106 c 0
 334 106 388 155 388 242 c 0
 388 328 337 376 263 376 c 0
 220 376 196 366 152 338 c 1
 85 381 l 1
 95 561 l 1
EndSplineSet
EndChar

StartChar: six
Encoding: 54 54 23
Width: 590
GlyphClass: 1
Flags: W
LayerCount: 2
Fore
SplineSet
131 76 m 0
 82 137 50 230 50 360 c 0
 50 498 84 597 137 661 c 0
 190 725 262 754 336 754 c 0
 427 754 493 716 537 670 c 1
 459 582 l 1
 433 611 388 636 346 636 c 0
 260 636 191 572 184 388 c 1
 225 438 288 466 335 466 c 0
 459 466 548 392 548 234 c 0
 548 82 442 -14 316 -14 c 0
 246 -14 180 15 131 76 c 0
385 132 m 0
 403 155 414 189 414 234 c 0
 414 322 372 362 308 362 c 0
 269 362 224 340 187 284 c 1
 194 217 210 170 232 140 c 0
 254 110 282 97 313 97 c 0
 341 97 366 109 385 132 c 0
EndSplineSet
EndChar

StartChar: seven
Encoding: 55 55 24
Width: 590
GlyphClass: 1
Flags: W
LayerCount: 2
Fore
SplineSet
216 617 m 1
 133 617 l 2
 104 617 77 615 50 613 c 1
 46 617 46 741 50 746 c 1
 80 743 132 741 173 741 c 2
 296 741 l 1
 542 741 l 1
 542 651 l 1
 370 441 347 289 334 0 c 1
 186 0 l 1
 199 257 242 421 383 617 c 1
 216 617 l 1
EndSplineSet
EndChar

StartChar: eight
Encoding: 56 56 25
Width: 590
GlyphClass: 1
Flags: W
LayerCount: 2
Fore
SplineSet
117 42 m 0
 73 77 47 126 47 184 c 0
 47 279 105 341 174 377 c 1
 174 382 l 1
 117 423 76 479 76 557 c 0
 76 677 170 753 299 753 c 0
 430 753 514 674 514 556 c 0
 514 483 467 422 419 387 c 1
 419 382 l 1
 488 345 544 285 544 184 c 0
 544 128 519 79 475 43 c 0
 432 8 370 -14 295 -14 c 0
 224 -14 162 7 117 42 c 0
368 621 m 0
 352 639 327 650 296 650 c 0
 246 650 206 617 206 557 c 0
 206 523 221 497 245 476 c 0
 269 455 303 439 341 423 c 1
 377 460 394 503 394 547 c 0
 394 577 385 603 368 621 c 0
210 120 m 0
 233 101 264 90 298 90 c 0
 361 90 407 125 407 189 c 0
 407 228 390 255 361 277 c 0
 331 300 290 318 242 338 c 1
 202 305 174 256 174 200 c 0
 174 167 188 139 210 120 c 0
EndSplineSet
EndChar

StartChar: nine
Encoding: 57 57 26
Width: 590
GlyphClass: 1
Flags: W
LayerCount: 2
Fore
SplineSet
459 667 m 0
 508 607 539 516 539 387 c 0
 539 247 505 147 452 82 c 0
 400 16 329 -14 255 -14 c 0
 163 -14 96 25 52 70 c 1
 130 159 l 1
 157 129 203 106 247 106 c 0
 329 106 397 169 404 354 c 1
 365 304 302 274 252 274 c 0
 128 274 40 350 40 507 c 0
 40 659 146 754 273 754 c 0
 344 754 410 727 459 667 c 0
204 609 m 0
 186 587 175 553 175 507 c 0
 175 420 216 379 280 379 c 0
 320 379 366 401 402 459 c 1
 396 526 380 572 357 601 c 0
 335 631 307 643 275 643 c 0
 248 643 223 632 204 609 c 0
EndSplineSet
EndChar

StartChar: colon
Encoding: 58 58 27
Width: 325
GlyphClass: 1
Flags: W
LayerCount: 2
Fore
SplineSet
97 393 m 0
 81 410 71 434 71 461 c 0
 71 489 81 513 97 530 c 0
 114 547 137 557 163 557 c 0
 215 557 254 516 254 461 c 0
 254 407 215 366 163 366 c 0
 137 366 114 376 97 393 c 0
97 14 m 0
 81 31 71 55 71 82 c 0
 71 110 81 134 97 151 c 0
 114 168 137 178 163 178 c 0
 215 178 254 137 254 82 c 0
 254 28 215 -14 163 -14 c 0
 137 -14 114 -4 97 14 c 0
EndSplineSet
EndChar

StartChar: semicolon
Encoding: 59 59 28
Width: 325
GlyphClass: 1
Flags: W
LayerCount: 2
Fore
SplineSet
97 393 m 0
 81 410 71 434 71 461 c 0
 71 489 81 513 97 530 c 0
 114 547 137 557 163 557 c 0
 215 557 254 516 254 461 c 0
 254 407 215 366 163 366 c 0
 137 366 114 376 97 393 c 0
142 -75 m 0
 163 -51 174 -24 174 5 c 1
 164 4 l 1
 116 4 72 35 72 91 c 0
 72 144 115 178 168 178 c 0
 235 178 273 124 273 33 c 0
 273 -26 256 -77 224 -119 c 0
 192 -161 145 -194 84 -214 c 1
 53 -134 l 1
 92 -119 122 -99 142 -75 c 0
EndSplineSet
EndChar

StartChar: less
Encoding: 60 60 29
Width: 590
GlyphClass: 1
Flags: W
LayerCount: 2
Fore
SplineSet
295 225 m 1
 39 325 l 1
 39 429 l 1
 295 528 l 1
 551 627 l 1
 551 505 l 1
 341 434 l 1
 187 379 l 1
 187 375 l 1
 341 320 l 1
 551 248 l 1
 551 126 l 1
 295 225 l 1
EndSplineSet
EndChar

StartChar: equal
Encoding: 61 61 30
Width: 590
GlyphClass: 1
Flags: W
LayerCount: 2
Fore
SplineSet
295 556 m 1
 423 556 l 2
 467 556 509 558 551 562 c 1
 555 556 555 452 551 446 c 1
 519 450 467 452 423 452 c 2
 295 452 l 1
 167 452 l 2
 123 452 81 450 39 446 c 1
 35 452 35 556 39 562 c 1
 71 558 123 556 167 556 c 2
 295 556 l 1
295 298 m 1
 423 298 l 2
 467 298 509 300 551 304 c 1
 555 298 555 193 551 187 c 1
 519 191 467 193 423 193 c 2
 295 193 l 1
 167 193 l 2
 123 193 81 191 39 187 c 1
 35 193 35 298 39 304 c 1
 71 300 123 298 167 298 c 2
 295 298 l 1
EndSplineSet
EndChar

StartChar: greater
Encoding: 62 62 31
Width: 590
GlyphClass: 1
Flags: W
LayerCount: 2
Fore
SplineSet
295 528 m 1
 551 429 l 1
 551 325 l 1
 295 225 l 1
 39 126 l 1
 39 248 l 1
 249 320 l 1
 402 375 l 1
 402 379 l 1
 249 434 l 1
 39 505 l 1
 39 627 l 1
 295 528 l 1
EndSplineSet
EndChar

StartChar: question
Encoding: 63 63 32
Width: 514
GlyphClass: 1
Flags: W
LayerCount: 2
Fore
SplineSet
241 438 m 0
 281 486 323 526 323 573 c 0
 323 623 290 655 238 655 c 0
 194 655 159 633 127 598 c 1
 45 673 l 1
 97 732 169 774 256 774 c 0
 376 774 465 711 465 583 c 0
 465 512 421 465 379 417 c 0
 338 370 298 323 305 252 c 1
 177 252 l 1
 165 333 202 390 241 438 c 0
176 14 m 0
 160 31 150 55 150 82 c 0
 150 110 160 134 176 151 c 0
 193 168 216 178 242 178 c 0
 294 178 333 137 333 82 c 0
 333 28 294 -14 242 -14 c 0
 216 -14 193 -4 176 14 c 0
EndSplineSet
EndChar

StartChar: at
Encoding: 64 64 33
Width: 1007
GlyphClass: 1
Flags: W
LayerCount: 2
Fore
SplineSet
204 610 m 0
 296 701 422 752 557 752 c 0
 798 752 950 589 950 356 c 0
 950 151 816 47 701 47 c 0
 637 47 585 77 575 133 c 1
 572 133 l 1
 539 89 482 57 434 57 c 0
 349 57 289 121 289 225 c 0
 289 359 384 499 515 499 c 0
 553 499 583 482 603 443 c 1
 605 443 l 1
 621 490 l 1
 711 490 l 1
 686 368 l 1
 662 246 l 2
 644 173 662 139 716 139 c 0
 785 139 857 221 857 351 c 0
 857 520 763 662 545 662 c 0
 349 662 156 494 156 236 c 0
 156 13 308 -99 489 -99 c 0
 551 -99 617 -79 665 -54 c 1
 698 -135 l 1
 630 -173 558 -190 478 -190 c 0
 252 -190 55 -51 55 232 c 0
 55 389 113 519 204 610 c 0
432 345 m 0
 412 312 400 270 400 233 c 0
 400 177 426 150 466 150 c 0
 492 150 517 166 549 206 c 1
 563 286 l 1
 578 366 l 1
 563 392 545 403 519 403 c 0
 483 403 453 379 432 345 c 0
EndSplineSet
EndChar

StartChar: A
Encoding: 65 65 34
Width: 641
GlyphClass: 1
Flags: W
LayerCount: 2
Fore
SplineSet
526 370 m 1
 645 0 l 1
 489 0 l 1
 437 190 l 1
 317 190 l 1
 198 190 l 1
 146 0 l 1
 -4 0 l 1
 233 741 l 1
 408 741 l 1
 526 370 l 1
351 506 m 0
 341 547 330 589 319 628 c 1
 315 628 l 1
 295 547 274 463 252 386 c 2
 230 305 l 1
 318 305 l 1
 406 305 l 1
 384 386 l 2
 373 425 362 465 351 506 c 0
EndSplineSet
EndChar

StartChar: B
Encoding: 66 66 35
Width: 681
GlyphClass: 1
Flags: W
LayerCount: 2
Fore
SplineSet
91 370 m 1
 91 556 l 2
 91 619 88 695 83 741 c 0
 83 746 88 746 91 746 c 0
 121 743 171 741 213 741 c 2
 336 741 l 2
 488 741 604 696 604 558 c 0
 604 489 566 420 503 397 c 1
 503 393 l 1
 583 374 641 317 641 218 c 0
 641 69 518 0 355 0 c 2
 223 0 l 1
 91 0 l 1
 91 370 l 1
428 465 m 0
 450 482 460 507 460 536 c 0
 460 601 416 627 327 627 c 2
 239 627 l 1
 239 533 l 1
 239 439 l 1
 326 439 l 2
 373 439 407 449 428 465 c 0
457 142 m 0
 483 160 497 189 497 227 c 0
 497 299 444 330 342 330 c 2
 239 330 l 1
 239 222 l 1
 239 114 l 1
 342 114 l 2
 392 114 431 123 457 142 c 0
EndSplineSet
EndChar

StartChar: C
Encoding: 67 67 36
Width: 656
GlyphClass: 1
Flags: W
LayerCount: 2
Fore
SplineSet
153 84 m 0
 92 148 54 244 54 367 c 0
 54 489 93 586 156 652 c 0
 219 718 305 754 398 754 c 0
 493 754 567 709 615 659 c 1
 538 565 l 1
 500 601 457 627 401 627 c 0
 289 627 206 531 206 372 c 0
 206 211 281 114 398 114 c 0
 462 114 511 144 550 187 c 1
 629 95 l 1
 568 24 489 -14 392 -14 c 0
 299 -14 215 20 153 84 c 0
EndSplineSet
EndChar

StartChar: D
Encoding: 68 68 37
Width: 714
GlyphClass: 1
Flags: W
LayerCount: 2
Fore
SplineSet
91 370 m 1
 91 556 l 2
 91 619 88 695 83 741 c 0
 83 746 88 746 91 746 c 0
 116 743 157 741 192 741 c 2
 294 741 l 2
 521 741 660 623 660 374 c 0
 660 124 521 0 302 0 c 2
 196 0 l 1
 91 0 l 1
 91 370 l 1
239 496 m 1
 239 371 l 1
 239 120 l 1
 284 120 l 2
 423 120 509 194 509 374 c 0
 509 554 423 622 284 622 c 2
 239 622 l 1
 239 496 l 1
EndSplineSet
EndChar

StartChar: E
Encoding: 69 69 38
Width: 615
GlyphClass: 1
Flags: W
LayerCount: 2
Fore
SplineSet
91 370 m 1
 91 556 l 2
 91 619 88 695 83 741 c 0
 83 746 88 746 91 746 c 0
 119 743 165 741 204 741 c 2
 318 741 l 2
 395 741 470 745 545 751 c 1
 549 741 549 617 545 610 c 1
 507 614 443 617 392 617 c 2
 239 617 l 1
 239 446 l 1
 369 446 l 2
 412 446 455 448 498 452 c 1
 502 446 502 322 498 316 c 1
 466 320 412 322 369 322 c 2
 239 322 l 1
 239 124 l 1
 398 124 l 2
 452 124 504 127 556 131 c 1
 560 124 560 0 556 -5 c 1
 527 -2 480 0 440 0 c 2
 323 0 l 1
 207 0 l 2
 167 0 120 -2 91 -5 c 0
 83 -5 83 -2 83 0 c 0
 94 46 91 122 91 185 c 2
 91 370 l 1
EndSplineSet
EndChar

StartChar: F
Encoding: 70 70 39
Width: 585
GlyphClass: 1
Flags: W
LayerCount: 2
Fore
SplineSet
91 370 m 1
 91 556 l 2
 91 619 88 695 83 741 c 0
 83 746 88 746 91 746 c 0
 119 743 167 741 205 741 c 2
 319 741 l 1
 433 741 l 2
 471 741 509 743 547 746 c 1
 551 741 551 617 547 610 c 1
 509 614 445 617 393 617 c 2
 239 617 l 1
 239 424 l 1
 371 424 l 2
 416 424 459 426 502 430 c 1
 506 424 506 300 502 294 c 1
 470 298 416 300 371 300 c 2
 239 300 l 1
 239 0 l 1
 91 0 l 1
 91 370 l 1
EndSplineSet
EndChar

StartChar: G
Encoding: 71 71 40
Width: 717
GlyphClass: 1
Flags: W
LayerCount: 2
Fore
SplineSet
650 242 m 1
 650 75 l 1
 599 25 511 -14 409 -14 c 0
 208 -14 54 120 54 367 c 0
 54 611 212 754 409 754 c 0
 516 754 590 708 638 659 c 1
 559 565 l 1
 522 600 480 627 414 627 c 0
 290 627 206 531 206 372 c 0
 206 211 279 114 425 114 c 0
 460 114 497 124 517 142 c 1
 517 288 l 1
 451 288 l 2
 428 288 407 287 386 285 c 0
 382 288 382 409 386 412 c 0
 402 410 430 409 452 409 c 2
 518 409 l 1
 650 409 l 1
 650 242 l 1
EndSplineSet
EndChar

StartChar: H
Encoding: 72 72 41
Width: 757
GlyphClass: 1
Flags: W
LayerCount: 2
Fore
SplineSet
666 370 m 1
 666 0 l 1
 519 0 l 1
 519 320 l 1
 379 320 l 1
 239 320 l 1
 239 0 l 1
 91 0 l 1
 91 741 l 1
 239 741 l 1
 239 448 l 1
 519 448 l 1
 519 741 l 1
 666 741 l 1
 666 370 l 1
EndSplineSet
EndChar

StartChar: I
Encoding: 73 73 42
Width: 330
GlyphClass: 1
Flags: W
LayerCount: 2
Fore
SplineSet
239 370 m 1
 239 0 l 1
 165 0 l 1
 91 0 l 1
 91 741 l 1
 239 741 l 1
 239 370 l 1
EndSplineSet
EndChar

StartChar: J
Encoding: 74 74 43
Width: 568
GlyphClass: 1
Flags: W
LayerCount: 2
Fore
SplineSet
481 490 m 1
 481 239 l 2
 481 100 411 -14 252 -14 c 0
 145 -14 72 29 23 116 c 1
 124 191 l 1
 152 137 192 114 234 114 c 0
 299 114 333 149 333 251 c 2
 333 741 l 1
 407 741 l 1
 481 741 l 1
 481 490 l 1
EndSplineSet
EndChar

StartChar: K
Encoding: 75 75 44
Width: 686
GlyphClass: 1
Flags: W
LayerCount: 2
Fore
SplineSet
91 370 m 1
 91 741 l 1
 239 741 l 1
 239 419 l 1
 242 419 l 1
 487 741 l 1
 568 741 l 1
 650 741 l 1
 424 449 l 1
 690 0 l 1
 528 0 l 1
 336 333 l 1
 239 208 l 1
 239 0 l 1
 91 0 l 1
 91 370 l 1
EndSplineSet
EndChar

StartChar: L
Encoding: 76 76 45
Width: 578
GlyphClass: 1
Flags: W
LayerCount: 2
Fore
SplineSet
91 370 m 1
 91 741 l 1
 239 741 l 1
 239 124 l 1
 390 124 l 2
 440 124 490 126 540 130 c 1
 544 124 544 0 540 -5 c 1
 512 -2 466 0 428 0 c 2
 315 0 l 1
 203 0 l 2
 165 0 119 -2 91 -5 c 0
 83 -5 83 -2 83 0 c 0
 94 46 91 122 91 185 c 2
 91 370 l 1
EndSplineSet
EndChar

StartChar: M
Encoding: 77 77 46
Width: 853
GlyphClass: 1
Flags: W
LayerCount: 2
Fore
SplineSet
91 370 m 1
 91 741 l 1
 255 741 l 1
 381 393 l 2
 397 348 411 299 426 252 c 1
 431 252 l 1
 447 299 460 348 475 393 c 2
 599 741 l 1
 681 741 l 1
 763 741 l 1
 763 300 l 2
 763 200 767 75 775 0 c 1
 763 -6 628 -6 621 0 c 1
 625 38 628 102 628 154 c 2
 628 309 l 2
 628 380 639 482 647 552 c 1
 642 552 l 1
 582 378 l 1
 468 67 l 1
 383 67 l 1
 268 378 l 1
 209 552 l 1
 205 552 l 1
 212 482 224 380 224 309 c 2
 224 154 l 2
 224 102 227 38 231 0 c 1
 224 -6 91 -6 83 0 c 1
 88 46 91 122 91 185 c 2
 91 370 l 1
EndSplineSet
EndChar

StartChar: N
Encoding: 78 78 47
Width: 749
GlyphClass: 1
Flags: W
LayerCount: 2
Fore
SplineSet
657 370 m 1
 657 0 l 1
 581 0 l 1
 506 0 l 1
 293 396 l 1
 218 555 l 1
 213 555 l 1
 219 475 232 382 232 297 c 2
 232 0 l 1
 91 0 l 1
 91 741 l 1
 242 741 l 1
 457 346 l 1
 532 186 l 1
 537 186 l 1
 529 263 517 361 517 445 c 2
 517 593 l 2
 517 643 515 704 511 741 c 1
 517 747 657 747 665 741 c 1
 660 695 657 619 657 556 c 2
 657 370 l 1
EndSplineSet
EndChar

StartChar: O
Encoding: 79 79 48
Width: 770
GlyphClass: 1
Flags: W
LayerCount: 2
Fore
SplineSet
146 90 m 0
 88 157 54 254 54 374 c 0
 54 614 189 754 385 754 c 0
 581 754 716 614 716 374 c 0
 716 254 682 157 624 90 c 0
 566 23 483 -14 385 -14 c 0
 287 -14 204 23 146 90 c 0
516 185 m 0
 548 230 565 295 565 374 c 0
 565 532 495 627 385 627 c 0
 275 627 206 532 206 374 c 0
 206 295 223 230 254 185 c 0
 285 140 330 114 385 114 c 0
 440 114 485 140 516 185 c 0
EndSplineSet
EndChar

StartChar: P
Encoding: 80 80 49
Width: 667
GlyphClass: 1
Flags: W
LayerCount: 2
Fore
SplineSet
91 370 m 1
 91 741 l 1
 212 741 l 1
 334 741 l 2
 498 741 624 683 624 508 c 0
 624 339 497 263 338 263 c 2
 239 263 l 1
 239 0 l 1
 91 0 l 1
 91 370 l 1
442 412 m 0
 467 434 479 466 479 508 c 0
 479 594 425 623 323 623 c 2
 239 623 l 1
 239 501 l 1
 239 380 l 1
 328 380 l 2
 379 380 417 391 442 412 c 0
EndSplineSet
EndChar

StartChar: Q
Encoding: 81 81 50
Width: 770
GlyphClass: 1
Flags: W
LayerCount: 2
Fore
SplineSet
254 178 m 0
 285 132 330 107 385 107 c 0
 440 107 485 132 516 178 c 0
 548 224 565 291 565 374 c 0
 565 532 495 627 385 627 c 0
 275 627 206 532 206 374 c 0
 206 291 223 224 254 178 c 0
146 654 m 0
 204 719 287 754 385 754 c 0
 483 754 566 719 624 654 c 0
 682 589 716 494 716 374 c 0
 716 171 620 35 473 -3 c 1
 507 -59 574 -83 641 -83 c 0
 673 -83 701 -77 722 -70 c 1
 749 -179 l 1
 723 -192 678 -201 624 -201 c 0
 473 -201 367 -120 317 -8 c 1
 159 23 54 162 54 374 c 0
 54 494 88 589 146 654 c 0
EndSplineSet
EndChar

StartChar: R
Encoding: 82 82 51
Width: 682
GlyphClass: 1
Flags: W
LayerCount: 2
Fore
SplineSet
444 427 m 0
 469 447 482 477 482 516 c 0
 482 596 430 623 335 623 c 2
 239 623 l 1
 239 510 l 1
 239 397 l 1
 335 397 l 2
 383 397 419 407 444 427 c 0
91 370 m 1
 91 741 l 1
 219 741 l 1
 348 741 l 2
 504 741 627 686 627 516 c 0
 627 405 571 336 486 303 c 1
 659 0 l 1
 494 0 l 1
 342 280 l 1
 239 280 l 1
 239 0 l 1
 91 0 l 1
 91 370 l 1
EndSplineSet
EndChar

StartChar: S
Encoding: 83 83 52
Width: 624
GlyphClass: 1
Flags: W
LayerCount: 2
Fore
SplineSet
144 692 m 0
 190 731 254 754 328 754 c 0
 415 754 501 719 561 658 c 1
 486 566 l 1
 439 604 390 627 328 627 c 0
 263 627 223 598 223 549 c 0
 223 496 275 477 338 451 c 2
 435 412 l 2
 525 375 584 317 584 210 c 0
 584 150 559 94 512 53 c 0
 466 12 398 -14 312 -14 c 0
 213 -14 114 24 42 94 c 1
 127 196 l 1
 179 147 250 114 315 114 c 0
 392 114 433 147 433 199 c 0
 433 254 387 271 321 299 c 2
 223 342 l 2
 148 372 72 432 72 540 c 0
 72 600 99 654 144 692 c 0
EndSplineSet
EndChar

StartChar: T
Encoding: 84 84 53
Width: 625
GlyphClass: 1
Flags: W
LayerCount: 2
Fore
SplineSet
238 308 m 1
 238 617 l 1
 134 617 l 2
 98 617 64 615 30 612 c 1
 26 617 26 741 30 747 c 1
 65 743 124 741 171 741 c 2
 312 741 l 1
 454 741 l 2
 501 741 548 743 595 747 c 1
 599 741 599 617 595 612 c 1
 569 615 527 617 491 617 c 2
 386 617 l 1
 386 0 l 1
 238 0 l 1
 238 308 l 1
EndSplineSet
EndChar

StartChar: U
Encoding: 85 85 54
Width: 748
GlyphClass: 1
Flags: W
LayerCount: 2
Fore
SplineSet
519 530 m 1
 519 741 l 1
 661 741 l 1
 661 333 l 2
 661 88 556 -14 376 -14 c 0
 194 -14 88 88 88 333 c 2
 88 741 l 1
 161 741 l 1
 235 741 l 1
 235 320 l 2
 235 166 289 114 376 114 c 0
 462 114 519 166 519 320 c 2
 519 530 l 1
EndSplineSet
EndChar

StartChar: V
Encoding: 86 86 55
Width: 619
GlyphClass: 1
Flags: W
LayerCount: 2
Fore
SplineSet
511 370 m 1
 398 0 l 1
 309 0 l 1
 221 0 l 1
 -5 741 l 1
 151 741 l 1
 248 380 l 2
 271 298 287 224 310 141 c 1
 315 141 l 1
 339 224 355 298 378 380 c 2
 474 741 l 1
 624 741 l 1
 511 370 l 1
EndSplineSet
EndChar

StartChar: W
Encoding: 87 87 56
Width: 915
GlyphClass: 1
Flags: W
LayerCount: 2
Fore
SplineSet
826 370 m 1
 758 0 l 1
 666 0 l 1
 574 0 l 1
 491 367 l 2
 479 424 468 481 460 537 c 1
 456 537 l 1
 445 481 434 424 423 367 c 2
 342 0 l 1
 161 0 l 1
 19 741 l 1
 170 741 l 1
 227 379 l 2
 239 301 251 223 262 143 c 1
 266 143 l 1
 281 223 297 302 313 379 c 2
 398 741 l 1
 525 741 l 1
 611 379 l 2
 628 303 642 223 658 143 c 1
 663 143 l 1
 674 223 685 302 696 379 c 2
 755 741 l 1
 895 741 l 1
 826 370 l 1
EndSplineSet
EndChar

StartChar: X
Encoding: 88 88 57
Width: 627
GlyphClass: 1
Flags: W
LayerCount: 2
Fore
SplineSet
118 190 m 1
 222 381 l 1
 26 741 l 1
 108 741 l 1
 191 741 l 1
 265 587 l 2
 283 553 298 517 320 471 c 1
 324 471 l 1
 342 517 358 553 374 587 c 2
 444 741 l 1
 600 741 l 1
 405 375 l 1
 613 0 l 1
 449 0 l 1
 366 164 l 2
 348 202 329 241 308 286 c 1
 304 286 l 1
 285 241 268 202 250 164 c 2
 171 0 l 1
 15 0 l 1
 118 190 l 1
EndSplineSet
EndChar

StartChar: Y
Encoding: 89 89 58
Width: 580
GlyphClass: 1
Flags: W
LayerCount: 2
Fore
SplineSet
105 506 m 1
 -6 741 l 1
 72 741 l 1
 151 741 l 1
 225 560 l 2
 246 505 266 453 289 396 c 1
 293 396 l 1
 316 453 337 505 359 560 c 2
 433 741 l 1
 587 741 l 1
 364 271 l 1
 364 0 l 1
 217 0 l 1
 217 271 l 1
 105 506 l 1
EndSplineSet
EndChar

StartChar: Z
Encoding: 90 90 59
Width: 613
GlyphClass: 1
Flags: W
LayerCount: 2
Fore
SplineSet
397 388 m 1
 225 124 l 1
 399 124 l 2
 457 124 515 127 573 131 c 1
 577 124 577 0 573 -6 c 1
 540 -2 485 0 441 0 c 2
 308 0 l 1
 43 0 l 1
 43 89 l 1
 388 617 l 1
 232 617 l 2
 180 617 128 614 76 610 c 1
 72 617 72 741 76 751 c 1
 137 745 240 741 323 741 c 2
 570 741 l 1
 570 652 l 1
 397 388 l 1
EndSplineSet
EndChar

StartChar: bracketleft
Encoding: 91 91 60
Width: 378
GlyphClass: 1
Flags: W
LayerCount: 2
Fore
SplineSet
101 315 m 1
 101 803 l 1
 216 803 l 2
 254 803 292 805 330 808 c 1
 334 803 334 724 330 721 c 0
 316 723 292 724 271 724 c 2
 211 724 l 1
 211 -94 l 1
 271 -94 l 2
 292 -94 311 -93 330 -91 c 0
 334 -94 334 -172 330 -175 c 0
 316 -173 292 -172 273 -172 c 2
 215 -172 l 1
 101 -172 l 1
 101 315 l 1
EndSplineSet
EndChar

StartChar: backslash
Encoding: 92 92 61
Width: 387
GlyphClass: 1
Flags: W
LayerCount: 2
Fore
SplineSet
152 312 m 1
 28 806 l 1
 125 806 l 1
 249 312 l 1
 374 -181 l 1
 276 -181 l 1
 152 312 l 1
EndSplineSet
EndChar

StartChar: bracketright
Encoding: 93 93 62
Width: 378
GlyphClass: 1
Flags: W
LayerCount: 2
Fore
SplineSet
276 315 m 1
 276 -172 l 1
 162 -172 l 1
 105 -172 l 2
 86 -172 67 -173 48 -175 c 0
 44 -172 44 -94 48 -91 c 0
 62 -93 86 -94 107 -94 c 2
 167 -94 l 1
 167 724 l 1
 107 724 l 2
 86 724 67 723 48 721 c 0
 44 724 44 803 48 808 c 1
 76 805 124 803 162 803 c 2
 276 803 l 1
 276 315 l 1
EndSplineSet
EndChar

StartChar: asciicircum
Encoding: 94 94 63
Width: 590
GlyphClass: 1
Flags: W
LayerCount: 2
Fore
SplineSet
147 537 m 1
 235 761 l 1
 355 761 l 1
 442 537 l 1
 529 314 l 1
 407 314 l 1
 350 474 l 1
 297 627 l 1
 292 627 l 1
 240 474 l 1
 182 314 l 1
 60 314 l 1
 147 537 l 1
EndSplineSet
EndChar

StartChar: underscore
Encoding: 95 95 64
Width: 567
GlyphClass: 1
Flags: W
LayerCount: 2
Fore
SplineSet
283 -70 m 1
 418 -70 l 2
 463 -70 508 -68 553 -64 c 1
 557 -70 557 -155 553 -161 c 1
 520 -157 463 -155 418 -155 c 2
 283 -155 l 1
 148 -155 l 2
 102 -155 58 -157 14 -161 c 1
 10 -155 10 -70 14 -64 c 1
 47 -68 102 -70 148 -70 c 2
 283 -70 l 1
EndSplineSet
EndChar

StartChar: grave
Encoding: 96 96 65
Width: 626
GlyphClass: 1
Flags: W
LayerCount: 2
Fore
SplineSet
296 822 m 1
 381 721 l 1
 309 650 l 1
 210 738 l 1
 111 827 l 1
 211 924 l 1
 296 822 l 1
EndSplineSet
EndChar

StartChar: a
Encoding: 97 97 66
Width: 591
GlyphClass: 1
Flags: W
LayerCount: 2
Fore
SplineSet
520 245 m 1
 520 163 l 1
 520 0 l 1
 400 0 l 1
 390 60 l 1
 385 60 l 1
 337 17 281 -14 216 -14 c 0
 116 -14 51 57 51 153 c 0
 51 272 148 335 373 359 c 1
 371 414 347 456 278 456 c 0
 226 456 176 433 124 402 c 1
 72 500 l 1
 137 540 217 574 305 574 c 0
 447 574 520 489 520 327 c 2
 520 245 l 1
287 252 m 0
 264 246 245 238 231 229 c 0
 202 212 191 190 191 164 c 0
 191 120 222 101 265 101 c 0
 307 101 338 121 373 156 c 1
 373 268 l 1
 339 264 311 259 287 252 c 0
EndSplineSet
EndChar

StartChar: b
Encoding: 98 98 67
Width: 644
GlyphClass: 1
Flags: W
LayerCount: 2
Fore
SplineSet
79 399 m 1
 79 798 l 1
 152 798 l 1
 226 798 l 1
 226 597 l 1
 221 507 l 1
 266 547 322 574 377 574 c 0
 515 574 598 461 598 290 c 0
 598 97 483 -14 360 -14 c 0
 310 -14 256 12 211 59 c 1
 206 59 l 1
 194 0 l 1
 79 0 l 1
 79 399 l 1
412 151 m 0
 434 181 447 226 447 287 c 0
 447 394 413 453 336 453 c 0
 298 453 264 434 226 396 c 1
 226 272 l 1
 226 149 l 1
 260 118 297 107 328 107 c 0
 361 107 391 122 412 151 c 0
EndSplineSet
EndChar

StartChar: c
Encoding: 99 99 68
Width: 527
GlyphClass: 1
Flags: W
LayerCount: 2
Fore
SplineSet
123 63 m 0
 74 114 44 187 44 280 c 0
 44 373 78 447 130 497 c 0
 183 547 254 574 330 574 c 0
 399 574 452 548 493 511 c 1
 423 418 l 1
 395 441 369 454 338 454 c 0
 252 454 194 385 194 280 c 0
 194 174 252 106 333 106 c 0
 374 106 411 125 442 151 c 1
 500 54 l 1
 447 7 379 -14 317 -14 c 0
 240 -14 172 13 123 63 c 0
EndSplineSet
EndChar

StartChar: d
Encoding: 100 100 69
Width: 644
GlyphClass: 1
Flags: W
LayerCount: 2
Fore
SplineSet
566 399 m 1
 566 0 l 1
 446 0 l 1
 435 58 l 1
 431 58 l 1
 390 17 334 -14 276 -14 c 0
 136 -14 47 96 47 280 c 0
 47 462 162 574 282 574 c 0
 345 574 384 550 424 513 c 1
 419 601 l 1
 419 798 l 1
 492 798 l 1
 566 798 l 1
 566 399 l 1
228 151 m 0
 248 122 277 107 314 107 c 0
 353 107 387 123 419 165 c 1
 419 288 l 1
 419 411 l 1
 385 442 350 453 314 453 c 0
 251 453 198 393 198 282 c 0
 198 224 209 180 228 151 c 0
EndSplineSet
EndChar

StartChar: e
Encoding: 101 101 70
Width: 581
GlyphClass: 1
Flags: W
LayerCount: 2
Fore
SplineSet
445 238 m 1
 359 238 l 1
 187 238 l 1
 199 147 259 100 343 100 c 0
 388 100 427 113 468 138 c 1
 518 48 l 1
 463 10 392 -14 323 -14 c 0
 166 -14 44 95 44 280 c 0
 44 461 172 574 305 574 c 0
 459 574 539 462 539 306 c 0
 539 279 536 252 532 238 c 1
 445 238 l 1
228 429 m 0
 206 408 190 378 184 337 c 1
 298 337 l 1
 413 337 l 1
 413 412 380 460 307 460 c 0
 278 460 250 450 228 429 c 0
EndSplineSet
EndChar

StartChar: f
Encoding: 102 102 71
Width: 372
GlyphClass: 1
Flags: W
LayerCount: 2
Fore
SplineSet
250 222 m 1
 250 0 l 1
 177 0 l 1
 104 0 l 1
 104 444 l 1
 28 444 l 1
 28 553 l 1
 104 559 l 1
 104 605 l 2
 104 721 158 812 298 812 c 0
 342 812 380 803 405 793 c 1
 378 683 l 1
 359 692 338 696 318 696 c 0
 275 696 250 670 250 608 c 2
 250 560 l 1
 304 560 l 2
 323 560 340 561 357 563 c 0
 361 560 361 444 357 441 c 0
 344 443 323 444 304 444 c 2
 250 444 l 1
 250 222 l 1
EndSplineSet
EndChar

StartChar: g
Encoding: 103 103 72
Width: 597
GlyphClass: 1
Flags: W
LayerCount: 2
Fore
SplineSet
499 -186 m 0
 446 -222 370 -243 276 -243 c 0
 144 -243 43 -198 43 -99 c 0
 43 -52 70 -12 123 17 c 1
 123 22 l 1
 93 41 72 70 72 117 c 0
 72 158 100 197 134 221 c 1
 134 225 l 1
 95 253 59 306 59 372 c 0
 59 503 166 574 284 574 c 0
 317 574 346 568 370 560 c 1
 470 560 l 1
 521 560 l 2
 539 560 555 561 571 562 c 0
 575 560 575 452 571 450 c 0
 560 451 541 452 524 452 c 2
 476 452 l 1
 490 433 501 402 501 367 c 0
 501 240 405 177 284 177 c 0
 263 177 237 181 212 190 c 1
 198 177 188 165 188 141 c 0
 188 112 211 96 276 96 c 2
 372 96 l 2
 507 96 581 54 581 -44 c 0
 581 -101 552 -150 499 -186 c 0
223 295 m 0
 238 277 260 268 284 268 c 0
 309 268 331 277 347 295 c 0
 363 313 373 339 373 372 c 0
 373 437 334 473 284 473 c 0
 235 473 197 437 197 372 c 0
 197 339 207 313 223 295 c 0
201 -130 m 0
 224 -143 258 -149 298 -149 c 0
 341 -149 376 -140 401 -125 c 0
 426 -111 440 -91 440 -69 c 0
 440 -29 407 -18 347 -18 c 2
 278 -18 l 2
 245 -18 222 -16 201 -11 c 1
 176 -31 165 -53 165 -77 c 0
 165 -100 178 -118 201 -130 c 0
EndSplineSet
EndChar

StartChar: h
Encoding: 104 104 73
Width: 640
GlyphClass: 1
Flags: W
LayerCount: 2
Fore
SplineSet
79 399 m 1
 79 798 l 1
 226 798 l 1
 226 597 l 1
 219 492 l 1
 263 534 319 574 395 574 c 0
 516 574 568 490 568 349 c 2
 568 0 l 1
 421 0 l 1
 421 331 l 2
 421 418 397 448 342 448 c 0
 297 448 267 426 226 385 c 1
 226 0 l 1
 152 0 l 1
 79 0 l 1
 79 399 l 1
EndSplineSet
EndChar

StartChar: i
Encoding: 105 105 74
Width: 304
GlyphClass: 1
Flags: W
LayerCount: 2
Fore
SplineSet
226 280 m 1
 226 0 l 1
 152 0 l 1
 79 0 l 1
 79 560 l 1
 226 560 l 1
 226 280 l 1
214 789 m 0
 229 775 238 755 238 731 c 0
 238 707 229 687 214 673 c 0
 199 659 178 651 153 651 c 0
 101 651 68 682 68 731 c 0
 68 779 101 811 153 811 c 0
 178 811 199 803 214 789 c 0
EndSplineSet
EndChar

StartChar: j
Encoding: 106 106 75
Width: 306
GlyphClass: 1
Flags: W
LayerCount: 2
Fore
SplineSet
80 271 m 1
 80 560 l 1
 154 560 l 1
 228 560 l 1
 228 -14 l 2
 228 -135 181 -229 40 -229 c 0
 -3 -229 -32 -222 -54 -213 c 1
 -28 -105 l 1
 -13 -110 2 -113 19 -113 c 0
 66 -113 80 -81 80 -18 c 2
 80 271 l 1
215 789 m 0
 230 775 239 755 239 731 c 0
 239 707 230 687 215 673 c 0
 200 659 179 651 153 651 c 0
 103 651 68 682 68 731 c 0
 68 779 103 811 153 811 c 0
 179 811 200 803 215 789 c 0
EndSplineSet
EndChar

StartChar: k
Encoding: 107 107 76
Width: 604
GlyphClass: 1
Flags: W
LayerCount: 2
Fore
SplineSet
79 399 m 1
 79 798 l 1
 224 798 l 1
 224 320 l 1
 228 320 l 1
 419 560 l 1
 499 560 l 1
 580 560 l 1
 388 329 l 1
 598 0 l 1
 438 0 l 1
 302 233 l 1
 224 142 l 1
 224 0 l 1
 79 0 l 1
 79 399 l 1
EndSplineSet
EndChar

StartChar: l
Encoding: 108 108 77
Width: 315
GlyphClass: 1
Flags: W
LayerCount: 2
Fore
SplineSet
226 474 m 1
 226 151 l 2
 226 117 241 106 255 106 c 0
 261 106 265 106 275 108 c 1
 293 -1 l 1
 276 -8 252 -14 218 -14 c 0
 115 -14 79 53 79 157 c 2
 79 798 l 1
 152 798 l 1
 226 798 l 1
 226 474 l 1
EndSplineSet
EndChar

StartChar: m
Encoding: 109 109 78
Width: 964
GlyphClass: 1
Flags: W
LayerCount: 2
Fore
SplineSet
79 280 m 1
 79 560 l 1
 199 560 l 1
 210 485 l 1
 213 485 l 1
 260 534 312 574 385 574 c 0
 465 574 512 538 538 476 c 1
 590 530 645 574 717 574 c 0
 836 574 890 490 890 349 c 2
 890 0 l 1
 744 0 l 1
 744 331 l 2
 744 418 719 448 666 448 c 0
 634 448 598 428 558 385 c 1
 558 0 l 1
 412 0 l 1
 412 331 l 2
 412 418 387 448 333 448 c 0
 301 448 265 428 226 385 c 1
 226 0 l 1
 152 0 l 1
 79 0 l 1
 79 280 l 1
EndSplineSet
EndChar

StartChar: n
Encoding: 110 110 79
Width: 641
GlyphClass: 1
Flags: W
LayerCount: 2
Fore
SplineSet
79 280 m 1
 79 560 l 1
 199 560 l 1
 210 486 l 1
 213 486 l 1
 262 534 319 574 395 574 c 0
 516 574 568 490 568 349 c 2
 568 0 l 1
 421 0 l 1
 421 331 l 2
 421 418 397 448 342 448 c 0
 297 448 267 426 226 385 c 1
 226 0 l 1
 152 0 l 1
 79 0 l 1
 79 280 l 1
EndSplineSet
EndChar

StartChar: o
Encoding: 111 111 80
Width: 626
GlyphClass: 1
Flags: W
LayerCount: 2
Fore
SplineSet
500 497 m 0
 550 447 582 373 582 280 c 0
 582 187 550 114 500 63 c 0
 450 13 383 -14 313 -14 c 0
 172 -14 44 94 44 280 c 0
 44 466 172 574 313 574 c 0
 383 574 450 547 500 497 c 0
225 406 m 0
 205 376 194 333 194 280 c 0
 194 227 205 184 225 153 c 0
 245 123 275 106 313 106 c 0
 389 106 432 174 432 280 c 0
 432 385 389 454 313 454 c 0
 275 454 245 437 225 406 c 0
EndSplineSet
EndChar

StartChar: p
Encoding: 112 112 81
Width: 644
GlyphClass: 1
Flags: W
LayerCount: 2
Fore
SplineSet
79 172 m 1
 79 560 l 1
 199 560 l 1
 210 502 l 1
 213 502 l 1
 260 542 317 574 378 574 c 0
 515 574 598 461 598 289 c 0
 598 97 483 -14 360 -14 c 0
 311 -14 263 8 221 47 c 1
 226 -44 l 1
 226 -215 l 1
 152 -215 l 1
 79 -215 l 1
 79 172 l 1
412 151 m 0
 434 181 447 226 447 287 c 0
 447 394 413 453 336 453 c 0
 298 453 264 434 226 396 c 1
 226 272 l 1
 226 149 l 1
 262 118 297 107 328 107 c 0
 361 107 391 122 412 151 c 0
EndSplineSet
EndChar

StartChar: q
Encoding: 113 113 82
Width: 644
GlyphClass: 1
Flags: W
LayerCount: 2
Fore
SplineSet
566 172 m 1
 566 -215 l 1
 492 -215 l 1
 419 -215 l 1
 419 -37 l 1
 424 53 l 1
 385 14 330 -14 276 -14 c 0
 136 -14 47 96 47 280 c 0
 47 462 162 574 282 574 c 0
 344 574 389 552 434 505 c 1
 438 505 l 1
 451 560 l 1
 566 560 l 1
 566 172 l 1
228 151 m 0
 248 122 277 107 314 107 c 0
 353 107 387 123 419 165 c 1
 419 288 l 1
 419 411 l 1
 385 442 350 453 314 453 c 0
 251 453 198 393 198 282 c 0
 198 224 209 180 228 151 c 0
EndSplineSet
EndChar

StartChar: r
Encoding: 114 114 83
Width: 436
GlyphClass: 1
Flags: W
LayerCount: 2
Fore
SplineSet
79 280 m 1
 79 560 l 1
 199 560 l 1
 210 461 l 1
 213 461 l 1
 254 534 314 574 372 574 c 0
 403 574 421 569 437 562 c 1
 413 435 l 1
 393 441 377 444 353 444 c 0
 310 444 258 415 226 334 c 1
 226 0 l 1
 152 0 l 1
 79 0 l 1
 79 280 l 1
EndSplineSet
EndChar

StartChar: s
Encoding: 115 115 84
Width: 495
GlyphClass: 1
Flags: W
LayerCount: 2
Fore
SplineSet
114 526 m 0
 150 556 202 574 266 574 c 0
 347 574 410 541 456 505 c 1
 390 416 l 1
 350 444 311 464 270 464 c 0
 219 464 195 442 195 410 c 0
 195 369 246 354 306 332 c 0
 380 304 462 266 462 163 c 0
 462 114 443 69 405 37 c 0
 367 6 312 -14 239 -14 c 0
 164 -14 82 18 26 64 c 1
 93 157 l 1
 143 119 190 96 243 96 c 0
 299 96 324 120 324 155 c 0
 324 197 266 216 207 239 c 0
 136 266 57 309 57 403 c 0
 57 453 77 496 114 526 c 0
EndSplineSet
EndChar

StartChar: t
Encoding: 116 116 85
Width: 421
GlyphClass: 1
Flags: W
LayerCount: 2
Fore
SplineSet
246 320 m 1
 246 196 l 2
 246 132 273 102 323 102 c 0
 341 102 363 108 378 114 c 1
 403 7 l 1
 372 -2 333 -14 284 -14 c 0
 151 -14 100 71 100 195 c 2
 100 319 l 1
 100 444 l 1
 21 444 l 1
 21 553 l 1
 108 560 l 1
 125 711 l 1
 246 711 l 1
 246 560 l 1
 316 560 l 2
 339 560 362 561 385 563 c 0
 389 560 389 444 385 441 c 0
 368 443 339 444 316 444 c 2
 246 444 l 1
 246 320 l 1
EndSplineSet
EndChar

StartChar: u
Encoding: 117 117 86
Width: 637
GlyphClass: 1
Flags: W
LayerCount: 2
Fore
SplineSet
559 280 m 1
 559 0 l 1
 439 0 l 1
 428 81 l 1
 424 81 l 1
 376 24 323 -14 246 -14 c 0
 125 -14 73 70 73 211 c 2
 73 560 l 1
 219 560 l 1
 219 229 l 2
 219 142 244 112 299 112 c 0
 344 112 374 132 412 182 c 1
 412 560 l 1
 485 560 l 1
 559 560 l 1
 559 280 l 1
EndSplineSet
EndChar

StartChar: v
Encoding: 118 118 87
Width: 576
GlyphClass: 1
Flags: W
LayerCount: 2
Fore
SplineSet
109 280 m 1
 14 560 l 1
 162 560 l 1
 243 281 l 2
 259 226 273 168 289 111 c 1
 294 111 l 1
 309 168 324 226 339 281 c 2
 421 560 l 1
 562 560 l 1
 375 0 l 1
 290 0 l 1
 205 0 l 1
 109 280 l 1
EndSplineSet
EndChar

StartChar: w
Encoding: 119 119 88
Width: 863
GlyphClass: 1
Flags: W
LayerCount: 2
Fore
SplineSet
100 280 m 1
 28 560 l 1
 174 560 l 1
 236 284 l 2
 245 229 253 175 262 120 c 1
 267 120 l 1
 278 175 288 230 302 284 c 2
 370 560 l 1
 500 560 l 1
 570 284 l 2
 583 229 593 175 606 120 c 1
 610 120 l 1
 620 175 628 229 638 284 c 2
 698 560 l 1
 835 560 l 1
 697 0 l 1
 610 0 l 1
 524 0 l 1
 465 244 l 2
 453 297 443 348 432 408 c 1
 427 408 l 1
 417 348 408 296 397 244 c 2
 340 0 l 1
 172 0 l 1
 100 280 l 1
EndSplineSet
EndChar

StartChar: x
Encoding: 120 120 89
Width: 562
GlyphClass: 1
Flags: W
LayerCount: 2
Fore
SplineSet
103 145 m 1
 191 291 l 1
 27 560 l 1
 185 560 l 1
 241 461 l 2
 257 429 274 397 291 366 c 1
 295 366 l 1
 308 397 323 429 336 461 c 2
 383 560 l 1
 535 560 l 1
 371 275 l 1
 546 0 l 1
 467 0 l 1
 388 0 l 1
 326 103 l 2
 309 136 290 169 272 200 c 1
 267 200 l 1
 251 169 236 136 220 103 c 2
 169 0 l 1
 16 0 l 1
 103 145 l 1
EndSplineSet
EndChar

StartChar: y
Encoding: 121 121 90
Width: 574
GlyphClass: 1
Flags: W
LayerCount: 2
Fore
SplineSet
461 271 m 1
 362 -17 l 2
 313 -149 253 -224 128 -224 c 0
 95 -224 73 -220 51 -214 c 1
 78 -101 l 1
 88 -104 104 -108 117 -108 c 0
 174 -108 206 -72 222 -23 c 2
 232 11 l 1
 14 560 l 1
 88 560 l 1
 162 560 l 1
 251 300 l 2
 268 250 282 196 298 142 c 1
 303 142 l 1
 315 194 329 248 343 300 c 2
 420 560 l 1
 561 560 l 1
 461 271 l 1
EndSplineSet
EndChar

StartChar: z
Encoding: 122 122 91
Width: 511
GlyphClass: 1
Flags: W
LayerCount: 2
Fore
SplineSet
166 261 m 1
 292 444 l 1
 180 444 l 2
 143 444 106 442 69 439 c 1
 65 444 65 560 69 569 c 1
 119 563 203 560 272 560 c 2
 475 560 l 1
 475 481 l 1
 224 116 l 1
 354 116 l 2
 398 116 441 118 484 122 c 1
 488 116 488 0 484 -5 c 1
 457 -2 410 0 373 0 c 2
 262 0 l 1
 41 0 l 1
 41 78 l 1
 166 261 l 1
EndSplineSet
EndChar

StartChar: braceleft
Encoding: 123 123 92
Width: 378
GlyphClass: 1
Flags: W
LayerCount: 2
Fore
SplineSet
157 -138 m 0
 134 -114 123 -75 123 -14 c 0
 123 67 133 113 133 186 c 0
 133 229 111 270 37 272 c 1
 37 359 l 1
 111 361 133 403 133 444 c 0
 133 517 123 564 123 644 c 0
 123 705 134 745 157 769 c 0
 180 794 216 803 264 803 c 2
 297 803 l 2
 308 803 319 804 330 805 c 0
 334 803 334 724 330 723 c 0
 328 723 324 724 319 724 c 2
 307 724 l 2
 255 724 242 704 242 638 c 0
 242 575 246 519 246 448 c 0
 246 365 222 331 167 317 c 1
 167 313 l 1
 222 299 246 265 246 182 c 0
 246 112 242 56 242 -8 c 0
 242 -73 255 -94 307 -94 c 2
 319 -94 l 2
 324 -94 327 -93 330 -93 c 0
 334 -94 334 -172 330 -174 c 0
 322 -173 308 -172 297 -172 c 2
 264 -172 l 2
 216 -172 180 -163 157 -138 c 0
EndSplineSet
EndChar

StartChar: bar
Encoding: 124 124 93
Width: 296
GlyphClass: 1
Flags: W
LayerCount: 2
Fore
SplineSet
100 283 m 1
 100 567 l 2
 100 663 96 780 88 851 c 1
 100 857 196 857 208 851 c 1
 200 780 196 663 196 567 c 2
 196 283 l 1
 196 -1 l 2
 196 -96 200 -214 208 -284 c 1
 196 -290 100 -290 88 -284 c 1
 96 -214 100 -96 100 -1 c 2
 100 283 l 1
EndSplineSet
EndChar

StartChar: braceright
Encoding: 125 125 94
Width: 378
GlyphClass: 1
Flags: W
LayerCount: 2
Fore
SplineSet
220 -138 m 0
 197 -163 162 -172 113 -172 c 2
 80 -172 l 2
 68 -172 58 -173 48 -174 c 0
 44 -172 44 -94 48 -93 c 0
 50 -93 54 -94 59 -94 c 2
 71 -94 l 2
 122 -94 136 -73 136 -8 c 0
 136 56 131 112 131 182 c 0
 131 265 156 299 211 313 c 1
 211 317 l 1
 156 331 131 365 131 448 c 0
 131 519 136 575 136 638 c 0
 136 704 122 724 71 724 c 2
 59 724 l 2
 54 724 51 723 48 723 c 0
 44 724 44 803 48 805 c 0
 56 804 68 803 80 803 c 2
 113 803 l 2
 162 803 197 794 220 769 c 0
 244 745 255 705 255 644 c 0
 255 564 245 517 245 444 c 0
 245 403 267 361 342 359 c 1
 342 272 l 1
 267 270 245 229 245 186 c 0
 245 113 255 67 255 -14 c 0
 255 -75 244 -114 220 -138 c 0
EndSplineSet
EndChar

StartChar: asciitilde
Encoding: 126 126 95
Width: 590
GlyphClass: 1
Flags: W
LayerCount: 2
Fore
SplineSet
283 323 m 0
 253 345 227 367 196 367 c 0
 164 367 136 343 112 300 c 1
 35 358 l 1
 87 440 143 471 198 471 c 0
 244 471 278 449 307 427 c 0
 337 405 363 383 394 383 c 0
 425 383 453 405 477 449 c 1
 555 390 l 1
 503 309 446 278 392 278 c 0
 346 278 313 300 283 323 c 0
EndSplineSet
EndChar

StartChar: uni3099
Encoding: 12441 12441 96
Width: 0
GlyphClass: 2
Flags: W
LayerCount: 2
Fore
SplineSet
-148 790 m 0
 -133 766 -120 741 -110 721 c 1
 -185 687 l 1
 -198 715 -210 738 -222 760 c 0
 -235 783 -248 804 -263 826 c 1
 -189 856 l 1
 -177 839 -162 815 -148 790 c 0
-35 837 m 0
 -20 813 -6 789 5 769 c 1
 -70 733 l 1
 -84 760 -96 783 -109 805 c 0
 -122 826 -136 847 -152 868 c 1
 -79 902 l 1
 -66 885 -50 861 -35 837 c 0
EndSplineSet
EndChar

StartChar: uni309A
Encoding: 12442 12442 97
Width: 0
GlyphClass: 2
Flags: W
LayerCount: 2
Fore
SplineSet
-72 816 m 0
 -83 826 -97 833 -113 833 c 0
 -129 833 -144 826 -154 816 c 0
 -165 805 -171 790 -171 774 c 0
 -171 743 -145 717 -113 717 c 0
 -81 717 -55 743 -55 774 c 0
 -55 790 -62 805 -72 816 c 0
-198 860 m 0
 -176 882 -146 895 -113 895 c 0
 -80 895 -50 882 -28 860 c 0
 -7 838 7 808 7 774 c 0
 7 709 -47 655 -113 655 c 0
 -179 655 -233 709 -233 774 c 0
 -233 808 -220 838 -198 860 c 0
EndSplineSet
EndChar

StartChar: u1B000
Encoding: 110592 110592 98
Width: 1000
GlyphClass: 2
Flags: W
LayerCount: 2
Fore
SplineSet
167 607 m 1
 214.333333333 601.666666667 253.666666667 599 285 599 c 2
 444 599 l 1
 444 714 l 2
 444 748.666666667 442.333333333 775 439 793 c 1
 435 822 l 1
 580 822 l 1
 575 793 l 2
 571.666666667 771.666666667 570 745.333333333 570 714 c 2
 570 599 l 1
 751 599 l 2
 770.333333333 599 784 600.666666667 792 604 c 2
 804 610 l 1
 889 556 l 1
 875.666666667 532 868.666666667 518.666666667 868 516 c 1
 868 513 l 1
 840 456.333333333 812.333333333 405 785 359 c 128
 757.666666667 313 719 264 669 212 c 1
 616.333333333 160 562.5 118.5 507.5 87.5 c 128
 452.5 56.5 365 22 245 -16 c 1
 230 -21 l 1
 134 87 l 1
 173 98 l 2
 295.666666667 132 381.666666667 162.166666667 431 188.5 c 128
 480.333333333 214.833333333 526.666666667 248.666666667 570 290 c 0
 614.666666667 334.666666667 645.666666667 370.166666667 663 396.5 c 128
 680.333333333 422.833333333 696.333333333 450.333333333 711 479 c 1
 285 479 l 2
 273.666666667 479 234.333333333 477.666666667 167 475 c 1
 167 607 l 1
EndSplineSet
EndChar

StartChar: u1B001
Encoding: 110593 110593 99
Width: 1000
GlyphClass: 2
Flags: W
LayerCount: 2
Fore
SplineSet
353 292 m 0
 330.333333333 248 312.166666667 203.166666667 298.5 157.5 c 128
 284.833333333 111.833333333 278 83.5 278 72.5 c 128
 278 61.5 280 40.3333333333 284 9 c 1
 175 -4 l 1
 168 15 l 1
 158 45.6666666667 147.166666667 88.8333333333 135.5 144.5 c 128
 123.833333333 200.166666667 117.666666667 259.333333333 117 322 c 1
 70.3333333333 172.666666667 70.3333333333 172.666666667 117 322 c 1
 117.666666667 400 123.333333333 477.666666667 134 555 c 2
 138 583 l 1
 262 548 l 1
 257 525 l 1
 239.666666667 451 233.666666667 375.333333333 239 298 c 1
 265 362 l 1
 303.666666667 441.333333333 345.333333333 505.666666667 390 555 c 1
 444 623 511 670.666666667 591 698 c 1
 635 711.333333333 676.166666667 718 714.5 718 c 128
 752.833333333 718 789.166666667 711.666666667 823.5 699 c 128
 857.833333333 686.333333333 883 664.666666667 899 634 c 0
 911.666666667 610 917.666666667 581.666666667 917 549 c 0
 917 537.666666667 916.333333333 525.333333333 915 512 c 0
 907 442 885.666666667 382.166666667 851 332.5 c 128
 816.333333333 282.833333333 774 236 724 192 c 1
 724 192 724 192 714 182 c 1
 714 182 714 182 901 174 c 1
 929 174 l 1
 913 48 l 1
 827 56 749 60 679 60 c 128
 609 60 552.666666667 59.6666666667 510 59 c 1
 410 55 l 1
 390 173 l 1
 455.333333333 176.333333333 490.5 178.333333333 495.5 179 c 128
 500.5 179.666666667 515.333333333 186.833333333 540 200.5 c 128
 564.666666667 214.166666667 597 239.833333333 637 277.5 c 128
 677 315.166666667 710.5 353.166666667 737.5 391.5 c 128
 764.5 429.833333333 781.333333333 474.666666667 788 526 c 1
 788 526 788 526 788 540 c 128
 788 549.333333333 785.333333333 558 780 566 c 0
 770.666666667 580.666666667 750.833333333 588 720.5 588 c 128
 690.166666667 588 659.666666667 583.333333333 629 574 c 0
 581.666666667 557.333333333 534 525.166666667 486 477.5 c 128
 438 429.833333333 393.666666667 368 353 292 c 0
216 661 m 1
 191.333333333 672.333333333 161.666666667 684.333333333 127 697 c 1
 94 708 l 1
 168 806 l 1
 261.333333333 774 324.666666667 746.666666667 358 724 c 1
 391 653 l 1
 337.666666667 626.333333333 294 604 260 586 c 1
 248 592 l 1
 211 612 l 1
 176 630 l 1
 199.333333333 648 212.666666667 658.333333333 216 661 c 1
EndSplineSet
EndChar

StartChar: u1B002
Encoding: 110594 110594 100
Width: 1000
GlyphClass: 2
Flags: W
LayerCount: 2
Fore
SplineSet
885 590 m 2
 885 590 885 590 885 587 c 0
 880.333333333 529.666666667 842.666666667 489.333333333 772 466 c 2
 757 461 l 1
 705 513 l 1
 694.333333333 487 687 469 683 459 c 1
 747.666666667 442.333333333 800.166666667 413.833333333 840.5 373.5 c 128
 880.833333333 333.166666667 901.333333333 283.333333333 902 224 c 1
 902 223 l 1
 900 161.666666667 878.666666667 107.166666667 838 59.5 c 128
 797.333333333 11.8333333333 724.666666667 -30.6666666667 620 -68 c 2
 603 -74 l 1
 523 28 l 1
 561 37 l 1
 633.666666667 55 688.666666667 80.8333333333 726 114.5 c 128
 763.333333333 148.166666667 782 182.666666667 782 218 c 2
 782 219 l 1
 782.666666667 223.666666667 783 227.666666667 783 231 c 0
 783 259 770 284.5 744 307.5 c 128
 718 330.5 684 347.333333333 642 358 c 1
 633 336 l 1
 613.666666667 284 590.333333333 240.833333333 563 206.5 c 128
 535.666666667 172.166666667 506 141.333333333 474 114 c 1
 478.666666667 98 486 73.6666666667 496 41 c 1
 384 8 l 1
 376.666666667 28.6666666667 372 41.3333333333 370 46 c 1
 352.666666667 38.6666666667 332.5 31 309.5 23 c 128
 286.5 15 259.5 11 228.5 11 c 128
 197.5 11 169.833333333 21.8333333333 145.5 43.5 c 128
 121.166666667 65.1666666667 108.333333333 97 107 139 c 1
 107 140 l 1
 107.666666667 182 118.5 221.166666667 139.5 257.5 c 128
 160.5 293.833333333 187 326.166666667 219 354.5 c 128
 251 382.833333333 285.333333333 405.333333333 322 422 c 1
 324 467.333333333 329 512.666666667 337 558 c 1
 238.333333333 536 183.666666667 521.333333333 173 514 c 2
 147 495 l 1
 96 629 l 1
 121 636 l 2
 130.333333333 638.666666667 144.666666667 641.333333333 164 644 c 128
 183.333333333 646.666666667 207 651.333333333 235 658 c 128
 263 664.666666667 306.666666667 673.666666667 366 685 c 1
 374.666666667 715 380.666666667 737 384 751 c 1
 390.666666667 767.666666667 394.666666667 780.666666667 396 790 c 2
 401 816 l 1
 541 782 l 1
 514 751 l 2
 511.333333333 747.666666667 508.166666667 741.166666667 504.5 731.5 c 128
 500.833333333 721.833333333 497.666666667 714 495 708 c 1
 569.666666667 718.666666667 630 724 676 724 c 0
 815.333333333 724 885 679.333333333 885 590 c 2
764 585 m 1
 760.666666667 595.666666667 749.666666667 601.833333333 731 603.5 c 128
 712.333333333 605.166666667 691.333333333 606 668 606 c 128
 644.666666667 606 613.333333333 604 574 600 c 0
 533.333333333 593.333333333 495 587 459 581 c 0
 458.333333333 579 455.333333333 564.666666667 450 538 c 0
 443.333333333 503.333333333 439 477.333333333 437 460 c 1
 475 467.333333333 514.666666667 472 556 474 c 1
 560.666666667 490 568.333333333 516 579 552 c 1
 699 518 l 1
 670 546 l 1
 714 557 l 2
 739.333333333 563 756 572.333333333 764 585 c 1
443 248 m 1
 470.333333333 279.333333333 494.666666667 317.666666667 516 363 c 1
 492 361 464 355.666666667 432 347 c 1
 433.333333333 311 437 278 443 248 c 1
247 130 m 0
 269.666666667 130 301.333333333 141 342 163 c 1
 332 218.333333333 326 262.666666667 324 296 c 1
 300.666666667 280 279.166666667 258.666666667 259.5 232 c 128
 239.833333333 205.333333333 229.666666667 178.666666667 229 152 c 0
 229 144 230.333333333 137.666666667 233 133 c 0
 235 131 239.666666667 130 247 130 c 0
EndSplineSet
EndChar

StartChar: u1B003
Encoding: 110595 110595 101
Width: 1000
GlyphClass: 2
Flags: W
LayerCount: 2
Fore
SplineSet
706 282 m 1
 706 282 706 282 706 269 c 128
 706 260.333333333 702.5 251 695.5 241 c 128
 688.5 231 678.333333333 221.833333333 665 213.5 c 128
 651.666666667 205.166666667 638 197 624 189 c 0
 588 166.333333333 570 141.666666667 570 115 c 2
 570 115 570 115 570 109 c 1
 576.666666667 88.3333333333 584.333333333 75.6666666667 593 71 c 128
 601.666666667 66.3333333333 617.333333333 64 640 64 c 0
 727.333333333 64 802 72 864 88 c 1
 893 96 l 1
 900 -27 l 1
 879 -31 l 1
 801.666666667 -47 733.5 -55 674.5 -55 c 128
 615.5 -55 569.333333333 -47 536 -31 c 128
 502.666666667 -15 478.333333333 15 463 59 c 0
 457 78.3333333333 454 97 454 115 c 0
 454 174.333333333 484.333333333 226.333333333 545 271 c 1
 515.666666667 280.333333333 458.333333333 292.666666667 373 308 c 1
 392 405 l 1
 410 407 l 2
 434 409.666666667 459 415 485 423 c 1
 413 444 l 1
 421 469 l 1
 435.666666667 510.333333333 446.666666667 551 454 591 c 1
 390 593 332.166666667 599 280.5 609 c 128
 228.833333333 619 194 625.333333333 176 628 c 2
 146 632 l 1
 189 760 l 1
 213 751 l 2
 282.333333333 725 367 712 467 712 c 1
 476 808 l 1
 605 803 l 1
 602.333333333 767.666666667 599.666666667 739.333333333 597 718 c 1
 643 723.333333333 703.333333333 734.666666667 778 752 c 0
 791.333333333 756 803.666666667 760.333333333 815 765 c 2
 841 777 l 1
 875 648 l 1
 847 645 l 2
 830.333333333 643 814.333333333 639.333333333 799 634 c 0
 704.333333333 614 631 601.333333333 579 596 c 1
 568.333333333 534 556 482.333333333 542 441 c 1
 546.666666667 442.333333333 551.333333333 444 556 446 c 0
 609.333333333 466.666666667 652.166666667 488.333333333 684.5 511 c 128
 716.833333333 533.666666667 744.333333333 558.666666667 767 586 c 2
 787 610 l 1
 866 504 l 1
 848 489 l 2
 804 451.666666667 765.666666667 423.666666667 733 405 c 128
 700.333333333 386.333333333 664.333333333 369 625 353 c 1
 675.666666667 335.666666667 702.666666667 312 706 282 c 1
344 527 m 1
 375 501 l 1
 391 487 l 1
 379 469 l 2
 346.333333333 419.666666667 326.666666667 380.666666667 320 352 c 1
 312 322 l 1
 227 365 l 1
 211 406.333333333 191.666666667 469 169 553 c 1
 218 559 l 1
 193 584 l 1
 199 584.666666667 227.333333333 589.333333333 278 598 c 1
 286 564 293 537 299 517 c 1
 313 528 l 1
 329 539 l 1
 344 527 l 1
EndSplineSet
EndChar

StartChar: u1B004
Encoding: 110596 110596 102
Width: 1000
GlyphClass: 2
Flags: W
LayerCount: 2
Fore
SplineSet
292 52 m 2
 292 19 l 1
 292 -6 l 1
 181 -7 l 1
 177 12 l 1
 162.333333333 76 156 146.666666667 158 224 c 0
 158 298.666666667 163.333333333 368.166666667 174 432.5 c 128
 184.666666667 496.833333333 195.666666667 558.333333333 207 617 c 1
 82 590 l 1
 82 722 l 1
 105 723 l 2
 125 724.333333333 188 736 294 758 c 1
 355 709 l 1
 335.666666667 642.333333333 318.333333333 568 303 486 c 128
 287.666666667 404 279.333333333 342.666666667 278 302 c 1
 284 315.333333333 294.666666667 338 310 370 c 1
 383 303 l 1
 369.666666667 271 352.333333333 229.666666667 331 179 c 0
 305 117 292 74.6666666667 292 52 c 2
456 719 m 0
 509.333333333 719 645.333333333 733.666666667 864 763 c 1
 870 639 l 1
 644 616 l 1
 539.333333333 604.666666667 476 596.333333333 454 591 c 1
 423 582 l 1
 423 721 l 1
 442.333333333 719.666666667 453.333333333 719 456 719 c 0
528 155 m 0
 486 155 450.333333333 177.333333333 421 222 c 0
 401.666666667 251.333333333 392 282.166666667 392 314.5 c 128
 392 346.833333333 399.166666667 381.5 413.5 418.5 c 128
 427.833333333 455.5 452.666666667 485 488 507 c 0
 530 533.666666667 581.833333333 547 643.5 547 c 128
 705.166666667 547 752.333333333 536.333333333 785 515 c 0
 831.666666667 484.333333333 863.666666667 444.333333333 881 395 c 0
 893 362.333333333 899 328 899 292 c 0
 899 216.666666667 875.333333333 152.333333333 828 99 c 0
 792 58.3333333333 730.666666667 21.3333333333 644 -12 c 1
 632 -16 l 1
 492 67 l 1
 552 81 l 2
 616.666666667 96.3333333333 665.833333333 116.166666667 699.5 140.5 c 128
 733.166666667 164.833333333 755.333333333 196.666666667 766 236 c 0
 772.666666667 259.333333333 776 279.666666667 776 297 c 128
 776 314.333333333 774.333333333 329.666666667 771 343 c 0
 759.666666667 381 743 405.666666667 721 417 c 1
 704.333333333 271 651.333333333 185.333333333 562 160 c 0
 550.666666667 156.666666667 539.333333333 155 528 155 c 0
537 384 m 0
 523.666666667 362 517 344.166666667 517 330.5 c 128
 517 316.833333333 519.333333333 305.833333333 524 297.5 c 128
 528.666666667 289.166666667 533 284 537 282 c 0
 539 282.666666667 541.666666667 284.666666667 545 288 c 0
 563 306 575.5 328.333333333 582.5 355 c 128
 589.5 381.666666667 593.333333333 405.666666667 594 427 c 1
 568.666666667 421 549.666666667 406.666666667 537 384 c 0
EndSplineSet
EndChar

StartChar: u1B005
Encoding: 110597 110597 103
Width: 1000
GlyphClass: 2
Flags: W
LayerCount: 2
Fore
SplineSet
386 224 m 1
 432.666666667 218 470 193.666666667 498 151 c 1
 515.333333333 173.666666667 536 193 560 209 c 0
 596.666666667 233.666666667 636.333333333 246.333333333 679 247 c 1
 680 247 l 1
 738 245.666666667 788.333333333 225.666666667 831 187 c 128
 873.666666667 148.333333333 907.666666667 99.3333333333 933 40 c 1
 944 16 l 1
 820 -33 l 1
 811 -9 l 1
 793 41 772.166666667 77.5 748.5 100.5 c 128
 724.833333333 123.5 700.833333333 134.833333333 676.5 134.5 c 128
 652.166666667 134.166666667 629.833333333 125.5 609.5 108.5 c 128
 589.166666667 91.5 573.333333333 68.3333333333 562 39 c 0
 558 29.6666666667 555.333333333 18.6666666667 554 6 c 2
 551 -17 l 1
 435 -17 l 1
 429.666666667 9.66666666667 426.333333333 29.6666666667 425 43 c 1
 407.666666667 95.6666666667 378 122.666666667 336 124 c 0
 309.333333333 122.666666667 282.5 108.833333333 255.5 82.5 c 128
 228.5 56.1666666667 202 24.6666666667 176 -12 c 1
 163 -31 l 1
 51 35 l 1
 72 57 l 1
 184.666666667 177 276.666666667 260.666666667 348 308 c 1
 347 308 l 1
 337.666666667 326.666666667 333.333333333 344.666666667 334 362 c 0
 334 397.333333333 351.333333333 431.333333333 386 464 c 1
 350.666666667 461.333333333 305 458.333333333 249 455 c 1
 245 580 l 1
 270 580 l 2
 300.666666667 580 334.666666667 581.333333333 372 584 c 2
 464 590 l 2
 528 594 570.333333333 597.666666667 591 601 c 2
 610 604 l 1
 653 504 l 1
 632 493 l 2
 582 467 535.666666667 438 493 406 c 0
 478.333333333 395.333333333 466.666666667 385.666666667 458 377 c 1
 469.333333333 377.666666667 499.166666667 381.833333333 547.5 389.5 c 128
 595.833333333 397.166666667 636.666666667 405.333333333 670 414 c 2
 694 420 l 1
 730 297 l 1
 636 281 l 1
 562.666666667 269.666666667 511 264 481 264 c 128
 451 264 428.666666667 265.666666667 414 269 c 1
 426 254 l 1
 405 238 l 2
 398.333333333 233.333333333 392 228.666666667 386 224 c 1
477 676 m 1
 451 684.666666667 420 692.666666667 384 700 c 2
 350 707 l 1
 411 814 l 1
 497.666666667 797.333333333 564 777.666666667 610 755 c 1
 651 688 l 1
 601.666666667 655.333333333 560.666666667 628.333333333 528 607 c 1
 516 611 l 1
 477 626 l 1
 442 640 l 1
 462.666666667 661.333333333 474.333333333 673.333333333 477 676 c 1
EndSplineSet
EndChar

StartChar: u1B006
Encoding: 110598 110598 104
Width: 1000
GlyphClass: 2
Flags: W
LayerCount: 2
Fore
SplineSet
249 270 m 1
 271 246 l 1
 285 232 l 1
 274 215 l 1
 225.333333333 143.666666667 193 90 177 54 c 2
 164 25 l 1
 92 82 l 1
 82.6666666667 125.333333333 75.3333333333 183.666666667 70 257 c 128
 64.6666666667 330.333333333 62.6666666667 381.333333333 64 410 c 2
 65 428 l 1
 178 457 l 1
 180.666666667 361.666666667 185 290 191 242 c 1
 211 268 l 1
 229 290 l 1
 249 270 l 1
417 481 m 1
 415.666666667 449.666666667 415.166666667 423.833333333 415.5 403.5 c 128
 415.833333333 383.166666667 418.333333333 351 423 307 c 128
 427.666666667 263 433.333333333 225.333333333 440 194 c 1
 446 169 l 1
 326 146 l 1
 321 170 l 2
 305.666666667 246 298 317.333333333 298 384 c 0
 298 404.666666667 298.666666667 431 300 463 c 1
 417 481 l 1
665 773 m 0
 710.333333333 773 746 761.666666667 772 739 c 0
 806 709.666666667 828.666666667 671.833333333 840 625.5 c 128
 851.333333333 579.166666667 856.833333333 533.833333333 856.5 489.5 c 128
 856.166666667 445.166666667 853.5 404.833333333 848.5 368.5 c 128
 843.5 332.166666667 838.666666667 303.666666667 834 283 c 128
 829.333333333 262.333333333 826 246.666666667 824 236 c 1
 840.666666667 229.333333333 870 221.666666667 912 213 c 1
 918 205 l 1
 943 168 l 1
 954 153 l 1
 942 138 l 2
 903.333333333 88.6666666667 844 24.3333333333 764 -55 c 2
 753 -66 l 1
 737 -60 l 1
 698 -44 l 1
 667 -32 l 1
 688 -5 l 1
 737.333333333 55.6666666667 771 100.333333333 789 129 c 1
 731 150 l 1
 707 166 695 186 695 210 c 0
 695 220 698.833333333 245.333333333 706.5 286 c 128
 714.166666667 326.666666667 720.166666667 368.166666667 724.5 410.5 c 128
 728.833333333 452.833333333 731 485.5 731 508.5 c 128
 731 531.5 729 555.5 725 580.5 c 128
 721 605.5 710 626.666666667 692 644 c 0
 676 658.666666667 646.333333333 659.666666667 603 647 c 2
 563 635 l 1
 592 765 l 1
 608 768 l 2
 628.666666667 771.333333333 647.666666667 773 665 773 c 0
EndSplineSet
EndChar

StartChar: u1B007
Encoding: 110599 110599 105
Width: 1000
GlyphClass: 2
Flags: W
LayerCount: 2
Fore
SplineSet
248 482 m 1
 264 295 l 2
 267.333333333 259 275.666666667 203.833333333 289 129.5 c 128
 302.333333333 55.1666666667 310.333333333 12.3333333333 313 1 c 2
 318 -25 l 1
 198 -43 l 1
 193 -21 l 2
 185.666666667 9.66666666667 176.666666667 54 166 112 c 128
 155.333333333 170 150 226 150 280 c 0
 150 356.666666667 153 417.666666667 159 463 c 1
 71 535 l 1
 154.333333333 625 217.666666667 703.333333333 261 770 c 1
 274 791 l 1
 392 718 l 1
 367 696 l 1
 316.333333333 648 261 581 201 495 c 1
 231 487 l 1
 248 482 l 1
618 179 m 1
 591.333333333 174.333333333 570.333333333 172 555 172 c 0
 506.333333333 172 472.333333333 188 453 220 c 0
 447.666666667 230 445 243 445 259 c 0
 445 287 468.666666667 336 516 406 c 1
 443.333333333 382 394.666666667 361.666666667 370 345 c 1
 340 326 l 1
 308 457 l 1
 329 464 l 1
 452.333333333 509.333333333 553.666666667 540.333333333 633 557 c 1
 632 559 l 1
 613 585 l 1
 595 608 l 1
 620 622 l 1
 650 638 l 1
 609.333333333 650 538.666666667 665.333333333 438 684 c 1
 487 792 l 1
 505 789 l 1
 550.333333333 782.333333333 606.5 770.666666667 673.5 754 c 128
 740.5 737.333333333 787.333333333 723.666666667 814 713 c 1
 829 708 l 1
 834 626 l 1
 817 620 l 2
 795.666666667 612 746.666666667 590 670 554 c 1
 673 550 l 1
 695 519 l 1
 824 498 l 1
 815 470 l 2
 805.666666667 442 797.333333333 404.333333333 790 357 c 1
 806 365 831 378.333333333 865 397 c 1
 927 297 l 1
 907 284 l 1
 873.666666667 261.333333333 822.333333333 238 753 214 c 1
 741.666666667 178.666666667 727.333333333 141.833333333 710 103.5 c 128
 692.666666667 65.1666666667 664.333333333 14 625 -50 c 2
 615 -66 l 1
 495 -26 l 1
 514 1 l 2
 561.333333333 69 596 128.333333333 618 179 c 1
560 283 m 1
 596 288.333333333 629.666666667 296.666666667 661 308 c 1
 662 308 l 1
 672.666666667 349.333333333 679.166666667 379.833333333 681.5 399.5 c 128
 683.833333333 419.166666667 686 434.333333333 688 445 c 1
 658 411.666666667 634.833333333 383.833333333 618.5 361.5 c 128
 602.166666667 339.166666667 588.833333333 321.166666667 578.5 307.5 c 128
 568.166666667 293.833333333 562 285.666666667 560 283 c 1
EndSplineSet
EndChar

StartChar: u1B008
Encoding: 110600 110600 106
Width: 1000
GlyphClass: 2
Flags: W
LayerCount: 2
Fore
SplineSet
641 370 m 0
 559.666666667 370 517.333333333 363.666666667 514 351 c 1
 514 350 514 350 514 350 c 0
 514 347.333333333 519 343.333333333 529 338 c 128
 539 332.666666667 550.833333333 328.166666667 564.5 324.5 c 128
 578.166666667 320.833333333 598.333333333 318.333333333 625 317 c 128
 651.666666667 315.666666667 687.666666667 313.333333333 733 310 c 1
 717 193 l 1
 673 196.333333333 635.833333333 198 605.5 198 c 128
 575.166666667 198 515.666666667 195.333333333 427 190 c 1
 420 206 l 1
 408 231 l 1
 399 253 l 1
 420 264 l 1
 430 268 l 1
 428.666666667 269.333333333 427.666666667 270.666666667 427 272 c 0
 406.333333333 296 396 321 396 347 c 2
 396 347 396 347 396 348 c 0
 396 366.666666667 401.833333333 385.333333333 413.5 404 c 128
 425.166666667 422.666666667 439 437.666666667 455 449 c 1
 443.666666667 463 431.333333333 482.333333333 418 507 c 2
 402 535 l 1
 424 541 l 1
 384 541 341.333333333 543.666666667 296 549 c 128
 250.666666667 554.333333333 209.333333333 559 172 563 c 1
 207 693 l 1
 232 685 l 2
 252.666666667 678.333333333 282.5 672.5 321.5 667.5 c 128
 360.5 662.5 395.5 660 426.5 660 c 128
 457.5 660 486.666666667 661.333333333 514 664 c 1
 470 672 412 687 340 709 c 1
 362 830 l 1
 390 820 l 1
 462.666666667 793.333333333 543.666666667 776 633 768 c 1
 660 766 l 1
 646 683 l 1
 707.333333333 696.333333333 749 707.666666667 771 717 c 2
 795 727 l 1
 835 605 l 1
 715 571 606 550.666666667 508 544 c 1
 547.333333333 513.333333333 606.666666667 496.333333333 686 493 c 1
 721 491 l 1
 674 369 l 1
 657.333333333 369 646.333333333 369.333333333 641 370 c 0
324 111 m 1
 346.666666667 96.3333333333 411.666666667 89 519 89 c 2
 519 89 519 89 572 89 c 128
 607.333333333 89 647.333333333 92.5 692 99.5 c 128
 736.666666667 106.5 771 113.333333333 795 120 c 2
 819 127 l 1
 855 2 l 1
 828 -2 l 1
 739.333333333 -18.6666666667 644 -28 542 -30 c 1
 542 -30 542 -30 529 -30 c 0
 450.333333333 -30 387.833333333 -25.5 341.5 -16.5 c 128
 295.166666667 -7.5 262 3 242 15 c 0
 206 36.3333333333 188 66.1666666667 188 104.5 c 128
 188 142.833333333 206.666666667 174.666666667 244 200 c 1
 258 209 l 1
 360 140 l 1
 333 119 l 2
 329 116.333333333 326 113.666666667 324 111 c 1
EndSplineSet
EndChar

StartChar: u1B009
Encoding: 110601 110601 107
Width: 1000
GlyphClass: 2
Flags: W
LayerCount: 2
Fore
SplineSet
478 162 m 0
 479.333333333 159.333333333 484.166666667 158 492.5 158 c 128
 500.833333333 158 510.833333333 162.666666667 522.5 172 c 128
 534.166666667 181.333333333 548.333333333 202.666666667 565 236 c 1
 565 236 565 236 539 248 c 1
 531.666666667 249.333333333 526.333333333 250 523 250 c 0
 511 250 500 244.666666667 490 234 c 1
 479.333333333 211.333333333 474 196.666666667 474 190 c 0
 474 179.333333333 475.333333333 170 478 162 c 0
374 115 m 1
 374 105 377 60.6666666667 383 -18 c 1
 248 -18 l 1
 251.333333333 22 253 52.6666666667 253 74 c 128
 253 95.3333333333 253.333333333 127.5 254 170.5 c 128
 254.666666667 213.5 255 242.333333333 255 257 c 1
 215 198.333333333 172.333333333 138 127 76 c 1
 51 183 l 1
 146.333333333 305.666666667 217.333333333 403.666666667 264 477 c 1
 265.333333333 499 266.333333333 513.166666667 267 519.5 c 128
 267.666666667 525.833333333 268 530 268 532 c 1
 213 524 l 1
 89 507 l 1
 76 639 l 1
 102 637.666666667 117.333333333 637 122 637 c 0
 164 636.333333333 215.333333333 641 276 651 c 1
 278.666666667 692.333333333 280 721 280 737 c 128
 280 753 279 769.333333333 277 786 c 2
 274 815 l 1
 420 810 l 1
 414 781 l 2
 408.666666667 755 403 715 397 661 c 1
 423 629 l 1
 434 615 l 1
 425.333333333 602.333333333 420.333333333 594.333333333 419 591 c 1
 437 609 l 1
 454 585 l 1
 472 560 l 1
 483 545 l 1
 434.333333333 485 398.666666667 438.333333333 376 405 c 1
 374 364.333333333 373 326.666666667 373 292 c 2
 373 244 l 1
 379.666666667 265.333333333 389.666666667 285.333333333 403 304 c 0
 439 348 479.333333333 370 524 370 c 0
 544 370 574 362.333333333 614 347 c 1
 624.666666667 377.666666667 638 419.333333333 654 472 c 1
 778 420 l 1
 755.333333333 366 737 322.666666667 723 290 c 1
 755 269.333333333 785.666666667 245.333333333 815 218 c 1
 817 228.666666667 818 250 818 282 c 0
 818 330.666666667 815.333333333 362 810 376 c 0
 802 408 786.666666667 431.666666667 764 447 c 0
 741.333333333 463 679.666666667 474.333333333 579 481 c 1
 528 544 l 1
 544 560 l 2
 596.666666667 612 638.333333333 660.333333333 669 705 c 1
 724 807 l 1
 840 746 l 1
 825 723 l 1
 796.333333333 677.666666667 761 629.333333333 719 578 c 1
 813 564.666666667 877.333333333 520.333333333 912 445 c 1
 926 407.666666667 932.833333333 357 932.5 293 c 128
 932.166666667 229 926.666666667 182 916 152 c 1
 900 110 l 1
 876 62.6666666667 847.166666667 30.3333333333 813.5 13 c 128
 779.833333333 -4.33333333333 737.666666667 -13 687 -13 c 2
 664 -13 l 1
 652 101 l 1
 680 101 l 1
 703.333333333 101.666666667 722.333333333 104.333333333 737 109 c 1
 716.333333333 132.333333333 693.666666667 153.666666667 669 173 c 1
 646.333333333 129 621 96 593 74 c 128
 565 52 528.666666667 40.3333333333 484 39 c 1
 483 39 l 1
 435 40.3333333333 398.666666667 65.6666666667 374 115 c 1
EndSplineSet
EndChar

StartChar: u1B00A
Encoding: 110602 110602 108
Width: 1000
GlyphClass: 2
Flags: W
LayerCount: 2
Fore
SplineSet
493 178 m 1
 483 178.666666667 473 179 463 179 c 0
 401.666666667 177.666666667 364 163 350 135 c 0
 348 127.666666667 346.666666667 120.666666667 346 114 c 0
 346 100 355 88.6666666667 373 80 c 1
 393.666666667 74.6666666667 408.666666667 72 418 72 c 128
 427.333333333 72 437.333333333 73.6666666667 448 77 c 1
 450 77 l 1
 475.333333333 81.6666666667 489.666666667 115.333333333 493 178 c 1
491 -35 m 1
 469 -40.3333333333 443.5 -43 414.5 -43 c 128
 385.5 -43 352.666666667 -35.6666666667 316 -21 c 1
 256 14.3333333333 225.666666667 61 225 119 c 0
 225 135.666666667 227.666666667 153.333333333 233 172 c 0
 265.666666667 250.666666667 337.666666667 292.333333333 449 297 c 0
 464.333333333 298.333333333 479.666666667 299 495 299 c 1
 495 318.333333333 494.666666667 337.666666667 494 357 c 1
 472 355.666666667 452.5 353.833333333 435.5 351.5 c 128
 418.5 349.166666667 394.666666667 343.333333333 364 334 c 2
 340 327 l 1
 297 461 l 1
 297 461 297 461 389 470.5 c 128
 450.333333333 476.833333333 526 483.666666667 616 491 c 1
 617.333333333 377.666666667 618 310.333333333 618 289 c 1
 686 276.333333333 758.333333333 253.666666667 835 221 c 1
 855 213 l 1
 816 77 l 1
 789 92 l 1
 729 123.333333333 670.333333333 146 613 160 c 1
 609 111.333333333 600.333333333 72.6666666667 587 44 c 0
 569.666666667 7.33333333333 537.666666667 -19 491 -35 c 1
495 659 m 1
 459.666666667 666.333333333 407.333333333 680.333333333 338 701 c 1
 361 822 l 1
 389 812 l 1
 461 785.333333333 541.666666667 768 631 760 c 1
 658 758 l 1
 644 671 l 1
 644 671 644 671 650 671 c 0
 750 671 817.666666667 655.333333333 853 624 c 0
 875.666666667 603.333333333 888.333333333 574.666666667 891 538 c 1
 885.666666667 478 850.333333333 433.666666667 785 405 c 1
 773 399 l 1
 671 464 l 1
 713 483 l 2
 739.666666667 495 754 510 756 528 c 1
 749.333333333 538.666666667 736.166666667 545.166666667 716.5 547.5 c 128
 696.833333333 549.833333333 675.333333333 551 652 551 c 0
 573.333333333 551 479.5 539.666666667 370.5 517 c 128
 261.5 494.333333333 194.666666667 477 170 465 c 1
 146 452 l 1
 94 587 l 1
 124 592.333333333 147.666666667 596.166666667 165 598.5 c 128
 182.333333333 600.833333333 205.666666667 605.333333333 235 612 c 0
 329.666666667 633.333333333 416.333333333 649 495 659 c 1
EndSplineSet
EndChar

StartChar: u1B00B
Encoding: 110603 110603 109
Width: 1000
GlyphClass: 2
Flags: W
LayerCount: 2
Fore
SplineSet
786 541 m 0
 782.666666667 551 743 556 667 556 c 0
 605 556 545 551.666666667 487 543 c 1
 560.333333333 513.666666667 615 487.666666667 651 465 c 1
 653 456 l 1
 666 414 l 1
 673 391 l 1
 635 379 600.666666667 368.666666667 570 360 c 1
 597.333333333 349.333333333 623 335.666666667 647 319 c 0
 685 291.666666667 707.666666667 251.666666667 715 199 c 1
 715 197 l 1
 713.666666667 75 641.333333333 -10.6666666667 498 -60 c 1
 484 -64 l 1
 371 32 l 1
 416 44 l 1
 530 75.3333333333 587 117.666666667 587 171 c 0
 587 199 576 219 554 231 c 128
 532 243 505.166666667 252.666666667 473.5 260 c 128
 441.833333333 267.333333333 387.333333333 274.666666667 310 282 c 2
 280 285 l 1
 318 406 l 1
 382 398 434.333333333 390.666666667 475 384 c 1
 472 387 l 1
 488 401 497 409.333333333 499 412 c 1
 490.333333333 416 478.666666667 421 464 427 c 2
 368 470 l 1
 417 532 l 1
 256.333333333 501.333333333 167 480.666666667 149 470 c 1
 124 457 l 1
 74 590 l 1
 101 596 l 2
 109.666666667 598 123.333333333 600.333333333 142 603 c 128
 160.666666667 605.666666667 185.666666667 610.333333333 217 617 c 0
 320.333333333 639 420.666666667 656 518 668 c 1
 485.333333333 675.333333333 436 688.666666667 370 708 c 1
 391 829 l 1
 419 819 l 2
 485 795 551.666666667 780 619 774 c 1
 645 772 l 1
 630 676 l 1
 630 676 630 676 683.5 676 c 128
 719.166666667 676 755.5 672.166666667 792.5 664.5 c 128
 829.5 656.833333333 857.333333333 646 876 632 c 0
 906.666666667 609.333333333 922 579 922 541 c 0
 922 491 890 443.666666667 826 399 c 1
 812 389 l 1
 692 471 l 1
 731 490 l 2
 765 506.666666667 783.333333333 523.333333333 786 540 c 1
 786 540 786 540 786 541 c 0
EndSplineSet
EndChar

StartChar: u1B00C
Encoding: 110604 110604 110
Width: 1000
GlyphClass: 2
Flags: W
LayerCount: 2
Fore
SplineSet
495 536 m 1
 549 544.666666667 594 549 630 549 c 0
 701.333333333 549 759.666666667 536.333333333 805 511 c 0
 835.666666667 493.666666667 860.166666667 467.333333333 878.5 432 c 128
 896.833333333 396.666666667 906 362 906 328 c 0
 906 266.666666667 879 213.333333333 825 168 c 0
 779 129.333333333 714 104 630 92 c 1
 622.666666667 85.3333333333 611.333333333 78.6666666667 596 72 c 1
 585.333333333 64 577.666666667 57.3333333333 573 52 c 1
 580.333333333 52 595.5 51.8333333333 618.5 51.5 c 128
 641.5 51.1666666667 683 56.6666666667 743 68 c 1
 773 73 l 1
 773 43 l 2
 773 26.3333333333 772.666666667 8 772 -12 c 0
 772.666666667 -14 773 -18 773 -24 c 128
 773 -30 770.333333333 -35.8333333333 765 -41.5 c 128
 759.666666667 -47.1666666667 753 -51 745 -53 c 1
 679.666666667 -61.6666666667 637.333333333 -65.8333333333 618 -65.5 c 128
 598.666666667 -65.1666666667 587.666666667 -65 585 -65 c 0
 495 -61 450 -25.3333333333 450 42 c 0
 450 60 452.333333333 73.3333333333 457 82 c 128
 461.666666667 90.6666666667 464.666666667 96.3333333333 466 99 c 1
 463.333333333 99.6666666667 461.333333333 100.333333333 460 101 c 0
 432.666666667 115.666666667 415 135.333333333 407 160 c 1
 407 160 407 160 391.5 146 c 128
 381.166666667 136.666666667 364.833333333 126.833333333 342.5 116.5 c 128
 320.166666667 106.166666667 306 99 300 95 c 1
 297 95 l 1
 261.666666667 80.3333333333 228.833333333 73 198.5 73 c 128
 168.166666667 73 142.333333333 79 121 91 c 0
 85.6666666667 111 68.6666666667 138.666666667 70 174 c 0
 70 208.666666667 79.5 246.833333333 98.5 288.5 c 128
 117.5 330.166666667 144.666666667 365.666666667 180 395 c 0
 232.666666667 439.666666667 295 475 367 501 c 1
 367.666666667 539.666666667 374.333333333 573.333333333 387 602 c 1
 393.666666667 613.333333333 403.666666667 623.833333333 417 633.5 c 128
 430.333333333 643.166666667 442 651.333333333 452 658 c 1
 408.666666667 654.666666667 353.333333333 649 286 641 c 1
 280 780 l 1
 319.333333333 776 342.166666667 774.166666667 348.5 774.5 c 128
 354.833333333 774.833333333 376.5 775 413.5 775 c 128
 450.5 775 487.833333333 776.666666667 525.5 780 c 128
 563.166666667 783.333333333 587.666666667 787.666666667 599 793 c 1
 614 799 l 1
 695 730 l 1
 676 712 l 1
 640 661 l 1
 631 650 l 2
 625.666666667 642.666666667 616 632 602 618 c 0
 588 603.333333333 576.666666667 594 568 590 c 0
 560 586 548 578.666666667 532 568 c 0
 512 554.666666667 499.666666667 544 495 536 c 1
490 304 m 1
 524 315.333333333 553.5 321 578.5 321 c 128
 603.5 321 618 320.666666667 622 320 c 0
 650 316 670 304.833333333 682 286.5 c 128
 694 268.166666667 700 250 700 232 c 2
 700 232 700 232 700 225 c 1
 732 241 753.333333333 258.666666667 764 278 c 0
 770.666666667 290 774 304 774 320 c 0
 774 354.666666667 759 380.666666667 729 398 c 128
 699 415.333333333 660.666666667 423.666666667 614 423 c 0
 584.666666667 423 550.333333333 419.666666667 511 413 c 1
 496 409 l 1
 498.666666667 383 498.333333333 355 495 325 c 1
 493 317.666666667 491.333333333 310.666666667 490 304 c 1
192 192 m 1
 194.666666667 189.333333333 197.666666667 188 201 188 c 2
 201 188 201 188 218 190 c 0
 236 192 262.333333333 204.666666667 297 228 c 0
 331.666666667 252 353.666666667 279.333333333 363 310 c 0
 368.333333333 326 371.333333333 345.333333333 372 368 c 1
 328.666666667 348.666666667 290.666666667 323.666666667 258 293 c 0
 214.666666667 253 192.666666667 219.333333333 192 192 c 1
192 192 m 1
 192 192 l 1
579 200 m 128
 582.333333333 204.666666667 584.333333333 208.5 585 211.5 c 128
 585.666666667 214.5 586 216.666666667 586 218 c 128
 586 219.333333333 582 220 574 220 c 2
 568 220 l 1
 543.333333333 217.333333333 529.666666667 214.666666667 527 212 c 0
 517 205.333333333 512 199.333333333 512 194 c 2
 512 194 l 0
 512 192 514.833333333 190 520.5 188 c 128
 526.166666667 186 532.166666667 185 538.5 185 c 128
 544.833333333 185 552.333333333 186.333333333 561 189 c 128
 569.666666667 191.666666667 575.666666667 195.333333333 579 200 c 128
EndSplineSet
EndChar

StartChar: u1B00D
Encoding: 110605 110605 111
Width: 1000
GlyphClass: 2
Flags: W
LayerCount: 2
Fore
SplineSet
384 488 m 1
 379.333333333 488.666666667 373 489 365 489 c 128
 357 489 346.666666667 488 334 486 c 0
 285.333333333 475.333333333 254.666666667 456.333333333 242 429 c 0
 237.333333333 419 235 412.666666667 235 410 c 2
 235 410 235 410 235 404 c 1
 235.666666667 403.333333333 236.666666667 403 238 403 c 0
 273.333333333 404.333333333 322 432.666666667 384 488 c 1
578 435 m 1
 612 457.666666667 651.333333333 469 696 469 c 0
 752 469 799.666666667 452.666666667 839 420 c 0
 877.666666667 385.333333333 897 338.666666667 897 280 c 2
 897 280 897 280 897 263 c 0
 893 195 868.333333333 140.333333333 823 99 c 128
 777.666666667 57.6666666667 729 31 677 19 c 1
 652 -78 l 1
 629 -73 l 1
 555 -58.3333333333 501.666666667 -45 469 -33 c 128
 436.333333333 -21 400 -7.33333333333 360 8 c 1
 391 129 l 1
 418 116 l 2
 474 89.3333333333 539.333333333 68.6666666667 614 54 c 1
 560 119 l 1
 611 121 l 2
 641 122.333333333 674 136.666666667 710 164 c 0
 751.333333333 195.333333333 772.333333333 233.333333333 773 278 c 0
 773 298 766.5 314 753.5 326 c 128
 740.5 338 722.333333333 344 699 344 c 0
 660.333333333 344 628.666666667 332.666666667 604 310 c 128
 579.333333333 287.333333333 562.666666667 268 554 252 c 2
 542 229 l 1
 445 290 l 1
 450 308 l 2
 456 328 459 345 459 359 c 128
 459 373 458.666666667 384.666666667 458 394 c 1
 419.333333333 360 380.666666667 333.666666667 342 315 c 128
 303.333333333 296.333333333 272.333333333 287 249 287 c 0
 195 287 156 307.666666667 132 349 c 0
 123.333333333 369 119 388.666666667 119 408 c 0
 119 444.666666667 134 480.666666667 164 516 c 0
 208 567.333333333 267.333333333 595.666666667 342 601 c 0
 348 601 354 601.333333333 360 602 c 0
 403.333333333 602 440.333333333 596 471 584 c 1
 487 609.333333333 502.333333333 642.666666667 517 684 c 1
 431 680.666666667 356.333333333 675 293 667 c 1
 288 802 l 1
 319.333333333 799.333333333 340 798 350 798 c 0
 424.666666667 800.666666667 485 802 531 802 c 0
 562.333333333 804 586.666666667 805 604 805 c 2
 613 805 l 1
 675 755 l 1
 671 739 l 1
 647.666666667 652.333333333 619 584.333333333 585 535 c 0
 577 524.333333333 569 514 561 504 c 1
 565 496 569 486.666666667 573 476 c 0
 575.666666667 461.333333333 577.333333333 447.666666667 578 435 c 1
EndSplineSet
EndChar

StartChar: u1B00E
Encoding: 110606 110606 112
Width: 1000
GlyphClass: 2
Flags: W
LayerCount: 2
Fore
SplineSet
619 250 m 0
 619 221.333333333 601.333333333 190.333333333 566 157 c 1
 540 124.333333333 527 97.6666666667 527 77 c 0
 527 71.6666666667 534.5 66.3333333333 549.5 61 c 128
 564.5 55.6666666667 582.333333333 53 603 53 c 128
 623.666666667 53 651.5 54.8333333333 686.5 58.5 c 128
 721.5 62.1666666667 750.333333333 67.3333333333 773 74 c 2
 803 82 l 1
 811 -39 l 1
 792 -45 l 1
 743.333333333 -59.6666666667 691 -66.8333333333 635 -66.5 c 128
 579 -66.1666666667 531.5 -59 492.5 -45 c 128
 453.5 -31 426.333333333 -5.33333333333 411 32 c 1
 410 34 l 1
 407.333333333 47.3333333333 406 60 406 72 c 0
 406 126.666666667 430.333333333 180.666666667 479 234 c 1
 451 247.333333333 396.666666667 261.666666667 316 277 c 1
 291 282 l 1
 315 402 l 1
 504 354 l 1
 505 354 l 1
 575 332.666666667 613 300.666666667 619 258 c 1
 619 258 619 258 619 250 c 0
637 788 m 2
 663 788 l 1
 658 664 l 1
 618.666666667 666 584.333333333 668 555 670 c 1
 549.666666667 657.333333333 546 649 544 645 c 1
 570 648 l 1
 594 650 626.666666667 651 668 651 c 0
 760 651 823 636 857 606 c 0
 879.666666667 585.333333333 892.333333333 557 895 521 c 1
 895 521 895 521 895 516 c 0
 895 456.666666667 865 410 805 376 c 1
 793 369 l 1
 672 441 l 1
 679 401 l 1
 682 376 l 1
 657 373 l 1
 617 367 l 2
 587 363 559.333333333 361 534 361 c 0
 474 361 432.666666667 375.333333333 410 404 c 0
 400.666666667 416 394 431.333333333 390 450 c 0
 389.333333333 462.666666667 389 473 389 481 c 2
 389 481 389 481 389 501 c 1
 266.333333333 474.333333333 195.333333333 456 176 446 c 1
 150 431 l 1
 98 567 l 1
 159.333333333 577.666666667 205.5 586.333333333 236.5 593 c 128
 267.5 599.666666667 300.833333333 606.333333333 336.5 613 c 128
 372.166666667 619.666666667 395 624 405 626 c 1
 405 626 405 626 417 686 c 1
 399 689.333333333 377.666666667 693.333333333 353 698 c 1
 364 819 l 1
 409.333333333 809 442.666666667 802 464 798 c 0
 498.666666667 791.333333333 556.333333333 788 637 788 c 2
514 481 m 0
 555.333333333 481 605 487.666666667 663 501 c 1
 667 475 l 1
 671 449 l 1
 711 465 l 2
 741.666666667 477.666666667 758 492.666666667 760 510 c 1
 753.333333333 520.666666667 740.166666667 527 720.5 529 c 128
 700.833333333 531 679.333333333 532 656 532 c 0
 613.333333333 532 565.333333333 528.333333333 512 521 c 1
 510 501 509.333333333 488 510 482 c 0
 511.333333333 482 512.666666667 481.666666667 514 481 c 0
EndSplineSet
EndChar

StartChar: u1B00F
Encoding: 110607 110607 113
Width: 1000
GlyphClass: 2
Flags: W
LayerCount: 2
Fore
SplineSet
339 444 m 1
 333.666666667 446.666666667 325.5 448 314.5 448 c 128
 303.5 448 294.5 445 287.5 439 c 128
 280.5 433 277 427.333333333 277 422 c 0
 277 411.333333333 279.666666667 405.333333333 285 404 c 0
 289 404 289 404 295 404 c 0
 307 404 321.666666667 417.333333333 339 444 c 1
355 88 m 1
 355 91 l 2
 355 113.666666667 363 134.666666667 379 154 c 1
 282.333333333 145.333333333 179.666666667 135.333333333 71 124 c 1
 63 247 l 1
 260.333333333 259.666666667 426.333333333 273 561 287 c 1
 570 351 l 1
 528 299 l 1
 508 324 l 1
 490.666666667 347.333333333 470 368.333333333 446 387 c 1
 427.333333333 356.333333333 406 332.166666667 382 314.5 c 128
 358 296.833333333 325.666666667 287.666666667 285 287 c 1
 284 287 l 1
 238 288.333333333 202 311.666666667 176 357 c 0
 166.666666667 378.333333333 162 401.5 162 426.5 c 128
 162 451.5 172.333333333 478.333333333 193 507 c 1
 229 546.333333333 272 566.333333333 322 567 c 0
 334 567 346.666666667 565.666666667 360 563 c 0
 370.666666667 559.666666667 381 556.333333333 391 553 c 1
 399.666666667 575 411.333333333 607.666666667 426 651 c 1
 525 608 l 1
 493 640 l 1
 510 657 l 2
 518.666666667 665.666666667 526.666666667 675.333333333 534 686 c 1
 506.666666667 682.666666667 481.166666667 680.166666667 457.5 678.5 c 128
 433.833333333 676.833333333 391 671.666666667 329 663 c 1
 323 792 l 1
 420.333333333 795.333333333 494.333333333 799.666666667 545 805 c 2
 659 817 l 1
 728 742 l 1
 712 725 l 2
 700.666666667 713.666666667 689.333333333 701 678 687 c 1
 678.666666667 687 679 686.666666667 679 686 c 0
 712.333333333 679.333333333 738 668 756 652 c 0
 787.333333333 624 803.666666667 572.666666667 805 498 c 1
 805 497 l 1
 804.333333333 467 799.666666667 433 791 395 c 128
 782.333333333 357 765 328 739 308 c 1
 817.666666667 319.333333333 867.666666667 327.333333333 889 332 c 2
 913 337 l 1
 938 217 l 1
 911 213 l 1
 674.333333333 180.333333333 532.666666667 140.666666667 486 94 c 1
 494.666666667 90 514.666666667 86.1666666667 546 82.5 c 128
 577.333333333 78.8333333333 644.333333333 72 747 62 c 1
 722 -58 l 1
 700 -57 l 1
 595.333333333 -48.3333333333 515.333333333 -37 460 -23 c 0
 432 -16.3333333333 409.666666667 -5.33333333333 393 10 c 0
 370.333333333 30 357.666666667 56 355 88 c 1
686 493 m 2
 686 506 l 1
 685.333333333 524.666666667 682.833333333 539.833333333 678.5 551.5 c 128
 674.166666667 563.166666667 668.666666667 570.833333333 662 574.5 c 128
 655.333333333 578.166666667 643.666666667 580 627 580 c 128
 610.333333333 580 588 577.666666667 560 573 c 1
 543 590 l 1
 526.333333333 551.333333333 513 521.333333333 503 500 c 1
 537.666666667 477.333333333 569.666666667 451.333333333 599 422 c 1
 614 406 l 1
 602 391 l 1
 625 391 l 1
 637 391.666666667 648.333333333 395 659 401 c 128
 669.666666667 407 676.833333333 420.5 680.5 441.5 c 128
 684.166666667 462.5 686 479.666666667 686 493 c 2
EndSplineSet
EndChar

StartChar: u1B010
Encoding: 110608 110608 114
Width: 1000
GlyphClass: 2
Flags: W
LayerCount: 2
Fore
SplineSet
670 759 m 0
 726 759 765.666666667 744.666666667 789 716 c 0
 811 690 822 654.666666667 822 610 c 2
 822 607 l 2
 822 584.333333333 816.333333333 566 805 552 c 0
 793 536 776.666666667 524.666666667 756 518 c 0
 718 506.666666667 684 501 654 501 c 2
 643 501 l 1
 637.666666667 483 630.666666667 466 622 450 c 1
 663.333333333 435.333333333 692.333333333 412.666666667 709 382 c 1
 726.333333333 400 736.333333333 409.666666667 739 411 c 0
 763.666666667 429 791.333333333 438 822 438 c 0
 829.333333333 438 836.166666667 437.5 842.5 436.5 c 128
 848.833333333 435.5 854.166666667 434.333333333 858.5 433 c 128
 862.833333333 431.666666667 866.333333333 430.333333333 869 429 c 0
 872.333333333 428.333333333 874.666666667 427.333333333 876 426 c 2
 878 424 l 1
 900 405.333333333 911 385.666666667 911 365 c 0
 911 327.666666667 897.666666667 298 871 276 c 0
 837.666666667 249.333333333 812.666666667 231 796 221 c 1
 816 205.666666667 836.666666667 186.333333333 858 163 c 0
 888.666666667 131 913.333333333 99.6666666667 932 69 c 1
 848 -16 l 1
 831 18 l 2
 810.333333333 60.6666666667 778 103.333333333 734 146 c 1
 721.333333333 80 705.166666667 34.6666666667 685.5 10 c 128
 665.833333333 -14.6666666667 643.666666667 -29.3333333333 619 -34 c 2
 614 -35 l 2
 611.333333333 -35 608.666666667 -35.1666666667 606 -35.5 c 128
 603.333333333 -35.8333333333 601.666666667 -36 601 -36 c 0
 578.333333333 -36 555.333333333 -30.6666666667 532 -20 c 0
 511.333333333 -11.3333333333 494 -0.333333333333 480 13 c 1
 475.333333333 9 456.666666667 -10 424 -44 c 1
 368 39 l 1
 391.333333333 61 410.333333333 78 425 90 c 0
 455.666666667 116.666666667 475.833333333 135.166666667 485.5 145.5 c 128
 495.166666667 155.833333333 500 164.666666667 500 172 c 0
 500 175.333333333 499 178.333333333 497 181 c 0
 496.333333333 181 486.666666667 178.666666667 468 174 c 0
 464 172.666666667 455.666666667 170.5 443 167.5 c 128
 430.333333333 164.5 421.333333333 162.333333333 416 161 c 2
 385 153 l 1
 382.333333333 138.333333333 380 127.666666667 378 121 c 0
 368 81.6666666667 353.666666667 52.6666666667 335 34 c 0
 314.333333333 13.3333333333 281.666666667 0.333333333333 237 -5 c 0
 221 -7 206 -8 192 -8 c 0
 152.666666667 -8 121.666666667 -1.66666666667 99 11 c 0
 73.6666666667 25.6666666667 61 50.3333333333 61 85 c 0
 61 107 72 135.666666667 94 171 c 2
 99 179 l 2
 175 297 221 368 237 392 c 0
 236.333333333 393.333333333 235.166666667 394.833333333 233.5 396.5 c 128
 231 399 231 399 230 400 c 1
 227 396 l 1
 193 413 l 2
 172.333333333 423.666666667 150.666666667 433 128 441 c 1
 152 489.666666667 167.666666667 520.666666667 175 534 c 2
 208 601 l 2
 217.333333333 619 224.666666667 633.333333333 230 644 c 1
 224 643.333333333 216 642.666666667 206 642 c 128
 196 641.333333333 188 640.666666667 182 640 c 0
 167.333333333 638 157.666666667 637 153 637 c 0
 147.666666667 636.333333333 135 634.333333333 115 631 c 2
 71 622 l 1
 84 731 l 1
 122 724 l 2
 132.666666667 722 146.666666667 721 164 721 c 0
 199.333333333 721 245.666666667 724 303 730 c 0
 311.666666667 732 320.333333333 735 329 739 c 2
 365 757 l 1
 401 695 l 1
 375.666666667 661.666666667 340.333333333 600.333333333 295 511 c 1
 284 493 l 1
 288.666666667 491 293.666666667 487.666666667 299 483 c 1
 324.333333333 519 347 550.333333333 367 577 c 0
 378.333333333 591.666666667 393 607.666666667 411 625 c 0
 429.666666667 643 445 656 457 664 c 2
 509 702 l 2
 530.333333333 718.666666667 558.333333333 733.333333333 593 746 c 0
 619 754.666666667 644.666666667 759 670 759 c 0
466 409 m 2
 466 418.333333333 466.666666667 427.666666667 468 437 c 2
 472 466 l 1
 473 475 l 1
 500 472 l 1
 510.666666667 484.666666667 519.333333333 500.333333333 526 519 c 0
 530 534.333333333 532 543.333333333 532 546 c 0
 532.666666667 555.333333333 533 570.333333333 533 591 c 2
 533 597 l 1
 469.666666667 543 420.333333333 486.666666667 385 428 c 0
 382.333333333 424 379.5 419.333333333 376.5 414 c 128
 373.5 408.666666667 371 404.5 369 401.5 c 128
 366 397 366 397 364 394 c 0
 364.666666667 392 365.666666667 389.666666667 367 387 c 128
 368.333333333 384.333333333 369.333333333 382 370 380 c 0
 371.333333333 380 374.333333333 380.833333333 379 382.5 c 128
 383.666666667 384.166666667 388.833333333 385.833333333 394.5 387.5 c 128
 400.166666667 389.166666667 406 390.666666667 412 392 c 0
 416.666666667 393.333333333 425 394.666666667 437 396 c 0
 443 396.666666667 448.333333333 397.666666667 453 399 c 0
 463.666666667 400.333333333 472.666666667 401 480 401 c 2
 488 401 l 2
 488.666666667 401 489.833333333 401.166666667 491.5 401.5 c 128
 493.166666667 401.833333333 494.333333333 402 495 402 c 1
 491 402.666666667 481.333333333 403.666666667 466 405 c 1
 466 409 l 2
656 587 m 0
 658 587 661 587.166666667 665 587.5 c 128
 669 587.833333333 672.666666667 588.333333333 676 589 c 2
 681 590 l 2
 684.333333333 590 688.333333333 592.333333333 693 597 c 0
 695.666666667 600.333333333 697 605.666666667 697 613 c 0
 697 633 690.666666667 648.666666667 678 660 c 0
 669.333333333 668 661.666666667 672 655 672 c 1
 655 671 l 1
 648.333333333 671 637 667 621 659 c 0
 600.333333333 648.333333333 576.333333333 632 549 610 c 1
 579 595 l 2
 580.333333333 595 587.166666667 594 599.5 592 c 128
 611.833333333 590 626.333333333 588.333333333 643 587 c 0
 646 587 646 587 648.5 587 c 128
 651 587 651 587 653 587 c 128
 655 587 655 587 656 587 c 0
620 290 m 1
 616 306 612.666666667 318 610 326 c 1
 607.333333333 318.666666667 603.833333333 311.666666667 599.5 305 c 128
 595.166666667 298.333333333 591.333333333 292.833333333 588 288.5 c 128
 584.666666667 284.166666667 582.666666667 281.666666667 582 281 c 0
 579.333333333 276.333333333 575.333333333 272 570 268 c 0
 564 264 559 260.333333333 555 257 c 1
 569 255.666666667 580 253.333333333 588 250 c 1
 592.666666667 255.333333333 598.5 262.5 605.5 271.5 c 128
 612.5 280.5 617.333333333 286.666666667 620 290 c 1
388 309 m 1
 390.666666667 291 392 270 392 246 c 1
 396 246.666666667 401.333333333 248.333333333 408 251 c 0
 454 270.333333333 483.333333333 296 496 328 c 0
 496 330 495.666666667 331.333333333 495 332 c 0
 476.333333333 329.333333333 440.666666667 321.666666667 388 309 c 1
625 154 m 1
 607.666666667 134 583.666666667 109.666666667 553 81 c 1
 564.333333333 67.6666666667 575.666666667 58 587 52 c 1
 598.333333333 62 607.333333333 79.6666666667 614 105 c 0
 616.666666667 113.666666667 620.333333333 130 625 154 c 1
750 297 m 1
 774 317.666666667 790 335 798 349 c 1
 785.333333333 337.666666667 775.333333333 327.666666667 768 319 c 0
 767.333333333 317.666666667 761.333333333 310.333333333 750 297 c 1
281 252 m 0
 281 253.333333333 280.833333333 254.666666667 280.5 256 c 128
 280.166666667 257.333333333 280 258.666666667 280 260 c 1
 238 192 207.333333333 139 188 101 c 0
 185.333333333 95.6666666667 184 90.3333333333 184 85 c 2
 184 83 l 1
 184 83 l 1
 184 74.3333333333 188.333333333 69 197 67 c 0
 199.666666667 67 201.333333333 66.6666666667 202 66 c 2
 203 66 l 1
 204 65 l 2
 207 66 207 66 210 67 c 128
 212 67.6666666667 213.666666667 68.3333333333 215 69 c 0
 232.333333333 73.6666666667 246 87.6666666667 256 111 c 0
 262.666666667 127.666666667 268 148.333333333 272 173 c 0
 272.666666667 176.333333333 273.333333333 180.166666667 274 184.5 c 128
 274.666666667 188.833333333 275 191.333333333 275 192 c 0
 279 213.333333333 281 233.333333333 281 252 c 0
EndSplineSet
EndChar

StartChar: u1B011
Encoding: 110609 110609 115
Width: 1000
GlyphClass: 2
Flags: W
LayerCount: 2
Fore
SplineSet
364 827 m 1
 432.666666667 795.666666667 508 771 590 753 c 2
 612 748 l 1
 600 628 l 1
 572 635 l 2
 488 655.666666667 409.333333333 681.333333333 336 712 c 1
 319 720 l 1
 332 842 l 1
 364 827 l 1
146 599 m 1
 209.333333333 594.333333333 245 592.666666667 253 594 c 1
 280.333333333 594 335.333333333 596.666666667 418 602 c 0
 546 610.666666667 617.333333333 618.666666667 632 626 c 2
 649 634 l 1
 726 547 l 1
 703 531 l 2
 684.333333333 517.666666667 668.333333333 504.333333333 655 491 c 1
 574.333333333 419.666666667 514.666666667 363.333333333 476 322 c 1
 478 322 l 1
 507 322 l 1
 503 293 l 2
 501 283.666666667 500.666666667 266.333333333 502 241 c 1
 520.666666667 260.333333333 536.666666667 273.333333333 550 280 c 0
 586.666666667 300 628.5 310.166666667 675.5 310.5 c 128
 722.5 310.833333333 767.666666667 295 811 263 c 0
 854.333333333 232.333333333 889.333333333 191.333333333 916 140 c 1
 931 112 l 1
 901 104 l 1
 869 95 l 2
 863.666666667 93.6666666667 855 91 843 87 c 128
 831 83 819.333333333 79.3333333333 808 76 c 128
 796.666666667 72.6666666667 787.666666667 69.6666666667 781 67 c 2
 720 41 l 1
 700.666666667 34.3333333333 676.666666667 21 648 1 c 1
 624 -17 l 1
 570 91 l 1
 587 104 l 1
 617 124.666666667 644 139.333333333 668 148 c 128
 692 156.666666667 713 163.666666667 731 169 c 1
 725 173.666666667 717 179 707 185 c 128
 697 191 680.333333333 194 657 194 c 128
 633.666666667 194 614.333333333 187.666666667 599 175 c 0
 562.333333333 144.333333333 537.666666667 114.666666667 525 86 c 0
 515 63.3333333333 508.833333333 45 506.5 31 c 128
 504.166666667 17 502.333333333 2.33333333333 501 -13 c 1
 501 -15 l 1
 501 -41 l 1
 362 -41 l 1
 370 -13.6666666667 375.666666667 7.16666666667 379 21.5 c 128
 382.333333333 35.8333333333 383.666666667 61 383 97 c 1
 383 98 l 1
 383.666666667 134.666666667 383 163 381 183 c 128
 379 203 378 214 378 216 c 1
 378 216 378 216 300 132 c 1
 260.666666667 91.3333333333 229.666666667 56.3333333333 207 27 c 2
 193 9 l 1
 70 90 l 1
 98 112 l 2
 112 122.666666667 126.666666667 136 142 152 c 1
 166 174.666666667 278.333333333 286.333333333 479 487 c 1
 431 483 380.166666667 479 326.5 475 c 128
 272.833333333 471 216.666666667 465.333333333 158 458 c 1
 146 599 l 1
EndSplineSet
EndChar

StartChar: u1B012
Encoding: 110610 110610 116
Width: 1000
GlyphClass: 2
Flags: W
LayerCount: 2
Fore
SplineSet
721 -31 m 0
 719.666666667 -31 701 -33 665 -37 c 0
 576.333333333 -47 505.666666667 -46 453 -34 c 0
 418.333333333 -25.3333333333 390.666666667 -6.66666666667 370 22 c 128
 349.333333333 50.6666666667 334.333333333 82.6666666667 325 118 c 1
 313 152.666666667 303.666666667 201.333333333 297 264 c 128
 290.333333333 326.666666667 284.666666667 368 280 388 c 1
 280 391 l 2
 280 399 277 407.833333333 271 417.5 c 128
 265 427.166666667 261.666666667 432.666666667 261 434 c 128
 260.333333333 435.333333333 258.666666667 437.666666667 256 441 c 0
 246 453 237.5 470.166666667 230.5 492.5 c 128
 223.5 514.833333333 219.666666667 529.5 219 536.5 c 128
 218.333333333 543.5 218 551.5 218 560.5 c 128
 218 569.5 220 580 224 592 c 0
 230 608.666666667 247 626.333333333 275 645 c 1
 273.666666667 646.333333333 246.666666667 664.333333333 194 699 c 1
 204 719 l 2
 206.666666667 725 212 737.333333333 220 756 c 0
 228.666666667 776 234.666666667 788.666666667 238 794 c 1
 254 810 l 1
 272 796 l 2
 338 744 396 704 446 676 c 1
 466 664 l 1
 456 643 l 2
 454 637.666666667 450.333333333 628.166666667 445 614.5 c 128
 439.666666667 600.833333333 433.666666667 582.666666667 427 560 c 1
 404 565 l 2
 401.333333333 565.666666667 395.666666667 566 387 566 c 128
 378.333333333 566 364 561.666666667 344 553 c 0
 343.333333333 551 343 549.166666667 343 547.5 c 128
 343 545.833333333 344.833333333 539 348.5 527 c 128
 352.166666667 515 360 500.666666667 372 484 c 128
 384 467.333333333 392.333333333 454.666666667 397 446 c 1
 405.666666667 414.666666667 414 363.833333333 422 293.5 c 128
 430 223.166666667 440.666666667 170.333333333 454 135 c 1
 454 133 l 1
 457.333333333 119 472.333333333 106.333333333 499 95 c 1
 520.333333333 92.3333333333 548.833333333 91 584.5 91 c 128
 620.166666667 91 664.666666667 97.3333333333 718 110 c 2
 730 113 l 1
 740 104 l 2
 748.666666667 96 754.333333333 84.3333333333 757 69 c 128
 759.666666667 53.6666666667 761.666666667 42.3333333333 763 35 c 0
 770.333333333 18.3333333333 770.666666667 3.16666666667 764 -10.5 c 128
 757.333333333 -24.1666666667 743 -31 721 -31 c 0
EndSplineSet
EndChar

StartChar: u1B013
Encoding: 110611 110611 117
Width: 1000
GlyphClass: 2
Flags: W
LayerCount: 2
Fore
SplineSet
229 138 m 0
 229 132.666666667 230 129.333333333 232 128 c 0
 233.333333333 126.666666667 242 126 258 126 c 0
 275.333333333 126 307 137.333333333 353 160 c 1
 346.333333333 192.666666667 341.333333333 227.666666667 338 265 c 1
 308 249 282.666666667 229 262 205 c 128
 241.333333333 181 230.333333333 158.666666667 229 138 c 0
511 313 m 1
 495.666666667 312.333333333 474.333333333 309 447 303 c 1
 447.666666667 279 450 257 454 237 c 1
 474 258.333333333 493 283.666666667 511 313 c 1
385 45 m 0
 277.666666667 -1.66666666667 198.333333333 -4.33333333333 147 37 c 0
 121.666666667 57.6666666667 108.666666667 87.6666666667 108 127 c 1
 108 128 l 1
 109.333333333 196.666666667 147.333333333 260.666666667 222 320 c 0
 258 348 297 370 339 386 c 1
 341.666666667 419.333333333 346.333333333 453 353 487 c 1
 293 475 230.333333333 456.666666667 165 432 c 1
 111 560 l 1
 144 563 l 2
 161.333333333 565 190.666666667 570.666666667 232 580 c 1
 232 580 232 580 386 613 c 1
 394.666666667 640.333333333 400.666666667 657 404 663 c 128
 407.333333333 669 410 677 412 687 c 1
 395.333333333 690.333333333 375.666666667 694 353 698 c 1
 364 819 l 1
 409.333333333 809 443 802 465 798 c 0
 500.333333333 791.333333333 558 788 638 788 c 2
 663 788 l 1
 659 664 l 1
 613 666 573.666666667 668.333333333 541 671 c 1
 531 653 525 641.666666667 523 637 c 1
 539 639.666666667 566 642.833333333 604 646.5 c 128
 642 650.166666667 665 652 673 652 c 2
 673 652 673 652 686 652 c 0
 813.333333333 652 878 611.666666667 880 531 c 1
 879.333333333 481 848.666666667 442 788 414 c 1
 775 409 l 1
 707 457 l 1
 696.333333333 433 689.666666667 417.666666667 687 411 c 1
 749.666666667 397.666666667 799.333333333 374.666666667 836 342 c 0
 880 301.333333333 902 254 902 200 c 1
 900 144.666666667 878.5 95.6666666667 837.5 53 c 128
 796.5 10.3333333333 724 -27.3333333333 620 -60 c 1
 603 -66 l 1
 523 35 l 1
 562 44 l 2
 636 60.6666666667 691.166666667 83 727.5 111 c 128
 763.833333333 139 782.333333333 167 783 195 c 1
 783 196 l 1
 783.666666667 200 784 203.333333333 784 206 c 0
 784 228 771 249.333333333 745 270 c 128
 719 290.666666667 684.333333333 304 641 310 c 1
 637.666666667 304 635 298.333333333 633 293 c 0
 613.666666667 249 589 209.666666667 559 175 c 0
 537 151 513 129 487 109 c 1
 492.333333333 93.6666666667 497.666666667 80.3333333333 503 69 c 2
 516 43 l 1
 397 8 l 1
 390.333333333 31.3333333333 386.333333333 43.6666666667 385 45 c 0
755 527 m 1
 746.333333333 533 725.666666667 536 693 536 c 128
 660.333333333 536 621.333333333 533.333333333 576 528 c 0
 541.333333333 522 508 516 476 510 c 1
 476 510 476 510 467 472 c 128
 461 446.666666667 457 427.333333333 455 414 c 1
 483 418.666666667 506 421.333333333 524 422 c 128
 542 422.666666667 553.666666667 423.333333333 559 424 c 1
 563 436.666666667 569.666666667 459.666666667 579 493 c 1
 703 460 l 1
 658 492 l 1
 709 505 l 2
 730.333333333 511 745.666666667 518.333333333 755 527 c 1
EndSplineSet
EndChar

StartChar: u1B014
Encoding: 110612 110612 118
Width: 1000
GlyphClass: 2
Flags: W
LayerCount: 2
Fore
SplineSet
585 258 m 1
 568.333333333 278.666666667 560 303.666666667 560 333 c 0
 560 360.333333333 566.666666667 386.333333333 580 411 c 1
 539.333333333 403 492.333333333 393 439 381 c 1
 442 496 l 1
 463 500 l 2
 467 501.333333333 478 507.166666667 496 517.5 c 128
 514 527.833333333 531.833333333 541 549.5 557 c 128
 567.166666667 573 576.666666667 585.333333333 578 594 c 0
 578 607.333333333 576.666666667 617 574 623 c 1
 570 624.333333333 565.666666667 625 561 625 c 128
 556.333333333 625 552 624.166666667 548 622.5 c 128
 544 620.833333333 538.666666667 617 532 611 c 0
 525.333333333 605 519.333333333 599.333333333 514 594 c 0
 498 578 481.833333333 559.333333333 465.5 538 c 128
 449.166666667 516.666666667 411.666666667 474 353 410 c 1
 349 294.666666667 348.5 205.666666667 351.5 143 c 128
 354.5 80.3333333333 357 41.6666666667 359 27 c 2
 362 -2 l 1
 226 -2 l 1
 229.333333333 41.3333333333 231.166666667 86.6666666667 231.5 134 c 128
 231.833333333 181.333333333 232.333333333 226 233 268 c 1
 198.333333333 215.333333333 158.333333333 156.666666667 113 92 c 1
 34 201 l 1
 128.666666667 323.666666667 198.333333333 421 243 493 c 1
 243.666666667 504.333333333 245 521.666666667 247 545 c 1
 72 522 l 1
 59 657 l 1
 87.6666666667 655.666666667 106.666666667 655 116 655 c 0
 153.333333333 655 199.333333333 659.333333333 254 668 c 1
 256 704.666666667 257 732.666666667 257 752 c 128
 257 771.333333333 256 787 254 799 c 2
 248 830 l 1
 397 825 l 1
 391 796 l 1
 386.333333333 770 381 729.333333333 375 674 c 1
 399 645 l 1
 404 639 l 1
 414.666666667 650.333333333 422.666666667 658.666666667 428 664 c 0
 482.666666667 718 533 745 579 745 c 0
 602.333333333 745 620.666666667 741.666666667 634 735 c 128
 647.333333333 728.333333333 662.333333333 716.666666667 679 700 c 128
 695.666666667 683.333333333 703.666666667 661 703 633 c 0
 703 593 690.666666667 559.333333333 666 532 c 1
 750.666666667 546 819.666666667 557 873 565 c 1
 857 449 l 1
 811 446.333333333 777 441.333333333 755 434 c 0
 749.666666667 431.333333333 740.166666667 424 726.5 412 c 128
 712.833333333 400 703 389.333333333 697 380 c 0
 689 367.333333333 685 355 685 343 c 128
 685 331 687.833333333 321.666666667 693.5 315 c 128
 699.166666667 308.333333333 709.333333333 304.5 724 303.5 c 128
 738.666666667 302.5 751.5 301.833333333 762.5 301.5 c 128
 773.5 301.166666667 807 303.666666667 863 309 c 1
 851 272 l 2
 850.333333333 270 849.166666667 263.166666667 847.5 251.5 c 128
 845.833333333 239.833333333 843 227.666666667 839 215 c 2
 834 200 l 1
 817.333333333 198 795.333333333 195.666666667 768 193 c 128
 740.666666667 190.333333333 721.333333333 188.333333333 710 187 c 0
 667.333333333 180.333333333 636.666666667 169.333333333 618 154 c 0
 608.666666667 146.666666667 603 140.666666667 601 136 c 128
 599 131.333333333 598 123.5 598 112.5 c 128
 598 101.5 600.666666667 93.8333333333 606 89.5 c 128
 611.333333333 85.1666666667 624.5 80.8333333333 645.5 76.5 c 128
 666.5 72.1666666667 692.5 70 723.5 70 c 128
 754.5 70 798 77.3333333333 854 92 c 1
 896 102 l 1
 866 -17 l 1
 850 -21 l 1
 790 -34.3333333333 739.333333333 -41 698 -41 c 0
 614 -41 553.666666667 -23 517 13 c 0
 493 37 481.333333333 67.6666666667 482 105 c 0
 482 131 485.333333333 153.333333333 492 172 c 0
 504.666666667 206.666666667 535.666666667 235.333333333 585 258 c 1
EndSplineSet
EndChar

StartChar: u1B015
Encoding: 110613 110613 119
Width: 1000
GlyphClass: 2
Flags: W
LayerCount: 2
Fore
SplineSet
284 644 m 1
 284 644 284 644 284.5 691 c 128
 284.833333333 722.333333333 283 765.333333333 279 820 c 1
 418 820 l 1
 416 792.666666667 414.333333333 773 413 761 c 2
 410 727 l 1
 409.333333333 710.333333333 408.333333333 686.666666667 407 656 c 1
 440.333333333 661.333333333 476 671 514 685 c 1
 546 696 l 1
 549 569 l 1
 530 564 l 2
 482.666666667 551.333333333 440.333333333 542.333333333 403 537 c 1
 402.333333333 501 402 413.166666667 402 273.5 c 128
 402 133.833333333 399.666666667 46.3333333333 395 11 c 1
 393 -11 l 1
 266 -12 l 1
 271 17 l 2
 274.333333333 37.6666666667 277.333333333 116 280 252 c 1
 272.666666667 239.333333333 260.833333333 219 244.5 191 c 128
 228.166666667 163 213.666666667 135 201 107 c 1
 189 82 l 1
 79 144 l 1
 90 165 l 2
 100.666666667 186.333333333 128.666666667 234 174 308 c 128
 219.333333333 382 255.333333333 445.333333333 282 498 c 1
 282 498 282 498 282 525 c 1
 258 523.666666667 241.666666667 523.333333333 233 524 c 1
 232 524 l 1
 184.666666667 525.333333333 152.666666667 527 136 529 c 2
 115 531 l 1
 112 653 l 1
 140 650 l 1
 190 643.333333333 238 641.333333333 284 644 c 1
556 684 m 1
 623 794 l 1
 737 748 834.333333333 698 915 644 c 1
 934 630 l 1
 870 524 l 1
 848 539 l 2
 758.666666667 600.333333333 671.333333333 645.666666667 586 675 c 1
 556 684 l 1
664 217 m 0
 672 201.666666667 691.333333333 188 722 176 c 0
 774.666666667 156 830.666666667 145 890 143 c 2
 919 142 l 1
 898 13 l 1
 875 15 l 1
 811 21 750.333333333 34.3333333333 693 55 c 128
 635.666666667 75.6666666667 595 103.166666667 571 137.5 c 128
 547 171.833333333 535 208 535 246 c 0
 535 256 535.666666667 266.333333333 537 277 c 1
 543.666666667 308.333333333 554.333333333 344.333333333 569 385 c 2
 578 409 l 1
 694 365 l 1
 681 340 l 2
 674.333333333 327.333333333 668.666666667 311.5 664 292.5 c 128
 659.333333333 273.5 656.833333333 258.833333333 656.5 248.5 c 128
 656.166666667 238.166666667 658.666666667 227.666666667 664 217 c 0
EndSplineSet
EndChar

StartChar: u1B016
Encoding: 110614 110614 120
Width: 1000
GlyphClass: 2
Flags: W
LayerCount: 2
Fore
SplineSet
660 145 m 0
 659.333333333 144.333333333 656.5 141.666666667 651.5 137 c 128
 646.5 132.333333333 642 126.666666667 638 120 c 1
 632 111 632 111 632 111 c 1
 622.666666667 97 618 86.6666666667 618 80 c 1
 631.333333333 74.6666666667 661.333333333 72 708 72 c 0
 757.333333333 72 809.666666667 76.6666666667 865 86 c 2
 889 88 901 90 901 92 c 1
 895 62 890.833333333 39.6666666667 888.5 25 c 128
 886.166666667 10.3333333333 883 -6.33333333333 879 -25 c 1
 861 -27 861 -27 861 -27 c 1
 808.333333333 -33.6666666667 758.5 -37 711.5 -37 c 0
 665.166666667 -37 630.666666667 -35.6666666667 608 -33 c 0
 588 -31 567.666666667 -24 547 -12 c 0
 518.333333333 4 506.666666667 29.1666666667 512 63.5 c 128
 517.333333333 97.8333333333 531 129 553 157 c 1
 553 157 553 157 519 175 c 1
 495.666666667 195 484 218.666666667 484 246 c 0
 484 278 497.666666667 305.666666667 525 329 c 0
 547 347.666666667 577.333333333 357 616 357 c 0
 652 357 681 346 703 324 c 0
 717.666666667 309.333333333 725 292.666666667 725 274 c 0
 725 266.666666667 724 259.333333333 722 252 c 1
 745.333333333 270 757 292.333333333 757 319 c 0
 757 342.333333333 749.833333333 361.833333333 735.5 377.5 c 128
 721.166666667 393.166666667 706 401 690 401 c 2
 651 401 651 401 651 401 c 2
 645 401 638 400 630 398 c 128
 622 396 612.333333333 392 601 386 c 0
 573 370.666666667 528.666666667 334.666666667 468 278 c 2
 468 278 468 278 437 249 c 1
 384 332 l 1
 448 386.666666667 535 454.333333333 645 535 c 1
 598.333333333 533 559.333333333 530 528 526 c 2
 528 526 528 526 489 521 c 1
 496 600 l 1
 526 600 l 1
 565.333333333 627.333333333 604.333333333 657.666666667 643 691 c 1
 641 691 641 691 641 691 c 2
 625 691 612.333333333 690.666666667 603 690 c 2
 574 690 574 690 574 690 c 2
 568 689.333333333 557.666666667 688.833333333 543 688.5 c 128
 528.333333333 688.166666667 517 687.666666667 509 687 c 2
 509 687 509 687 506 687 c 1
 506 686.333333333 505.333333333 686 504 686 c 130
 502 686 502 686 501 686 c 2
 501 686 501 686 486 686 c 1
 460 686 l 1
 458 768 l 1
 494 764 l 2
 512 762 528.333333333 761 543 761 c 0
 547 761 550.833333333 761.166666667 554.5 761.5 c 128
 558.166666667 761.833333333 560.666666667 762 562 762 c 0
 610 762 640 763 652 765 c 0
 684.666666667 770.333333333 706.666666667 773 718 773 c 0
 718.666666667 773 721.5 773.333333333 726.5 774 c 128
 731.5 774.666666667 735.333333333 775.333333333 738 776 c 2
 738 776 738 776 773 786 c 1
 812 726 l 1
 809 725 l 1
 788 704 l 2
 780 699.333333333 757.333333333 679 720 643 c 0
 710 633.666666667 692.666666667 619.666666667 668 601 c 1
 697.333333333 602.333333333 719.333333333 603.666666667 734 605 c 0
 742.666666667 605.666666667 752 608.333333333 762 613 c 2
 762 613 762 613 802 631 c 1
 831 555 l 1
 827 553 l 2
 795 537 750.666666667 508.666666667 694 468 c 1
 694 468 694 468 710 468 c 1
 711 468 l 2
 761.666666667 468 802 452.333333333 832 421 c 0
 852 400.333333333 862 371 862 333 c 0
 862 328.333333333 861.333333333 320 860 308 c 0
 854.666666667 261.333333333 832 222.666666667 792 192 c 0
 755.333333333 164.666666667 711.333333333 149 660 145 c 0
238 164 m 0
 238 91.3333333333 242.333333333 24.6666666667 251 -36 c 1
 133 -32 l 1
 128.333333333 16 126 74 126 142 c 0
 126 240.666666667 131 319.333333333 141 378 c 128
 151 436.666666667 170.333333333 477 199 499 c 0
 212.333333333 510.333333333 232 516.333333333 258 517 c 1
 255.333333333 521.666666667 252.333333333 526.666666667 249 532 c 128
 245.666666667 537.333333333 242 543.333333333 238 550 c 128
 234 556.666666667 230.666666667 562 228 566 c 1
 270 623.333333333 295 657.666666667 303 669 c 1
 290.333333333 667.666666667 283.333333333 667 282 667 c 0
 268.666666667 665.666666667 254.5 664 239.5 662 c 128
 224.5 660 216.333333333 659 215 659 c 0
 211 658.333333333 204.833333333 657.5 196.5 656.5 c 128
 188.166666667 655.5 182 654.666666667 178 654 c 2
 137 646 l 1
 135 755 l 1
 176 747 l 2
 184 745.666666667 189.666666667 745 193 745 c 2
 200 745 l 1
 202 745 l 2
 212.666666667 745 236 746.333333333 272 749 c 128
 308 751.666666667 332 754.666666667 344 758 c 0
 354.666666667 761.333333333 361.333333333 764 364 766 c 2
 396 788 l 1
 458 704 l 1
 444.666666667 688.666666667 435 676 429 666 c 0
 425 660 420.666666667 653.666666667 416 647 c 0
 406 633.666666667 386 604.666666667 356 560 c 1
 396.666666667 497.333333333 422.666666667 448.333333333 434 413 c 1
 330 365 l 1
 308.666666667 401.666666667 292.333333333 424.333333333 281 433 c 1
 275 427 268.666666667 412.333333333 262 389 c 0
 247.333333333 333.666666667 239.666666667 284.666666667 239 242 c 0
 238.333333333 224 238 198 238 164 c 0
620 268 m 2
 620 278.666666667 615.666666667 286.333333333 607 291 c 1
 597 286 l 2
 587.666666667 279.333333333 583 268 583 252 c 0
 583 244.666666667 584.333333333 239.5 587 236.5 c 128
 589.666666667 233.5 595 230.333333333 603 227 c 1
 612.333333333 235 618 246.666666667 620 262 c 2
 620 268 l 2
EndSplineSet
EndChar

StartChar: u1B017
Encoding: 110615 110615 121
Width: 1000
GlyphClass: 2
Flags: W
LayerCount: 2
Fore
SplineSet
376 277 m 1
 321.333333333 133.666666667 294 53.3333333333 294 36 c 2
 294 34 l 1
 292.666666667 27.3333333333 292 22.1666666667 292 18.5 c 128
 292 14.8333333333 293 4.33333333333 295 -13 c 1
 295 -13 295 -13 176 -42 c 1
 169.333333333 -19.3333333333 164.833333333 -0.166666666667 162.5 15.5 c 128
 160.166666667 31.1666666667 159 49.8333333333 159 71.5 c 128
 159 93.1666666667 160.333333333 139 163 209 c 1
 163 275.666666667 156.333333333 334 143 384 c 1
 51 425 l 1
 69 451 l 1
 97.6666666667 490.333333333 130.333333333 542.5 167 607.5 c 128
 203.666666667 672.5 230.666666667 729.333333333 248 778 c 1
 258 804 l 1
 369 753 l 1
 359 730 l 2
 321 642 278 558.666666667 230 480 c 1
 250 420.666666667 263.333333333 362.333333333 270 305 c 1
 270 305.666666667 274.333333333 314.666666667 283 332 c 1
 317 310.666666667 341.666666667 296 357 288 c 1
 376 277 l 1
685 688 m 1
 718.333333333 690.666666667 777.666666667 696 863 704 c 1
 861 582 l 1
 837 581 l 2
 793 579 742 575.333333333 684 570 c 1
 689 430 l 1
 690.333333333 429.333333333 692.333333333 427.666666667 695 425 c 1
 696 423 l 1
 714.666666667 398.333333333 724 371.333333333 724 342 c 0
 724 325.333333333 723 310 721 296 c 1
 810 283 l 1
 816 271 l 2
 832 240.333333333 844.333333333 209.833333333 853 179.5 c 128
 861.666666667 149.166666667 866 124.333333333 866 105 c 128
 866 85.6666666667 860.666666667 66.6666666667 850 48 c 0
 834 21.3333333333 803 1 757 -13 c 1
 713 -24.3333333333 647.666666667 -30 561 -30 c 2
 559 -30 l 1
 537.666666667 -27.3333333333 516.833333333 -22 496.5 -14 c 128
 476.166666667 -6 457.166666667 7.5 439.5 26.5 c 128
 421.833333333 45.5 413 70.3333333333 413 101 c 128
 413 131.666666667 428.333333333 161.666666667 459 191 c 1
 459 191 459 191 457 193 c 0
 426.333333333 217 410.833333333 252.166666667 410.5 298.5 c 128
 410.166666667 344.833333333 426.333333333 384.5 459 417.5 c 128
 491.666666667 450.5 529.333333333 468.666666667 572 472 c 1
 572 480 571.666666667 491.833333333 571 507.5 c 128
 570.333333333 523.166666667 570 539.666666667 570 557 c 1
 523.333333333 550.333333333 448 537 344 517 c 1
 344 642 l 1
 448.666666667 656 523.666666667 667 569 675 c 1
 569 699.666666667 567.666666667 724 565 748 c 1
 561 774 l 1
 690 787 l 1
 689.333333333 776.333333333 687.666666667 744 685 690 c 1
 685 688 l 1
730 96 m 0
 739.333333333 102.666666667 744.333333333 106.666666667 745 108 c 2
 745 108 745 108 745 118 c 128
 745 124.666666667 740.666666667 142 732 170 c 128
 723.333333333 198 714.666666667 223 706 245 c 1
 698 227 686.333333333 211.333333333 671 198 c 1
 653 186 625.666666667 173.666666667 589 161 c 1
 549 139 529 121 529 107 c 0
 529 100.333333333 536.666666667 92.3333333333 552 83 c 1
 566 78.3333333333 575 76 579 76 c 2
 615 76 l 1
 646 76 l 2
 670 76 687.666666667 77.6666666667 699 81 c 128
 710.333333333 84.3333333333 720.666666667 89.3333333333 730 96 c 0
841 513 m 1
 859.666666667 487 880.833333333 452.333333333 904.5 409 c 128
 928.166666667 365.666666667 945.666666667 328.666666667 957 298 c 2
 964 278 l 1
 856 221 l 1
 846 248 l 2
 835.333333333 278.666666667 819.333333333 314.333333333 798 355 c 128
 776.666666667 395.666666667 757.333333333 428 740 452 c 2
 723 476 l 1
 828 530 l 1
 841 513 l 1
588 272 m 0
 590.666666667 274 595.166666667 280 601.5 290 c 128
 607.833333333 300 611 315.833333333 611 337.5 c 128
 611 359.166666667 601.666666667 370 583 370 c 0
 567 370 552.666666667 363.666666667 540 351 c 0
 528.666666667 338.333333333 523 324.166666667 523 308.5 c 128
 523 292.833333333 526.833333333 281.5 534.5 274.5 c 128
 542.166666667 267.5 549.666666667 264 557 264 c 128
 564.333333333 264 570 264.833333333 574 266.5 c 128
 578 268.166666667 582.666666667 270 588 272 c 0
EndSplineSet
EndChar

StartChar: u1B018
Encoding: 110616 110616 122
Width: 1000
GlyphClass: 2
Flags: W
LayerCount: 2
Fore
SplineSet
496 563 m 1
 553.333333333 579 582.333333333 587 583 587 c 0
 595.666666667 587 604.666666667 581.666666667 610 571 c 1
 613 566 l 1
 613 566 613 566 613 551 c 1
 622.333333333 561 632.666666667 570 644 578 c 0
 674.666666667 594.666666667 702.333333333 603.333333333 727 604 c 1
 728 604 l 1
 731 604 l 2
 779 604 820.666666667 578.666666667 856 528 c 0
 894.666666667 472.666666667 914 408 914 334 c 0
 914 301.333333333 907.833333333 267.166666667 895.5 231.5 c 128
 883.166666667 195.833333333 866.5 169.5 845.5 152.5 c 128
 824.5 135.5 791.333333333 122.666666667 746 114 c 2
 720 109 l 1
 717 136 l 2
 714.333333333 160 709.333333333 178.666666667 702 192 c 2
 685 223 l 1
 720 229 l 2
 771.333333333 237 798.333333333 263 801 307 c 0
 801.666666667 313.666666667 802 324.5 802 339.5 c 128
 802 354.5 798.666666667 375.333333333 792 402 c 0
 783.333333333 437.333333333 768.333333333 465.666666667 747 487 c 0
 740.333333333 493.666666667 734 497 728 497 c 0
 696 494.333333333 673.666666667 470 661 424 c 1
 657.666666667 398.666666667 656 384 656 380 c 2
 656 380 656 380 656 370 c 1
 662 336.666666667 672.333333333 304.333333333 687 273 c 2
 698 249 l 1
 673 239 l 2
 657.666666667 233 633.666666667 222 601 206 c 1
 590 229 l 2
 564.666666667 281 545.333333333 340.333333333 532 407 c 0
 530 415 526.666666667 430 522 452 c 1
 524.666666667 427.333333333 524.833333333 383 522.5 319 c 128
 520.166666667 255 513.666666667 191.333333333 503 128 c 1
 503 127 l 1
 492.333333333 75.6666666667 479.666666667 37.3333333333 465 12 c 0
 449 -18.6666666667 424 -37.6666666667 390 -45 c 0
 363.333333333 -51 323.666666667 -46.6666666667 271 -32 c 1
 255 -27 l 1
 250.333333333 3.66666666667 243.333333333 53 234 121 c 1
 275 103 l 2
 307.666666667 89 330.166666667 82 342.5 82 c 128
 354.833333333 82 363 83.6666666667 367 87 c 0
 369.666666667 89.6666666667 371.666666667 92.1666666667 373 94.5 c 128
 374.333333333 96.8333333333 376 99 378 101 c 0
 379.333333333 105.666666667 380.333333333 108.666666667 381 110 c 0
 383 115.333333333 384.333333333 120 385 124 c 128
 385.666666667 128 386.666666667 132.333333333 388 137 c 0
 401.333333333 190.333333333 409.333333333 263.333333333 412 356 c 2
 412 356 412 356 413 398 c 1
 413 446.666666667 403.333333333 472.333333333 384 475 c 1
 384 475 384 475 367.5 475 c 128
 356.5 475 342.666666667 473.666666667 326 471 c 1
 311.333333333 392.333333333 297 325.333333333 283 270 c 128
 269 214.666666667 244 147 208 67 c 1
 195 39 l 1
 170 56 l 2
 167.333333333 57.3333333333 158.833333333 62 144.5 70 c 128
 130.166666667 78 111 88 87 100 c 1
 123 171 l 2
 143.666666667 212.333333333 161.666666667 261.833333333 177 319.5 c 128
 192.333333333 377.166666667 203.333333333 423 210 457 c 1
 72 431 l 1
 70 460 l 1
 67 505 l 1
 64 549 l 1
 62 579 l 1
 92 576 l 2
 98 575.333333333 105.333333333 575 114 575 c 2
 147 576 l 2
 154.333333333 576.666666667 182 579.666666667 230 585 c 1
 239.333333333 657.666666667 244.333333333 719 245 769 c 1
 245 772 l 1
 245 801 l 1
 291.666666667 793.666666667 320 790 330 790 c 2
 336 790 l 1
 338 789 l 1
 345.333333333 789 352.166666667 786.5 358.5 781.5 c 128
 364.833333333 776.5 368 770.666666667 368 764 c 128
 368 757.333333333 366.333333333 745 363 727 c 128
 359.666666667 709 354 665.666666667 346 597 c 1
 362 599 374.166666667 600 382.5 600 c 128
 390.833333333 600 403.666666667 598.833333333 421 596.5 c 128
 438.333333333 594.166666667 455.5 585 472.5 569 c 128
 489.5 553 502 534 510 512 c 1
 510 512 510 512 503 538 c 2
 496 563 l 1
EndSplineSet
EndChar

StartChar: u1B019
Encoding: 110617 110617 123
Width: 1000
GlyphClass: 2
Flags: W
LayerCount: 2
Fore
SplineSet
313 804 m 2
 355 793.333333333 431.666666667 782.166666667 543 770.5 c 128
 654.333333333 758.833333333 743.666666667 749 811 741 c 1
 773 620 l 1
 717.666666667 628.666666667 634 639.5 522 652.5 c 128
 410 665.5 332.333333333 673.666666667 289 677 c 2
 260 679 l 1
 289 810 l 1
 313 804 l 2
330 185 m 0
 306.666666667 185 283 191 259 203 c 1
 216.333333333 233.666666667 195 274 195 324 c 0
 195 355.333333333 204.333333333 390.666666667 223 430 c 1
 275.666666667 515.333333333 352 559.333333333 452 562 c 1
 452 562 452 562 469 562 c 0
 556.333333333 562 624.666666667 547 674 517 c 0
 728 485 763.333333333 443.666666667 780 393 c 0
 789.333333333 365.666666667 794 339.166666667 794 313.5 c 128
 794 287.833333333 791 263 785 239 c 0
 772.333333333 185 739.333333333 133.333333333 686 84 c 128
 632.666666667 34.6666666667 555.333333333 -8 454 -44 c 1
 438 -50 l 1
 343 63 l 1
 386 70 l 2
 434 77.3333333333 486 97.6666666667 542 131 c 128
 598 164.333333333 634 201 650 241 c 0
 662 271 668 294.5 668 311.5 c 128
 668 328.5 667.333333333 341 666 349 c 0
 660.666666667 377.666666667 646.666666667 399.333333333 624 414 c 1
 624 414 624 414 606 424 c 1
 550 324 496 257.333333333 444 224 c 0
 404.666666667 198 366.666666667 185 330 185 c 0
467 447 m 1
 414.333333333 443.666666667 374.666666667 427.333333333 348 398 c 1
 329.333333333 364.666666667 319.666666667 342.833333333 319 332.5 c 128
 318.333333333 322.166666667 319.666666667 314 323 308 c 0
 325.666666667 306 329 305 333 305 c 0
 345 305 362.333333333 316 385 338 c 128
 407.666666667 360 435 396.333333333 467 447 c 1
EndSplineSet
EndChar

StartChar: u1B01A
Encoding: 110618 110618 124
Width: 1000
GlyphClass: 2
Flags: W
LayerCount: 2
Fore
SplineSet
475 568 m 1
 515 572.666666667 545.333333333 572.666666667 566 568 c 0
 626.666666667 557.333333333 676.333333333 534.666666667 715 500 c 0
 760.333333333 460 783 401.333333333 783 324 c 0
 783 244 748.333333333 165.333333333 679 88 c 0
 645.666666667 50.6666666667 592 7 518 -43 c 1
 505 -51 l 1
 378 23 l 1
 417 44 l 2
 462.333333333 68 505.5 99.3333333333 546.5 138 c 128
 587.5 176.666666667 616 211.166666667 632 241.5 c 128
 648 271.833333333 656 300 656 326 c 128
 656 352 646.666666667 376.333333333 628 399 c 0
 604.666666667 427 567.5 441 516.5 441 c 128
 465.5 441 427.666666667 432.333333333 403 415 c 1
 383 403.666666667 368 393 358 383 c 128
 348 373 334.666666667 355.333333333 318 330 c 2
 301 303 l 1
 201 411 l 1
 218 428 l 2
 234 444 251.333333333 466.333333333 270 495 c 1
 291.333333333 521 316.666666667 556 346 600 c 1
 398.666666667 687.333333333 431 744 443 770 c 2
 453 791 l 1
 595 733 l 1
 575 707 l 1
 533 653.666666667 499.666666667 607.333333333 475 568 c 1
EndSplineSet
EndChar

StartChar: u1B01B
Encoding: 110619 110619 125
Width: 1000
GlyphClass: 2
Flags: W
LayerCount: 2
Fore
SplineSet
452 478 m 1
 440 497.333333333 434 532 434 582 c 1
 422.666666667 581.333333333 404.5 581 379.5 581 c 128
 354.5 581 319 583.333333333 273 588 c 2
 250 590 l 1
 250 713 l 1
 280 708 l 2
 334 699.333333333 385.333333333 696.333333333 434 699 c 1
 435 734 l 2
 435 742 433.333333333 751.333333333 430 762 c 2
 421 795 l 1
 569 795 l 1
 563 764 l 2
 561.666666667 756 561 746.333333333 561 735 c 2
 560 709 l 1
 612.666666667 715 671 725.333333333 735 740 c 2
 766 747 l 1
 766 625 l 1
 670 608.333333333 600.333333333 597 557 591 c 1
 557 561.666666667 558.333333333 544.333333333 561 539 c 0
 563 537.666666667 567 535.666666667 573 533 c 128
 579 530.333333333 582.5 529.166666667 583.5 529.5 c 128
 584.5 529.833333333 585.333333333 530 586 530 c 2
 586 530 586 530 588.5 530 c 128
 590.166666667 530 595.666666667 529.666666667 605 529 c 128
 614.333333333 528.333333333 625 529 637 531 c 128
 649 533 660 535.5 670 538.5 c 128
 680 541.5 688 543.666666667 694 545 c 128
 700 546.333333333 714 551.666666667 736 561 c 1
 741 552 l 1
 744 552 l 1
 750 535 l 1
 761 505 l 1
 773 479 l 1
 789 443 l 1
 756 443 l 1
 596.666666667 405 482 375 412 353 c 1
 409.333333333 329 405 306 399 284 c 1
 431.666666667 296.666666667 468 304.666666667 508 308 c 0
 513.333333333 308.666666667 520 309 528 309 c 0
 536 309.666666667 547.333333333 308 562 304 c 0
 586 298 608.333333333 287 629 271 c 0
 645 260.333333333 657.166666667 246 665.5 228 c 128
 673.833333333 210 677.833333333 193 677.5 177 c 128
 677.166666667 161 675.833333333 144.166666667 673.5 126.5 c 128
 671.166666667 108.833333333 668.833333333 96.8333333333 666.5 90.5 c 128
 664.166666667 84.1666666667 662.333333333 79 661 75 c 128
 659.666666667 71 657.666666667 66.6666666667 655 62 c 0
 620.333333333 -1.33333333333 574.333333333 -40.3333333333 517 -55 c 0
 470.333333333 -67.6666666667 402.333333333 -68.6666666667 313 -58 c 1
 293 -56 l 1
 280 67 l 1
 313 62 l 2
 356.333333333 55.3333333333 388 52 408 52 c 0
 449.333333333 52 480 57 500 67 c 0
 501.333333333 68.3333333333 504.333333333 71.1666666667 509 75.5 c 128
 513.666666667 79.8333333333 517.333333333 83.1666666667 520 85.5 c 128
 522.666666667 87.8333333333 525.833333333 91.3333333333 529.5 96 c 128
 533.166666667 100.666666667 535.166666667 104 535.5 106 c 128
 535.833333333 108 537.333333333 111.833333333 540 117.5 c 128
 542.666666667 123.166666667 545.333333333 131.666666667 548 143 c 0
 552 163 551 175.333333333 545 180 c 0
 531 188.666666667 511.333333333 193 486 193 c 0
 475.333333333 193 438.666666667 182 376 160 c 1
 364.666666667 157.333333333 353 154.333333333 341 151 c 1
 308.333333333 99 256 42.6666666667 184 -18 c 1
 159 -40 l 1
 112 61 l 1
 137.333333333 81.6666666667 156 97.6666666667 168 109 c 1
 162 108.333333333 156 108 150 108 c 0
 116 108 91 117.333333333 75 136 c 1
 59 156.666666667 51 176.333333333 51 195 c 0
 51 239.666666667 74.3333333333 280 121 316 c 2
 152 340 l 1
 159.333333333 347.333333333 185.333333333 363.666666667 230 389 c 1
 241.333333333 394.333333333 254.666666667 400.666666667 270 408 c 128
 285.333333333 415.333333333 296.666666667 420.666666667 304 424 c 1
 304.666666667 432.666666667 305 441.333333333 305 450 c 2
 305 475 l 1
 330 475 l 1
 330 475 330 475 359.5 476.5 c 128
 379.166666667 477.5 398.666666667 477.333333333 418 476 c 1
 418 467 l 1
 429.333333333 471 440.666666667 474.666666667 452 478 c 1
683 388 m 2
 708.333333333 374 734.5 356 761.5 334 c 128
 788.5 312 810.666666667 291.666666667 828 273 c 0
 900.666666667 197 942.666666667 147 954 123 c 2
 964 101 l 1
 854 44 l 1
 842 67 l 2
 830 90.3333333333 802.666666667 126.333333333 760 175 c 0
 748 188.333333333 741.666666667 196.333333333 741 199 c 0
 717 226.333333333 668.333333333 266 595 318 c 1
 558 343 l 1
 672 394 l 1
 683 388 l 2
166 210 m 1
 168.666666667 209.333333333 174.666666667 209 184 209 c 0
 200.666666667 209 224.333333333 214.666666667 255 226 c 1
 270.333333333 257.333333333 280 280 284 294 c 1
 272 287.333333333 259.333333333 280.333333333 246 273 c 0
 202 245 175.333333333 224 166 210 c 1
EndSplineSet
EndChar

StartChar: u1B01C
Encoding: 110620 110620 126
Width: 1000
GlyphClass: 2
Flags: W
LayerCount: 2
Fore
SplineSet
718 474 m 0
 752.666666667 466.666666667 779.666666667 453.5 799 434.5 c 128
 818.333333333 415.5 828 394.333333333 828 371 c 128
 828 347.666666667 821.333333333 316.666666667 808 278 c 1
 838.666666667 273.333333333 861.333333333 266.5 876 257.5 c 128
 890.666666667 248.5 902 236.5 910 221.5 c 128
 918 206.5 922 190.833333333 922 174.5 c 128
 922 158.166666667 917 141.833333333 907 125.5 c 128
 897 109.166666667 885.666666667 95.6666666667 873 85 c 0
 856.333333333 72.3333333333 836.5 60.1666666667 813.5 48.5 c 128
 790.5 36.8333333333 772.833333333 28.8333333333 760.5 24.5 c 128
 748.166666667 20.1666666667 719.666666667 10.3333333333 675 -5 c 1
 666 16 l 2
 657.333333333 36 646.666666667 53 634 67 c 2
 608 95 l 1
 643.333333333 107.666666667 674.333333333 118.333333333 701 127 c 0
 743.666666667 141 773 154.666666667 789 168 c 1
 776.333333333 173.333333333 757.333333333 176.833333333 732 178.5 c 128
 706.666666667 180.166666667 692 181.333333333 688 182 c 0
 679.333333333 181.333333333 673.333333333 181.333333333 670 182 c 1
 645 182 l 1
 645 207 l 2
 645 228.333333333 646.333333333 249.333333333 649 270 c 1
 672.333333333 298 685.5 318.166666667 688.5 330.5 c 128
 691.5 342.833333333 693 350.666666667 693 354 c 1
 687 355.333333333 680 356 672 356 c 0
 639.333333333 356 590 334 524 290 c 1
 536.666666667 256 543.5 227.5 544.5 204.5 c 128
 545.5 181.5 546 159.666666667 546 139 c 0
 546 90.3333333333 531.666666667 38.6666666667 503 -16 c 1
 442 -70 l 1
 366 -34.6666666667 315.333333333 -10 290 4 c 2
 270 15 l 1
 312 126 l 1
 338 111 l 2
 357.333333333 99.6666666667 380.333333333 89.6666666667 407 81 c 1
 415.666666667 103.666666667 420 128 420 154 c 128
 420 180 418.666666667 199.666666667 416 213 c 1
 407.333333333 205.666666667 394 195.166666667 376 181.5 c 128
 358 167.833333333 331.333333333 147 296 119 c 0
 284.666666667 109 274.333333333 100 265 92 c 1
 263.666666667 78.6666666667 261.666666667 53.6666666667 259 17 c 1
 126 27 l 1
 132 56 l 2
 138 83.3333333333 141 116 141 154 c 128
 141 192 132.666666667 236.333333333 116 287 c 1
 108 309 l 1
 220 357 l 1
 229 333 l 1
 243 298.333333333 253.333333333 267.666666667 260 241 c 1
 280 256 l 2
 291.333333333 264 300.666666667 270.666666667 308 276 c 0
 318 286 331 296.333333333 347 307 c 1
 346 307 l 1
 344 316 l 1
 339 343 l 1
 338 345 l 1
 338 346 l 1
 333 368 l 1
 332 375 l 1
 342 399.666666667 350 419 356 433 c 1
 346 432.333333333 337.166666667 432 329.5 432 c 128
 321.833333333 432 315 432.333333333 309 433 c 0
 257.666666667 436.333333333 219.666666667 446 195 462 c 1
 161 488 144 515.333333333 144 544 c 1
 144 544 144 544 144 554 c 0
 144.666666667 566 155.333333333 587.333333333 176 618 c 0
 190 641.333333333 213.833333333 662.5 247.5 681.5 c 128
 281.166666667 700.5 330 721.833333333 394 745.5 c 128
 458 769.166666667 494.833333333 783.333333333 504.5 788 c 128
 514.166666667 792.666666667 521.666666667 794.666666667 527 794 c 1
 543 794 l 1
 550 781 l 2
 558 765.666666667 571.666666667 733.666666667 591 685 c 1
 565 677 l 2
 484.333333333 652.333333333 427 632.833333333 393 618.5 c 128
 359 604.166666667 340.666666667 596.333333333 338 595 c 0
 335.333333333 594.333333333 330.333333333 592 323 588 c 0
 307.666666667 581.333333333 294 572 282 560 c 0
 278.666666667 558 276.666666667 555.666666667 276 553 c 1
 284 549.666666667 296.666666667 548 314 548 c 128
 331.333333333 548 350.166666667 549.333333333 370.5 552 c 128
 390.833333333 554.666666667 408 557.666666667 422 561 c 128
 436 564.333333333 469.333333333 573.333333333 522 588 c 1
 525 559 l 2
 526.333333333 549.666666667 528.833333333 537 532.5 521 c 128
 536.166666667 505 540.666666667 483.666666667 546 457 c 1
 517 457 l 1
 515 456.333333333 511.666666667 455.666666667 507 455 c 1
 495.666666667 442.333333333 485.333333333 423.333333333 476 398 c 1
 560 452 623.666666667 479 667 479 c 2
 667 479 667 479 684.5 479 c 128
 696.166666667 479 707.333333333 477.333333333 718 474 c 0
692 355 m 1
 692 355 l 1
EndSplineSet
EndChar

StartChar: u1B01D
Encoding: 110621 110621 127
Width: 1000
GlyphClass: 2
Flags: W
LayerCount: 2
Fore
SplineSet
492 550 m 1
 442.666666667 542 413.333333333 538 404 538 c 0
 357.333333333 536.666666667 325.666666667 535.666666667 309 535 c 1
 294.333333333 486.333333333 287 460 287 456 c 0
 287 450 291.333333333 445.333333333 300 442 c 0
 328.666666667 436 353.666666667 428.333333333 375 419 c 1
 452 499 l 1
 458 495 l 1
 476.666666667 523.666666667 490.666666667 544.333333333 500 557 c 0
 509.333333333 573.666666667 524.333333333 600.333333333 545 637 c 128
 565.666666667 673.666666667 581 713.333333333 591 756 c 2
 597 780 l 1
 741 748 l 1
 720.333333333 702.666666667 702.666666667 665.333333333 688 636 c 1
 702 638 722.5 639 749.5 639 c 128
 776.5 639 803 633.666666667 829 623 c 0
 885.666666667 599 915 556.333333333 917 495 c 0
 917 483 915.333333333 470.666666667 912 458 c 0
 904 424.666666667 878 391 834 357 c 1
 824 350 l 1
 722 376 l 1
 705.333333333 312.666666667 693.666666667 274 687 260 c 1
 687 260 687 260 694 260 c 0
 736 260 773.5 245 806.5 215 c 128
 839.5 185 865 149 883 107 c 1
 936 -22 l 1
 812 -66 l 1
 806 -38 l 1
 780.666666667 74.6666666667 740 138.333333333 684 153 c 0
 678 154.333333333 671 155 663 155 c 128
 655 155 647.333333333 151 640 143 c 0
 630 129 622 117.333333333 616 108 c 0
 595.333333333 69.3333333333 575 25.3333333333 555 -24 c 2
 545 -49 l 1
 413 17 l 1
 432 41 l 2
 460 77 480 107.666666667 492 133 c 0
 527.333333333 193 552.833333333 246.5 568.5 293.5 c 128
 584.166666667 340.5 600.333333333 397.666666667 617 465 c 1
 739 446 l 1
 735 427 l 1
 770.333333333 455.666666667 788 481 788 503 c 0
 788 509 786.833333333 513.166666667 784.5 515.5 c 128
 782.166666667 517.833333333 777.5 520 770.5 522 c 128
 763.5 524 754.166666667 525 742.5 525 c 128
 730.833333333 525 711.833333333 522.833333333 685.5 518.5 c 128
 659.166666667 514.166666667 640.333333333 508 629 500 c 0
 613 487.333333333 602 478.333333333 596 473 c 128
 590 467.666666667 581 457 569 441 c 2
 556 424 l 1
 510 449 l 1
 502 436 l 2
 484.666666667 407.333333333 466.666666667 380 448 354 c 1
 460 330 466.666666667 297.666666667 468 257 c 1
 468 257 468 257 468 241 c 128
 468 230.333333333 465.333333333 208.666666667 460 176 c 128
 454.666666667 143.333333333 444.333333333 113 429 85 c 0
 401.666666667 25.6666666667 374.666666667 -10.6666666667 348 -24 c 0
 334.666666667 -30.6666666667 321 -34 307 -34 c 128
 293 -34 280 -29.3333333333 268 -20 c 0
 241.333333333 -2.66666666667 209 13.3333333333 171 28 c 2
 148 37 l 1
 146.666666667 35.6666666667 138.666666667 29 124 17 c 1
 33 122 l 1
 57 137 l 1
 129.666666667 184.333333333 204.333333333 246.666666667 281 324 c 1
 264.333333333 330 243.333333333 336.666666667 218 344 c 1
 179.333333333 364 159.333333333 393.666666667 158 433 c 1
 158 435 l 1
 163.333333333 471.666666667 184.333333333 551.333333333 221 674 c 1
 251 788 l 1
 380 763 l 1
 364.666666667 717.666666667 353 682 345 656 c 1
 358.333333333 657.333333333 372.5 658.333333333 387.5 659 c 128
 402.5 659.666666667 422.333333333 662.333333333 447 667 c 2
 473 672 l 1
 492 550 l 1
216 97 m 1
 251.333333333 90.3333333333 272.333333333 87 279 87 c 2
 279 87 279 87 290 87 c 1
 298.666666667 91.6666666667 309.666666667 107 323 133 c 0
 334.333333333 152.333333333 342 177 346 207 c 0
 348 215 349.333333333 223.666666667 350 233 c 1
 348.666666667 231.666666667 334.666666667 216.666666667 308 188 c 0
 274.666666667 152 244 121.666666667 216 97 c 1
EndSplineSet
EndChar

StartChar: u1B01E
Encoding: 110622 110622 128
Width: 1000
GlyphClass: 2
Flags: W
LayerCount: 2
Fore
SplineSet
379 725 m 1
 455 713.666666667 493 675.666666667 493 611 c 0
 493 578.333333333 480 536 454 484 c 1
 498 478 534.166666667 474.833333333 562.5 474.5 c 128
 590.833333333 474.166666667 622.666666667 476 658 480 c 2
 685 483 l 1
 690 360 l 1
 660.666666667 358 636.333333333 356.666666667 617 356 c 1
 646 262 l 1
 575 191 l 1
 595 189.666666667 619.5 185.5 648.5 178.5 c 128
 677.5 171.5 701.666666667 162 721 150 c 0
 763.666666667 124.666666667 804 88.6666666667 842 42 c 1
 858 23 l 1
 758 -60 l 1
 743 -37 l 2
 733.666666667 -23.6666666667 720.833333333 -8.83333333333 704.5 7.5 c 128
 688.166666667 23.8333333333 671.333333333 37.3333333333 654 48 c 0
 620 70 572.666666667 82 512 84 c 0
 474 84 445.666666667 75.6666666667 427 59 c 0
 406.333333333 42.3333333333 365.333333333 8.33333333333 304 -43 c 1
 225 64 l 1
 299 119.333333333 352.333333333 161 385 189 c 1
 383 189 371.333333333 188 350 186 c 2
 231 174 l 1
 217 302 l 1
 313.666666667 309.333333333 382.333333333 315.833333333 423 321.5 c 128
 463.666666667 327.166666667 523 338.333333333 601 355 c 1
 601 355 601 355 563.5 355 c 128
 538.5 355 500.666666667 357.333333333 450 362 c 2
 428 364 l 1
 426 434 l 1
 410.666666667 408 393.333333333 380.666666667 374 352 c 2
 363 336 l 1
 240 387 l 1
 260 413 l 1
 298 461 327 507 347 551 c 0
 355.666666667 569 360 581.833333333 360 589.5 c 128
 360 597.166666667 359 601.666666667 357 603 c 0
 351.666666667 604.333333333 345.666666667 605 339 605 c 2
 339 605 339 605 320 605 c 1
 281.333333333 515 259.333333333 458 254 434 c 2
 248 407 l 1
 128 445 l 1
 135 469 l 2
 142.333333333 493.666666667 155.666666667 527.666666667 175 571 c 1
 161.666666667 567 139.666666667 559.666666667 109 549 c 1
 72 671 l 1
 94 679 l 1
 133.333333333 694.333333333 167.5 705 196.5 711 c 128
 225.5 717 241 720.333333333 243 721 c 0
 253 740.333333333 269 772.333333333 291 817 c 1
 409 779 l 1
 393.666666667 751.666666667 383.666666667 733.666666667 379 725 c 1
723 542 m 1
 677 560 608.333333333 581.333333333 517 606 c 1
 575 711 l 1
 636.333333333 695 698.333333333 676 761 654 c 128
 823.666666667 632 868 615 894 603 c 1
 908 596 l 1
 907 513 l 1
 889 508 l 2
 864.333333333 501.333333333 804.666666667 481.666666667 710 449 c 1
 700 465 l 1
 682 491 l 1
 665 516 l 1
 692 528 l 1
 723 542 l 1
EndSplineSet
EndChar

StartChar: u1B01F
Encoding: 110623 110623 129
Width: 1000
GlyphClass: 2
Flags: W
LayerCount: 2
Fore
SplineSet
266 333 m 1
 357 254 l 1
 349 237 l 2
 325.666666667 187.666666667 310.666666667 159.666666667 304 153 c 1
 386 124.333333333 430.666666667 109.333333333 438 108 c 128
 445.333333333 106.666666667 451 105.666666667 455 105 c 1
 455 341 l 1
 448.333333333 340.333333333 442.333333333 340.333333333 437 341 c 0
 385.666666667 338.333333333 336.666666667 338.666666667 290 342 c 1
 262 343 l 1
 290 476 l 1
 316 469 l 1
 356.666666667 457 402.333333333 454.666666667 453 462 c 1
 453 465 l 1
 453 491 l 2
 453 499 451.666666667 518 449 548 c 1
 585 548 l 1
 581.666666667 509.333333333 580 488.666666667 580 486 c 1
 614.666666667 495.333333333 645.333333333 507.666666667 672 523 c 1
 697 538 l 1
 674 552 l 1
 687 573 l 2
 708.333333333 607 719.333333333 636.666666667 720 662 c 1
 720 662 720 662 720 663 c 0
 705.333333333 671.666666667 676.666666667 676 634 676 c 128
 591.333333333 676 553.666666667 674.666666667 521 672 c 0
 453.666666667 664.666666667 409.666666667 658.666666667 389 654 c 0
 310.333333333 634.666666667 264.666666667 623.166666667 252 619.5 c 128
 239.333333333 615.833333333 229 612 221 608 c 2
 196 594 l 1
 145 729 l 1
 174.333333333 734.333333333 198.166666667 738.5 216.5 741.5 c 128
 234.833333333 744.5 258.333333333 749.166666667 287 755.5 c 128
 315.666666667 761.833333333 344.333333333 767.833333333 373 773.5 c 128
 401.666666667 779.166666667 441.5 784.333333333 492.5 789 c 128
 543.5 793.666666667 588.333333333 796 627 796 c 0
 712.333333333 796 772.666666667 782 808 754 c 0
 838.666666667 730 854 698.666666667 854 660 c 0
 854 608.666666667 837 556 803 502 c 1
 790 482 l 1
 697 538 l 1
 748 411 l 1
 720 404 l 2
 702.666666667 400 684.5 394.166666667 665.5 386.5 c 128
 646.5 378.833333333 616.666666667 370.666666667 576 362 c 1
 576 362 576 362 576 293 c 128
 576 247 575.666666667 181.666666667 575 97 c 0
 575 57.6666666667 568 28.3333333333 554 9 c 128
 540 -10.3333333333 512 -20 470 -20 c 0
 468.666666667 -20 464.666666667 -19.6666666667 458 -19 c 1
 416.666666667 7.66666666667 356.666666667 43.3333333333 278 88 c 1
 284 107 l 1
 292 131 l 1
 294 138 l 1
 279.333333333 117.333333333 240.666666667 75 178 11 c 1
 73 109 l 1
 100 126 l 2
 124.666666667 141.333333333 145.333333333 158.833333333 162 178.5 c 128
 178.666666667 198.166666667 192.833333333 215.333333333 204.5 230 c 128
 216.166666667 244.666666667 231.666666667 270 251 306 c 2
 266 333 l 1
600 266 m 1
 704 345 l 1
 737.333333333 312.333333333 763.5 286.166666667 782.5 266.5 c 128
 801.5 246.833333333 821.5 222.666666667 842.5 194 c 128
 863.5 165.333333333 888.333333333 131 917 91 c 1
 817 13 l 1
 756.333333333 102.333333333 715.666666667 157.833333333 695 179.5 c 128
 674.333333333 201.166666667 650.666666667 223.333333333 624 246 c 2
 600 266 l 1
EndSplineSet
EndChar

StartChar: u1B020
Encoding: 110624 110624 130
Width: 1000
GlyphClass: 2
Flags: W
LayerCount: 2
Fore
SplineSet
514 631 m 1
 514 630 l 1
 523.333333333 618 531 603.333333333 537 586 c 1
 541.666666667 586.666666667 548.333333333 588 557 590 c 2
 592 601 l 1
 634 533 l 1
 614.666666667 522.333333333 589 504.666666667 557 480 c 0
 557 478.666666667 557.166666667 476.166666667 557.5 472.5 c 128
 557.833333333 468.833333333 558 466 558 464 c 0
 558 424 545.666666667 380 521 332 c 1
 583 334 614.333333333 335 615 335 c 0
 689 335 774.333333333 330 871 320 c 1
 886 318 l 1
 886 243 l 1
 852 247 l 2
 756.666666667 256.333333333 671 261 595 261 c 2
 594 261 l 1
 574 252.333333333 548.333333333 239.333333333 517 222 c 1
 533 222 l 2
 541.666666667 222 552.666666667 221.333333333 566 220 c 0
 626.666666667 216 673.666666667 198 707 166 c 0
 729.666666667 146 741 120 741 88 c 0
 741 48 726.333333333 16.3333333333 697 -7 c 0
 657.666666667 -38.3333333333 602.333333333 -57.3333333333 531 -64 c 0
 508.333333333 -65.3333333333 492 -66 482 -66 c 0
 455.333333333 -66 431.333333333 -64 410 -60 c 2
 402 -58 l 1
 401 -57 l 1
 390 -54 l 2
 388.666666667 -54 386.5 -53.6666666667 383.5 -53 c 128
 380.5 -52.3333333333 378.333333333 -51.6666666667 377 -51 c 0
 374.333333333 -50.3333333333 371.666666667 -49.3333333333 369 -48 c 0
 366.333333333 -47.3333333333 362.5 -46 357.5 -44 c 128
 352.5 -42 349.333333333 -40.6666666667 348 -40 c 0
 344.666666667 -38.6666666667 341.5 -36.8333333333 338.5 -34.5 c 128
 335.5 -32.1666666667 333 -30.6666666667 331 -30 c 0
 326.333333333 -28 322.666666667 -25.6666666667 320 -23 c 0
 302.666666667 -8.33333333333 294 9.66666666667 294 31 c 0
 294 58.3333333333 306.666666667 79.3333333333 332 94 c 0
 360.666666667 110.666666667 394 119 432 119 c 0
 465.333333333 119 488 116 500 110 c 0
 544.666666667 96.6666666667 567 73.6666666667 567 41 c 0
 567 31.6666666667 564.666666667 22 560 12 c 1
 584.666666667 22 603 35.3333333333 615 52 c 0
 623 63.3333333333 627 75 627 87 c 0
 627 103 622.333333333 116.666666667 613 128 c 0
 593.666666667 148.666666667 567.333333333 161 534 165 c 0
 531.333333333 165 528 165.166666667 524 165.5 c 128
 520 165.833333333 517 166 515 166 c 0
 477.666666667 166 443.333333333 160 412 148 c 0
 392 140 370.833333333 129.166666667 348.5 115.5 c 128
 326.166666667 101.833333333 312 92.3333333333 306 87 c 2
 251 48 l 1
 222 27 l 1
 200.666666667 51 185 69 175 81 c 0
 174.333333333 82.3333333333 172.333333333 84.6666666667 169 88 c 0
 167 90 165.166666667 91.6666666667 163.5 93 c 128
 161.833333333 94.3333333333 160.666666667 95.3333333333 160 96 c 1
 212 131.333333333 281 173.333333333 367 222 c 0
 370.333333333 224 384 231.666666667 408 245 c 1
 335.333333333 231 254.333333333 212 165 188 c 2
 123 177 l 1
 115 262 l 1
 132 262 l 2
 136.666666667 262.666666667 146 264.666666667 160 268 c 1
 170.666666667 274.666666667 186.666666667 287.666666667 208 307 c 0
 312.666666667 401.666666667 388.333333333 468 435 506 c 1
 419.666666667 504.666666667 381.166666667 502.166666667 319.5 498.5 c 128
 257.833333333 494.833333333 213 491.333333333 185 488 c 2
 149 485 l 1
 164 574 l 1
 220 570 l 1
 229 570 l 2
 249.666666667 570 315 572.333333333 425 577 c 1
 416.333333333 595 407 609 397 619 c 1
 395.666666667 629.666666667 395 638.666666667 395 646 c 2
 395 667 l 1
 395 669 l 1
 401 671.666666667 436.333333333 688.333333333 501 719 c 1
 501 720 l 2
 501 721.333333333 500 722.666666667 498 724 c 0
 478.666666667 745.333333333 444.666666667 767.333333333 396 790 c 1
 477 833 l 1
 501 822 l 2
 562.333333333 792.666666667 609.333333333 759.333333333 642 722 c 1
 632 683 l 1
 519 634 l 1
 514 633 l 1
 514 631 l 1
492 331 m 1
 487.333333333 331 478.333333333 331.166666667 465 331.5 c 128
 451.666666667 331.833333333 442 332 436 332 c 2
 414 332 l 2
 413.333333333 334 412.333333333 336 411 338 c 0
 410.333333333 339.333333333 410 340.333333333 410 341 c 128
 410 341.666666667 410.333333333 342.666666667 411 344 c 128
 411.666666667 345.333333333 412 346.666666667 412 348 c 0
 410.666666667 354.666666667 409 359.666666667 407 363 c 1
 386.333333333 346.333333333 366 328.666666667 346 310 c 1
 394 319.333333333 438.333333333 326 479 330 c 0
 481 330 483.333333333 330.166666667 486 330.5 c 128
 488.666666667 330.833333333 490.666666667 331 492 331 c 1
398 36 m 0
 398 28 400.333333333 21.6666666667 405 17 c 0
 411.666666667 11.6666666667 421 7.33333333333 433 4 c 1
 437.666666667 6.66666666667 442.333333333 10.3333333333 447 15 c 0
 455 23 459 30.6666666667 459 38 c 0
 459 43.3333333333 457.666666667 47.6666666667 455 51 c 0
 449.666666667 58.3333333333 441.666666667 62.6666666667 431 64 c 0
 422.333333333 63.3333333333 414.333333333 60 407 54 c 0
 401 51.3333333333 398 45.3333333333 398 36 c 0
EndSplineSet
EndChar

StartChar: u1B021
Encoding: 110625 110625 131
Width: 1000
GlyphClass: 2
Flags: W
LayerCount: 2
Fore
SplineSet
432 160 m 0
 419.333333333 160 413 154.333333333 413 143 c 2
 413 137 l 2
 413 100.333333333 450 80.3333333333 524 77 c 1
 522.666666667 86.3333333333 517.833333333 97.8333333333 509.5 111.5 c 128
 501.166666667 125.166666667 492.333333333 136 483 144 c 0
 469.666666667 154.666666667 452.666666667 160 432 160 c 0
737 583 m 1
 691.666666667 597 621 612.666666667 525 630 c 1
 576 738 l 1
 641.333333333 727.333333333 705.5 714 768.5 698 c 128
 831.5 682 876 669 902 659 c 1
 917 654 l 1
 924 571 l 1
 906 565 l 2
 882 556.333333333 825 531.333333333 735 490 c 1
 723 504 l 1
 715 513 l 1
 740 420 l 1
 730 400 723.333333333 387.5 720 382.5 c 128
 716.666666667 377.5 714.666666667 374.333333333 714 373 c 1
 725.333333333 371.666666667 736 370.333333333 746 369 c 0
 780.666666667 363 813 347.333333333 843 322 c 128
 873 296.666666667 887.666666667 254 887 194 c 0
 887.666666667 152.666666667 878 116.666666667 858 86 c 0
 819.333333333 24.6666666667 761.666666667 -14 685 -30 c 0
 646.333333333 -38.6666666667 608.5 -43 571.5 -43 c 128
 534.5 -43 494.5 -40 451.5 -34 c 128
 408.5 -28 371.333333333 -8.83333333333 340 23.5 c 128
 308.666666667 55.8333333333 293.333333333 94 294 138 c 0
 294 180.666666667 306.666666667 214 332 238 c 0
 360 264.666666667 394.333333333 278 435 278 c 0
 449.666666667 278 467 276 487 272 c 1
 521.666666667 257.333333333 548.166666667 241 566.5 223 c 128
 584.833333333 205 601.833333333 182.166666667 617.5 154.5 c 128
 633.166666667 126.833333333 642 104.666666667 644 88 c 1
 644 81 l 1
 690 88.3333333333 724 107.666666667 746 139 c 0
 755.333333333 152.333333333 760 168.833333333 760 188.5 c 128
 760 208.166666667 757.5 222 752.5 230 c 128
 747.5 238 739.333333333 244.333333333 728 249 c 0
 705.333333333 253 684.833333333 255 666.5 255 c 128
 648.166666667 255 626.333333333 253 601 249 c 1
 586 246 l 1
 528 325 l 1
 539 339 l 2
 553 357 565.666666667 376 577 396 c 1
 539 398 507.666666667 400.333333333 483 403 c 2
 461 405 l 1
 460 451 l 1
 444 427.666666667 426 404 406 380 c 2
 394 366 l 1
 274 417 l 1
 270 404.333333333 267.333333333 394.333333333 266 387 c 2
 260 360 l 1
 139 398 l 1
 146 421 l 2
 156.666666667 455.666666667 175.333333333 506 202 572 c 1
 179.333333333 565.333333333 145.666666667 555.666666667 101 543 c 1
 64 666 l 1
 88 673 l 1
 151.333333333 692.333333333 210.333333333 707.666666667 265 719 c 1
 313 818 l 1
 432 779 l 1
 416.666666667 752.333333333 407 735 403 727 c 1
 463 720.333333333 501 697.333333333 517 658 c 0
 523 644 526 626.166666667 526 604.5 c 128
 526 582.833333333 518.333333333 556 503 524 c 1
 545 518.666666667 574.5 516 591.5 516 c 128
 608.5 516 648 517 710 519 c 1
 701 528 l 1
 681 551 l 1
 707 567 l 1
 737 583 l 1
381 560 m 0
 389 576 393 587 393 593 c 128
 393 599 392.333333333 602.333333333 391 603 c 0
 380.333333333 605.666666667 364 606 342 604 c 1
 314.666666667 537.333333333 293 478 277 426 c 1
 295 445 l 1
 332.333333333 483 361 521.333333333 381 560 c 0
EndSplineSet
EndChar

StartChar: u1B022
Encoding: 110626 110626 132
Width: 1000
GlyphClass: 2
Flags: W
LayerCount: 2
Fore
SplineSet
255 113 m 0
 249 122.333333333 241.333333333 129 232 133 c 0
 230.666666667 133 229.5 132.666666667 228.5 132 c 128
 227.5 131.333333333 226.166666667 130.666666667 224.5 130 c 128
 222.833333333 129.333333333 221 128.666666667 219 128 c 0
 193.666666667 116.666666667 179 101 175 81 c 0
 174.333333333 77.6666666667 174 73.3333333333 174 68 c 128
 174 62.6666666667 174.333333333 59 175 57 c 1
 199 65.6666666667 223 81.3333333333 247 104 c 0
 247.666666667 105.333333333 249.166666667 107 251.5 109 c 128
 253.833333333 111 255 112.333333333 255 113 c 0
761 174 m 0
 761 157.333333333 771.666666667 146.333333333 793 141 c 0
 806.333333333 137.666666667 819.666666667 136 833 136 c 0
 845.666666667 136 865.333333333 137.666666667 892 141 c 2
 929 147 l 1
 929 135 l 2
 929 105 931.666666667 79.3333333333 937 58 c 1
 897.666666667 56 858.333333333 55 819 55 c 2
 798 55 l 2
 778.666666667 55 760.666666667 56 744 58 c 0
 724.666666667 60 706.333333333 64.6666666667 689 72 c 0
 659 83.3333333333 642.333333333 103.666666667 639 133 c 1
 635 98.3333333333 629.333333333 72.6666666667 622 56 c 0
 608.666666667 23.3333333333 586.666666667 -3.33333333333 556 -24 c 0
 522.666666667 -45.3333333333 477 -56.6666666667 419 -58 c 2
 418 -58 l 2
 372 -58 340.333333333 -48 323 -28 c 0
 307.666666667 -14 296.333333333 2.33333333333 289 21 c 1
 283 17 279.666666667 14.6666666667 279 14 c 0
 250.333333333 -3.33333333333 224.333333333 -16 201 -24 c 0
 191 -28 176 -30 156 -30 c 0
 132 -30 112.666666667 -26.3333333333 98 -19 c 0
 69.3333333333 -5.66666666667 55 17.3333333333 55 50 c 0
 55 81.3333333333 65.3333333333 110.333333333 86 137 c 0
 100.666666667 157 119.666666667 174 143 188 c 0
 181.666666667 211.333333333 221.333333333 223 262 223 c 0
 290 223 312.666666667 218.333333333 330 209 c 1
 337.333333333 219.666666667 355.666666667 248.333333333 385 295 c 1
 434.333333333 255 461.666666667 232.333333333 467 227 c 1
 437.666666667 181 412.666666667 145.333333333 392 120 c 1
 392 108.666666667 396.666666667 89 406 61 c 0
 411.333333333 41.6666666667 422.333333333 28 439 20 c 1
 445 21.3333333333 452.666666667 25 462 31 c 0
 477.333333333 41 490.666666667 54.3333333333 502 71 c 0
 520 99 529 134.666666667 529 178 c 0
 529 218.666666667 513.666666667 262 483 308 c 0
 474.333333333 319.333333333 464 329.333333333 452 338 c 0
 437.333333333 347.333333333 427 353.333333333 421 356 c 0
 416.333333333 357.333333333 411.666666667 359 407 361 c 1
 405 359 l 1
 293 386 l 1
 327.666666667 441.333333333 357.666666667 506.666666667 383 582 c 1
 339 569.333333333 275 549 191 521 c 2
 160 511 l 1
 144 526.333333333 131 541.666666667 121 557 c 0
 112.333333333 571 103 582.333333333 93 591 c 1
 101 593 121.333333333 598.666666667 154 608 c 0
 156.666666667 608.666666667 162.5 610.333333333 171.5 613 c 128
 180.5 615.666666667 194.166666667 619.5 212.5 624.5 c 128
 230.833333333 629.5 249.333333333 634.666666667 268 640 c 0
 346 662 394.333333333 675.666666667 413 681 c 1
 415 689.666666667 417 698 419 706 c 0
 427 744.666666667 431 775.666666667 431 799 c 2
 431 804 l 1
 431 805 l 1
 431 811 l 1
 457 811 l 2
 492.333333333 811 523.333333333 809.666666667 550 807 c 0
 560 805 565 802.666666667 565 800 c 0
 565.666666667 798.666666667 565.333333333 796.666666667 564 794 c 2
 562 790 l 2
 561.333333333 788.666666667 556.666666667 771 548 737 c 0
 545.333333333 725.666666667 543.333333333 717.333333333 542 712 c 1
 592.666666667 720.666666667 636.666666667 725 674 725 c 0
 735.333333333 725 777 712.666666667 799 688 c 0
 813 674.666666667 821.666666667 654 825 626 c 1
 825 626 l 1
 825 621 l 2
 825 604.333333333 820.333333333 589 811 575 c 0
 797 551 766.333333333 528.333333333 719 507 c 0
 706.333333333 503.666666667 688.666666667 500 666 496 c 0
 636.666666667 491.333333333 603.333333333 488.666666667 566 488 c 2
 520 488 l 1
 495 488 l 1
 495.666666667 522.666666667 496 543.666666667 496 551 c 1
 496 550.333333333 494.666666667 546 492 538 c 128
 489.333333333 530 486.166666667 521.333333333 482.5 512 c 128
 478.833333333 502.666666667 476.333333333 496.666666667 475 494 c 0
 470.333333333 484.666666667 466.333333333 475.666666667 463 467 c 0
 458.333333333 455 454.666666667 446 452 440 c 0
 453.333333333 439.333333333 463.666666667 434.666666667 483 426 c 0
 538.333333333 400.666666667 577.666666667 370 601 334 c 0
 628.333333333 290.666666667 642 240.333333333 642 183 c 2
 642 173 l 1
 644 181 646.5 189.166666667 649.5 197.5 c 128
 652.5 205.833333333 655.333333333 212.333333333 658 217 c 2
 661 224 l 2
 676.333333333 252.666666667 686.333333333 273 691 285 c 0
 706.333333333 324.333333333 714 358.666666667 714 388 c 2
 714 394 l 1
 714 410 l 1
 735.333333333 406 752.166666667 402.666666667 764.5 400 c 128
 776.833333333 397.333333333 788.833333333 394.833333333 800.5 392.5 c 128
 812.166666667 390.166666667 823.333333333 388 834 386 c 1
 832.666666667 352.666666667 825.666666667 317 813 279 c 0
 809.666666667 269 802.666666667 255.333333333 792 238 c 2
 777 212 l 2
 766.333333333 194.666666667 761 182 761 174 c 0
694 621 m 0
 694 623.666666667 692.333333333 626.666666667 689 630 c 0
 679.666666667 636 666 639 648 639 c 0
 615.333333333 637.666666667 571.666666667 631.333333333 517 620 c 1
 514.333333333 610 510.333333333 596.333333333 505 579 c 1
 550.333333333 576.333333333 583.666666667 574.666666667 605 574 c 0
 635 574 654 576.333333333 662 581 c 0
 675.333333333 589.666666667 685 600 691 612 c 0
 693 616 694 619 694 621 c 0
EndSplineSet
EndChar

StartChar: u1B023
Encoding: 110627 110627 133
Width: 1000
GlyphClass: 2
Flags: W
LayerCount: 2
Fore
SplineSet
629 342 m 2
 629 334 l 1
 676.333333333 357.333333333 720 374.333333333 760 385 c 1
 778 391 l 1
 841 288 l 1
 808 280 l 2
 759.333333333 268 699.333333333 243 628 205 c 1
 627.333333333 179.666666667 627 160 627 146 c 2
 627 131 l 1
 628.333333333 111 630 98.3333333333 632 93 c 1
 639.333333333 89.6666666667 652 87.3333333333 670 86 c 0
 740.666666667 86 809 92 875 104 c 1
 906 110 l 1
 902 -7 l 1
 793.333333333 -21 720.833333333 -28 684.5 -28 c 128
 648.166666667 -28 619.666666667 -26.6666666667 599 -24 c 128
 578.333333333 -21.3333333333 560.5 -13.8333333333 545.5 -1.5 c 128
 530.5 10.8333333333 521 24.6666666667 517 40 c 128
 513 55.3333333333 510 75.3333333333 508 100 c 1
 508 101 l 1
 508 134 l 1
 440 90.6666666667 386.666666667 49.6666666667 348 11 c 0
 339.333333333 2.33333333333 334 -4 332 -8 c 1
 332 -10 l 1
 329.333333333 -16.6666666667 328 -22 328 -26 c 2
 330 -42 l 1
 334 -70 l 1
 226 -76 l 1
 218 -62 l 2
 187.333333333 -8 170.333333333 46 167 100 c 1
 141.666666667 92.6666666667 114 87 84 83 c 2
 55 79 l 1
 55 216 l 1
 74.3333333333 215.333333333 85.3333333333 215 88 215 c 0
 119.333333333 215 148 219.666666667 174 229 c 1
 174 229 174 229 177 229 c 1
 183 261.666666667 189.333333333 290.666666667 196 316 c 128
 202.666666667 341.333333333 206 359.333333333 206 370 c 2
 206 397 l 1
 328 389 l 1
 305 415 l 1
 348 424 l 1
 348 424 348 424 368 432 c 1
 388.666666667 442 411.666666667 452.333333333 437 463 c 1
 427.666666667 473 420.666666667 485.333333333 416 500 c 0
 412.666666667 516 410.666666667 537.333333333 410 564 c 1
 410 565 l 1
 410 568 l 1
 349.333333333 562.666666667 290.333333333 561.333333333 233 564 c 2
 208 565 l 1
 208 693 l 1
 237 690 l 2
 262.333333333 687.333333333 288.5 686 315.5 686 c 128
 342.5 686 373.666666667 687.333333333 409 690 c 1
 409 708 409.166666667 722.333333333 409.5 733 c 128
 409.833333333 743.666666667 410 753.833333333 410 763.5 c 128
 410 773.166666667 408.666666667 785.666666667 406 801 c 1
 406 803 l 1
 406 805 l 1
 406 829 l 1
 444.666666667 830.333333333 473 831.333333333 491 832 c 1
 470 808 l 1
 520 805 l 1
 519.333333333 797.666666667 519 789.666666667 519 781 c 128
 519 772.333333333 518.833333333 759.166666667 518.5 741.5 c 128
 518.166666667 723.833333333 518 710.333333333 518 701 c 1
 600 710.333333333 666.666666667 722.666666667 718 738 c 2
 751 748 l 1
 751 615 l 1
 731 611 l 1
 690.333333333 601.666666667 638.666666667 592.666666667 576 584 c 1
 574 584 l 2
 565.333333333 584 546.666666667 582.333333333 518 579 c 1
 518 579 518 579 518 569 c 128
 518 562.333333333 518.666666667 555 520 547 c 1
 528.666666667 543 559.333333333 540 612 538 c 0
 650 538 680.666666667 541 704 547 c 2
 739 555 l 1
 735 519 l 2
 733.666666667 508.333333333 733 489.333333333 733 462 c 2
 733 436 l 1
 708 436 l 1
 679.333333333 430 649 421.666666667 617 411 c 1
 634 411 l 1
 631 382 l 2
 629.666666667 370 629 356.666666667 629 342 c 2
350 364 m 1
 342 351 l 1
 331.333333333 329.666666667 322.666666667 309 316 289 c 1
 338.666666667 301.666666667 360.333333333 315 381 329 c 1
 350 364 l 1
431 332 m 1
 463 244 l 1
 446 233 l 2
 384.666666667 193 331.333333333 162.666666667 286 142 c 1
 285.333333333 128.666666667 286 116 288 104 c 1
 300.666666667 116.666666667 318 131.666666667 340 149 c 0
 390 189.666666667 446 228.666666667 508 266 c 1
 508 338 l 2
 508 347.333333333 507.333333333 357 506 367 c 1
 482 356.333333333 457 344.666666667 431 332 c 1
EndSplineSet
EndChar

StartChar: u1B024
Encoding: 110628 110628 134
Width: 1000
GlyphClass: 2
Flags: W
LayerCount: 2
Fore
SplineSet
777 534 m 1
 777 534 777 534 742.5 533 c 128
 719.5 532.333333333 704 532.333333333 696 533 c 1
 739 432 l 1
 698.333333333 416 670.666666667 405.666666667 656 401 c 1
 656 401 656 401 656 209 c 1
 740 288 l 1
 777.333333333 260 805.833333333 237.666666667 825.5 221 c 128
 845.166666667 204.333333333 863.5 189 880.5 175 c 128
 897.5 161 917.333333333 141.666666667 940 117 c 2
 956 99 l 1
 865 11 l 1
 848 31 l 2
 828.666666667 53.6666666667 811 72 795 86 c 0
 751.666666667 124 710.666666667 156 672 182 c 1
 656 192 l 1
 656 192 656 192 656 65 c 0
 656 27 648.833333333 -1 634.5 -19 c 128
 620.166666667 -37 592.333333333 -45.6666666667 551 -45 c 1
 551 -45 551 -45 539 -45 c 1
 498.333333333 -19.6666666667 438.333333333 13.3333333333 359 54 c 1
 364 74 l 1
 372 100 l 1
 377 119 l 1
 377 119 377 119 360 93 c 1
 324.666666667 52.3333333333 288.333333333 21 251 -1 c 1
 240 -8 l 1
 84 68 l 1
 143 87 l 2
 184.333333333 99.6666666667 218.333333333 120.666666667 245 150 c 0
 246.333333333 152 247.666666667 153.666666667 249 155 c 1
 249 155 249 155 239 155 c 128
 232.333333333 155 216.666666667 153.333333333 192 150 c 1
 135 259 l 1
 165 267 l 2
 235.666666667 286.333333333 299 308 355 332 c 1
 321.666666667 328.666666667 296.333333333 327 279 327 c 128
 261.666666667 327 205.666666667 328.333333333 111 331 c 1
 81 331 l 1
 106 464 l 1
 131 458 l 2
 161.666666667 451.333333333 196.333333333 448 235 448 c 1
 256.333333333 516 269 555 273 565 c 128
 277 575 279 580.666666667 279 582 c 1
 265 581.333333333 243.333333333 575.666666667 214 565 c 2
 200 560 l 1
 108 644 l 1
 138 661 l 2
 222.666666667 708.333333333 285.666666667 749.666666667 327 785 c 1
 344 800 l 1
 433 716 l 1
 421 698 l 2
 414.333333333 688.666666667 406.333333333 679.666666667 397 671 c 1
 408.333333333 660.333333333 415 646.666666667 417 630 c 1
 457 654 l 1
 485 671 l 1
 494 640 l 1
 503 609 l 1
 507 596 l 1
 452.333333333 536.666666667 407.333333333 489.666666667 372 455 c 1
 414.666666667 460.333333333 468.666666667 471.666666667 534 489 c 1
 534 500 l 2
 534 507.333333333 532.333333333 526.333333333 529 557 c 1
 621 557 l 1
 617.666666667 559.666666667 615 562.666666667 613 566 c 0
 604.333333333 576 598 589 594 605 c 1
 594 605 594 605 594 626 c 128
 594 640 595.333333333 656 598 674 c 128
 600.666666667 692 606.666666667 737 616 809 c 1
 760 791 l 1
 734.666666667 711 722 664.666666667 722 652 c 1
 742.666666667 648.666666667 771.333333333 650.333333333 808 657 c 1
 835 661 l 1
 846 537 l 1
 777 534 l 1
425 342 m 1
 469 246 l 1
 449 234 l 1
 426.333333333 221.333333333 404.333333333 210.666666667 383 202 c 1
 389 192 392 180.666666667 392 168 c 128
 392 155.333333333 388 141 380 125 c 1
 464.666666667 97 510.833333333 82.1666666667 518.5 80.5 c 128
 526.166666667 78.8333333333 531.333333333 77.6666666667 534 77 c 1
 534 365 l 1
 496.666666667 355.666666667 460.333333333 348 425 342 c 1
664 539 m 1
 664 537 l 1
 664 537 664 537 666 538 c 1
 665.333333333 538.666666667 664.666666667 539 664 539 c 1
EndSplineSet
EndChar

StartChar: u1B025
Encoding: 110629 110629 135
Width: 1000
GlyphClass: 2
Flags: W
LayerCount: 2
Fore
SplineSet
254 55 m 1
 262 61 269.666666667 71 277 85 c 128
 284.333333333 99 288 114.333333333 288 131 c 0
 288 145 285.666666667 158.666666667 281 172 c 1
 252.333333333 146.666666667 238 119.666666667 238 91 c 0
 238 75.6666666667 243.333333333 63.6666666667 254 55 c 1
635 209 m 2
 635 225 627.666666667 237 613 245 c 1
 623 227 630.333333333 214 635 206 c 1
 635 209 l 2
832 336 m 0
 871.333333333 282.666666667 899 238 915 202 c 0
 913.666666667 201.333333333 901.333333333 193.333333333 878 178 c 0
 866 170.666666667 856.333333333 164.333333333 849 159 c 2
 810 130 l 1
 799.333333333 162 793 180 791 184 c 0
 779.666666667 208.666666667 764.333333333 236 745 266 c 1
 745 265.333333333 745.333333333 264.666666667 746 264 c 0
 748 260 748 260 749 258 c 0
 758.333333333 238 763 217 763 195 c 0
 763 168.333333333 752 139.666666667 730 109 c 1
 742 103 752.333333333 98 761 94 c 0
 791 78.6666666667 824.333333333 70.3333333333 861 69 c 2
 886 68 l 1
 878.666666667 54.6666666667 870 39.6666666667 860 23 c 0
 849.333333333 5 840 -11.6666666667 832 -27 c 1
 798 -20 l 2
 770 -14 753.333333333 -10 748 -8 c 0
 707.333333333 5.33333333333 673.333333333 20 646 36 c 1
 639.333333333 31.3333333333 631 27 621 23 c 0
 603 15.6666666667 589.333333333 11 580 9 c 0
 571.333333333 7 558 3.83333333333 540 -0.5 c 128
 522 -4.83333333333 508.666666667 -8 500 -10 c 2
 461 -20 l 1
 453 19.3333333333 446.333333333 45.3333333333 441 58 c 1
 496.333333333 74 537.333333333 89.6666666667 564 105 c 1
 552 117 540.666666667 131 530 147 c 0
 509.333333333 180.333333333 490 218.666666667 472 262 c 1
 469.333333333 261.333333333 466.333333333 260.833333333 463 260.5 c 128
 459.666666667 260.166666667 457 260 455 260 c 2
 450 260 l 2
 447.333333333 260 434.333333333 255.666666667 411 247 c 1
 405 244 l 2
 401 242 397.333333333 240.333333333 394 239 c 0
 392 237.666666667 390 236.5 388 235.5 c 128
 386 234.5 384 233.666666667 382 233 c 128
 380 232.333333333 378.666666667 231.666666667 378 231 c 0
 379.333333333 225.666666667 381 221.666666667 383 219 c 0
 395 195 401 170.333333333 401 145 c 0
 401 127.666666667 398.666666667 111 394 95 c 0
 378.666666667 42.3333333333 352.666666667 6 316 -14 c 0
 297.333333333 -23.3333333333 277.333333333 -28 256 -28 c 0
 216.666666667 -28 188 -17.6666666667 170 3 c 1
 146.666666667 23.6666666667 135 53 135 91 c 0
 135 97.6666666667 135.833333333 105.666666667 137.5 115 c 128
 139.166666667 124.333333333 142.833333333 137 148.5 153 c 128
 154.166666667 169 164.166666667 186 178.5 204 c 128
 192.833333333 222 210.666666667 238.666666667 232 254 c 1
 209.333333333 279.333333333 193.666666667 295.666666667 185 303 c 1
 179 301 144.333333333 289.666666667 81 269 c 1
 54 362 l 1
 68 366 85.3333333333 370.333333333 106 375 c 0
 141.333333333 384.333333333 173.5 393 202.5 401 c 128
 231.5 409 253.333333333 414.833333333 268 418.5 c 128
 282.666666667 422.166666667 296 425.666666667 308 429 c 0
 328 433 358.333333333 440.333333333 399 451 c 1
 392 472 l 1
 370 538 l 2
 364.666666667 554 360 567.666666667 356 579 c 1
 302 558.333333333 251.666666667 538.666666667 205 520 c 1
 179 620 l 1
 188 622 l 2
 205.333333333 626 251.666666667 640.333333333 327 665 c 1
 313 704.333333333 300 738.666666667 288 768 c 1
 416 821 l 1
 422 780.333333333 430.666666667 741.666666667 442 705 c 1
 459.333333333 711 481.166666667 718.666666667 507.5 728 c 128
 533.833333333 737.333333333 551.666666667 743.666666667 561 747 c 0
 565 749 576 753 594 759 c 0
 595.333333333 759 597.666666667 759.5 601 760.5 c 128
 604.333333333 761.5 607.333333333 762.333333333 610 763 c 0
 618 765 628.666666667 766 642 766 c 0
 654.666666667 766 666 764.333333333 676 761 c 0
 714.666666667 751.666666667 742.333333333 736 759 714 c 0
 771 698 777 682 777 666 c 0
 777 656.666666667 775 647.666666667 771 639 c 0
 755.666666667 608.333333333 735.333333333 584.666666667 710 568 c 0
 677.333333333 546.666666667 620.666666667 526 540 506 c 2
 508 498 l 1
 510.666666667 488.666666667 512.666666667 482 514 478 c 1
 634 506 734 525.666666667 814 537 c 2
 849 542 l 1
 868 456 l 1
 850 454 l 2
 758.666666667 446 656.666666667 428 544 400 c 1
 546.666666667 391.333333333 553.333333333 372.666666667 564 344 c 1
 574.666666667 342.666666667 582 341.666666667 586 341 c 0
 643.333333333 331 685.666666667 317 713 299 c 0
 722.333333333 293.666666667 730.666666667 286.666666667 738 278 c 1
 730 289.333333333 717.333333333 305.666666667 700 327 c 1
 792 388 l 1
 811.333333333 365.333333333 824.666666667 348 832 336 c 0
327 308 m 1
 369.666666667 325.333333333 406.666666667 336.666666667 438 342 c 1
 437.333333333 343.333333333 436 347.333333333 434 354 c 128
 432 360.666666667 430.333333333 366.333333333 429 371 c 1
 375.666666667 357.666666667 333.333333333 346.333333333 302 337 c 1
 327 308 l 1
654 664 m 0
 654 673.333333333 650 681 642 687 c 1
 564 657 506 635 468 621 c 1
 479 584 l 2
 481.666666667 577.333333333 483.666666667 572 485 568 c 1
 507 572.666666667 537.333333333 583 576 599 c 0
 596.666666667 607 613.666666667 615.666666667 627 625 c 0
 637 631.666666667 644 638.666666667 648 646 c 0
 652 652 654 658 654 664 c 0
EndSplineSet
EndChar

StartChar: u1B026
Encoding: 110630 110630 136
Width: 1000
GlyphClass: 2
Flags: W
LayerCount: 2
Fore
SplineSet
466 641 m 1
 466 641 466 641 446 778 c 1
 583 792 l 1
 591 659 l 1
 658.333333333 675 711 693 749 713 c 2
 774 726 l 1
 821 599 l 1
 791 594 l 2
 774.333333333 591.333333333 749.5 584 716.5 572 c 128
 683.5 560 645 549.333333333 601 540 c 1
 612.333333333 406.666666667 618.666666667 310.333333333 620 251 c 1
 718 212.333333333 817.666666667 147 919 55 c 1
 936 40 l 1
 854 -66 l 1
 834 -47 l 1
 756.666666667 29.6666666667 681.333333333 86 608 122 c 1
 603.333333333 104.666666667 597.333333333 90 590 78 c 0
 566.666666667 32.6666666667 527.333333333 2.33333333333 472 -13 c 1
 444 -18.3333333333 413.833333333 -21 381.5 -21 c 128
 349.166666667 -21 315.333333333 -15.6666666667 280 -5 c 1
 279 -5 l 1
 252.333333333 3.66666666667 229 18 209 38 c 0
 182.333333333 64 169 99.1666666667 169 143.5 c 128
 169 187.833333333 189 223 229 249 c 0
 272.333333333 277.666666667 335.333333333 292 418 292 c 0
 442 292 468.333333333 290 497 286 c 1
 497 300 l 1
 495 356.666666667 489.333333333 430.666666667 480 522 c 1
 456.666666667 520.666666667 443.333333333 520 440 520 c 2
 440 520 440 520 410 520 c 128
 390 520 360.5 522.5 321.5 527.5 c 128
 282.5 532.5 245 536.666666667 209 540 c 1
 240 670 l 1
 265 662 l 2
 311.666666667 647.333333333 368.666666667 640 436 640 c 0
 445.333333333 640 455.333333333 640.333333333 466 641 c 1
490 164 m 1
 462.666666667 170 438.5 173 417.5 173 c 128
 396.5 173 377.333333333 171.666666667 360 169 c 128
 342.666666667 166.333333333 328.833333333 162.666666667 318.5 158 c 128
 308.166666667 153.333333333 301.5 149.333333333 298.5 146 c 128
 295.5 142.666666667 294 139.833333333 294 137.5 c 128
 294 135.166666667 294.333333333 133 295 131 c 0
 304.333333333 113 317.666666667 102.333333333 335 99 c 0
 353 95.6666666667 369.333333333 94 384 94 c 0
 438 94 471.333333333 109.666666667 484 141 c 0
 486.666666667 147 488.666666667 154.666666667 490 164 c 1
EndSplineSet
EndChar

StartChar: u1B027
Encoding: 110631 110631 137
Width: 1000
GlyphClass: 2
Flags: W
LayerCount: 2
Fore
SplineSet
594 546 m 1
 594 546 594 546 594 331 c 1
 654.666666667 309.666666667 720 270 790 212 c 0
 832.666666667 176.666666667 867 143.666666667 893 113 c 1
 909 95 l 1
 809 6 l 1
 793 26 l 1
 729 104 662.666666667 161.666666667 594 199 c 1
 594 88 l 2
 594 50.6666666667 586.833333333 22.6666666667 572.5 4 c 128
 558.166666667 -14.6666666667 530.333333333 -24 489 -24 c 2
 489 -24 489 -24 477 -24 c 1
 436.333333333 1.33333333333 376 35 296 77 c 1
 302 97 l 1
 310 122 l 1
 317 147 l 1
 404.333333333 118.333333333 456.333333333 102.333333333 473 99 c 1
 473 235 l 1
 456.333333333 237.666666667 438 239.333333333 418 240 c 0
 356 240 315 231 295 213 c 0
 277.666666667 195 249 162.666666667 209 116 c 1
 93 202 l 1
 116 222 l 2
 163.333333333 263.333333333 196 294.333333333 214 315 c 1
 261.333333333 364.333333333 294.333333333 402.666666667 313 430 c 128
 331.666666667 457.333333333 352 492.666666667 374 536 c 1
 346 537.333333333 315.333333333 540.5 282 545.5 c 128
 248.666666667 550.5 213.666666667 555.333333333 177 560 c 1
 214 688 l 1
 238 680 l 1
 286.666666667 662.666666667 351 654 431 654 c 0
 444.333333333 654 458 654.333333333 472 655 c 1
 471 700 l 1
 471 725 l 2
 471 732.333333333 469.666666667 751.333333333 467 782 c 1
 604 782 l 1
 599.333333333 732 596.666666667 693.333333333 596 666 c 1
 680.666666667 679.333333333 741 694.666666667 777 712 c 1
 804 724 l 1
 841 596 l 1
 814 591 l 2
 798 588.333333333 769.5 581.833333333 728.5 571.5 c 128
 687.5 561.166666667 642.666666667 552.666666667 594 546 c 1
473 535 m 1
 473 535 473 535 459 535 c 1
 473 530 l 1
 473 535 l 1
473 355 m 1
 473 458 l 1
 457 428 443.333333333 407 432 395 c 0
 425.333333333 386.333333333 416 373.333333333 404 356 c 1
 416 356.666666667 428.666666667 357 442 357 c 2
 443 357 l 1
 443 357 443 357 473 355 c 1
EndSplineSet
EndChar

StartChar: u1B028
Encoding: 110632 110632 138
Width: 1000
GlyphClass: 2
Flags: W
LayerCount: 2
Fore
SplineSet
238 827 m 1
 234.666666667 821.666666667 233 817 233 813 c 1
 259 787 l 1
 274 833 l 1
 326 795 389.666666667 761.333333333 465 732 c 2
 499 719 l 1
 410 616 l 1
 393 624 l 1
 318.333333333 656 251.666666667 691.666666667 193 731 c 2
 169 747 l 1
 211.666666667 796.333333333 234.666666667 823 238 827 c 1
715 701 m 1
 720 701 l 1
 750.666666667 700.333333333 775.333333333 692 794 676 c 0
 816 658.666666667 827 631.333333333 827 594 c 128
 827 556.666666667 819.666666667 521 805 487 c 1
 807 486.333333333 809 485.333333333 811 484 c 0
 875.666666667 454.666666667 908 398.333333333 908 315 c 0
 908 237.666666667 883.666666667 168.666666667 835 108 c 0
 797.666666667 60 748.5 21.1666666667 687.5 -8.5 c 128
 626.5 -38.1666666667 555.666666667 -57 475 -65 c 2
 453 -67 l 1
 447.666666667 -43 443.666666667 -22.8333333333 441 -6.5 c 128
 438.333333333 9.83333333333 434 32 428 60 c 1
 458 61 l 1
 536.666666667 65 609.333333333 87.6666666667 676 129 c 0
 711.333333333 150.333333333 736.833333333 172.333333333 752.5 195 c 128
 768.166666667 217.666666667 777.333333333 243.666666667 780 273 c 0
 782 285 783 295.166666667 783 303.5 c 128
 783 311.833333333 781.833333333 321.5 779.5 332.5 c 128
 777.166666667 343.5 769.333333333 353.666666667 756 363 c 0
 736.666666667 374.333333333 704 383.333333333 658 390 c 1
 622 394 l 1
 658.666666667 468 680 514.5 686 533.5 c 128
 692 552.5 695.333333333 566.666666667 696 576 c 1
 660 572.666666667 580.666666667 516 458 406 c 1
 420 374 l 1
 398.666666667 354 384 339.666666667 376 331 c 1
 376 322 l 1
 376 301 l 1
 376.666666667 289.666666667 377.333333333 264 378 224 c 2
 380 140 l 1
 380 77.3333333333 364 36 332 16 c 0
 302.666666667 -4 263.333333333 -4 214 16 c 0
 198 22.6666666667 182.666666667 31.6666666667 168 43 c 0
 120 77 96 115.333333333 96 158 c 0
 96 191.333333333 110 224.666666667 138 258 c 1
 150 273 l 1
 184 311.666666667 220.333333333 349 259 385 c 1
 259 409 259.333333333 430.333333333 260 449 c 1
 250.666666667 448.333333333 234.166666667 448 210.5 448 c 128
 186.833333333 448 165.666666667 449.333333333 147 452 c 2
 125 455 l 1
 125 477 l 1
 123 547 l 1
 123 576 l 1
 152 572 l 1
 174.666666667 568 197.833333333 566 221.5 566 c 128
 245.166666667 566 266.333333333 566.666666667 285 568 c 0
 320.333333333 572.666666667 341.5 575 348.5 575 c 128
 355.5 575 360.833333333 572.666666667 364.5 568 c 128
 368.166666667 563.333333333 370.333333333 559.333333333 371 556 c 2
 381 531 l 1
 392 503 l 1
 393 502 l 1
 393 502 393 502 406 512 c 128
 414.666666667 518.666666667 429.5 531.833333333 450.5 551.5 c 128
 471.5 571.166666667 499.833333333 593.5 535.5 618.5 c 128
 571.166666667 643.5 603.333333333 663.333333333 632 678 c 128
 660.666666667 692.666666667 688.333333333 700.333333333 715 701 c 1
221 176 m 0
 219 172 219 172 217 168 c 0
 215.666666667 165.333333333 215 162.666666667 215 160 c 0
 214.333333333 150.666666667 218.666666667 143 228 137 c 0
 240.666666667 127.666666667 251.666666667 123 261 123 c 1
 261.666666667 126.333333333 261.833333333 138.5 261.5 159.5 c 128
 261.166666667 180.5 261 202 261 224 c 1
 247.666666667 209.333333333 234.333333333 193.333333333 221 176 c 0
EndSplineSet
EndChar

StartChar: u1B029
Encoding: 110633 110633 139
Width: 1000
GlyphClass: 2
Flags: W
LayerCount: 2
Fore
SplineSet
372 615 m 1
 375.333333333 636.333333333 377 658.833333333 377 682.5 c 128
 377 706.166666667 376 724.666666667 374 738 c 2
 369 769 l 1
 513 758 l 1
 508.333333333 729.333333333 504 699.666666667 500 669 c 2
 496 638 l 1
 498 639 l 1
 533.333333333 653 570.333333333 674.333333333 609 703 c 128
 647.666666667 731.666666667 677 760 697 788 c 2
 716 815 l 1
 796 718 l 1
 784 702 l 2
 767.333333333 679.333333333 738.666666667 652.166666667 698 620.5 c 128
 657.333333333 588.833333333 622 564 592 546 c 1
 637.333333333 555.333333333 684 566.333333333 732 579 c 2
 759 586 l 1
 780 465 l 1
 757 459 l 1
 634.333333333 429.666666667 533.333333333 410.333333333 454 401 c 1
 452 395 450.666666667 390 450 386 c 1
 495 373 l 2
 527.666666667 363.666666667 554 348.666666667 574 328 c 0
 598 300.666666667 610.333333333 271 611 239 c 0
 611 230.333333333 609.333333333 218.666666667 606 204 c 128
 602.666666667 189.333333333 599.833333333 176.166666667 597.5 164.5 c 128
 595.166666667 152.833333333 590.333333333 134.666666667 583 110 c 1
 589 96.6666666667 604 88.6666666667 628 86 c 0
 638.666666667 84.6666666667 653.333333333 84.3333333333 672 85 c 0
 745.333333333 85 802.666666667 90.6666666667 844 102 c 1
 874 111 l 1
 883 -14 l 1
 861 -18 l 1
 799 -30 744 -36 696 -36 c 0
 611.333333333 -36 543 -18 491 18 c 0
 469 34 458 52 458 72 c 0
 458.666666667 95.3333333333 465 121.666666667 477 151 c 1
 483.666666667 179 488.333333333 197.666666667 491 207 c 128
 493.666666667 216.333333333 495.166666667 222.5 495.5 225.5 c 128
 495.833333333 228.5 496 230.666666667 496 232 c 0
 496 239.333333333 491.333333333 246.333333333 482 253 c 128
 472.666666667 259.666666667 449.333333333 267.666666667 412 277 c 1
 405 256 l 1
 281 295 l 1
 295 322 l 2
 305 340.666666667 314.333333333 362.333333333 323 387 c 1
 263 382.333333333 191.333333333 379.666666667 108 379 c 1
 88 503 l 1
 120 501 l 2
 140.666666667 499.666666667 169.5 499 206.5 499 c 128
 243.5 499 292.666666667 502.333333333 354 509 c 1
 362.666666667 548.333333333 368 578 370 598 c 1
 288 526 l 1
 271 542 l 2
 253.666666667 558.666666667 232.166666667 584.5 206.5 619.5 c 128
 180.833333333 654.5 160 686 144 714 c 1
 134 733 l 1
 223 807 l 1
 238 781 l 2
 253.333333333 755 273 726.666666667 297 696 c 1
 298 696 l 1
 321.333333333 664.666666667 341.666666667 641.333333333 359 626 c 2
 372 615 l 1
491 596 m 1
 488 571 l 2
 486 559 483.333333333 544 480 526 c 1
 500 529.333333333 520.666666667 532.666666667 542 536 c 1
 491 596 l 1
EndSplineSet
EndChar

StartChar: u1B02A
Encoding: 110634 110634 140
Width: 1000
GlyphClass: 2
Flags: W
LayerCount: 2
Fore
SplineSet
738 651 m 0
 838.666666667 651 889 611 889 531 c 0
 889 498.333333333 879 461.666666667 859 421 c 0
 831 364.333333333 795 322.666666667 751 296 c 1
 736 286 l 1
 668 343 l 1
 663 333 l 1
 633.666666667 279.666666667 619 233.333333333 619 194 c 0
 619 182.666666667 620.333333333 171.166666667 623 159.5 c 0
 626.333333333 147.833333333 634 138 646 130 c 0
 658 123.333333333 670.666666667 119.333333333 684 118 c 0
 704 116.666666667 731 117 765 119 c 0
 778.333333333 121 814 130 872 146 c 1
 902 19 l 1
 817.333333333 2.33333333333 761 -6 733 -6 c 128
 705 -6 685 -5.66666666667 673 -5 c 0
 638.333333333 -3 603.5 8 568.5 28 c 128
 533.5 48 509.666666667 85.6666666667 497 141 c 0
 494.333333333 155 492.666666667 170.666666667 492 188 c 0
 492 241.333333333 508.333333333 300.666666667 541 366 c 1
 549 381 l 1
 650 369 l 1
 670 383 l 1
 706 407 732.666666667 439 750 479 c 0
 758 497 762 509 762 515 c 128
 762 521 761.666666667 525 761 527 c 0
 756.333333333 528.333333333 747.833333333 529 735.5 529 c 128
 723.166666667 529 702.666666667 526 674 520 c 128
 645.333333333 514 616 501.666666667 586 483 c 2
 565 470 l 1
 494 577 l 1
 515 591 l 2
 549.666666667 614.333333333 594 631.333333333 648 642 c 0
 676.666666667 648 706.666666667 651 738 651 c 0
77 674 m 1
 131 667.333333333 166.666666667 664 184 664 c 128
 201.333333333 664 216.666666667 664.333333333 230 665 c 1
 233.333333333 686.333333333 235.666666667 707.333333333 237 728 c 2
 244 804 l 1
 369 788 l 1
 365 763 l 1
 354 682 l 1
 371.333333333 685.333333333 418 696.666666667 494 716 c 1
 498 593 l 1
 441.333333333 577.666666667 386.333333333 566 333 558 c 1
 329 539 l 1
 329 537 l 1
 317.666666667 509 308.666666667 484.666666667 302 464 c 1
 369.333333333 462.666666667 403 434.666666667 403 380 c 0
 403 367.333333333 401 353 397 337 c 1
 407 332 l 1
 432 321 l 1
 457 310 l 1
 444 286 l 1
 381.333333333 168.666666667 344 89.6666666667 332 49 c 1
 317.333333333 18.3333333333 307 -6.66666666667 301 -26 c 2
 295 -45 l 1
 161 -32 l 1
 189.666666667 52 210 115.333333333 222 158 c 0
 251.333333333 262 266 322.666666667 266 340 c 1
 266 340 266 340 255.5 340 c 128
 248.5 340 240.333333333 336.666666667 231 330 c 2
 220 322 l 1
 118 359 l 1
 133 385 l 2
 157.666666667 429 180 482.333333333 200 545 c 1
 164 544.333333333 131 545.666666667 101 549 c 2
 79 551 l 1
 77 674 l 1
EndSplineSet
EndChar

StartChar: u1B02B
Encoding: 110635 110635 141
Width: 1000
GlyphClass: 2
Flags: W
LayerCount: 2
Fore
SplineSet
481 600 m 0
 438.333333333 584.666666667 386.333333333 544.333333333 325 479 c 1
 310 464 l 1
 204 533 l 1
 227 555 l 1
 353.666666667 675 433.333333333 757 466 801 c 1
 479 818 l 1
 596 758 l 1
 581 739 l 1
 623 737.666666667 656.333333333 727.333333333 681 708 c 1
 702.333333333 686.666666667 712.833333333 661.333333333 712.5 632 c 128
 712.166666667 602.666666667 699.333333333 572 674 540 c 128
 648.666666667 508 624.5 479.5 601.5 454.5 c 128
 578.5 429.5 554.833333333 403.166666667 530.5 375.5 c 128
 506.166666667 347.833333333 479.333333333 317.666666667 450 285 c 1
 533.333333333 285 602.5 270.5 657.5 241.5 c 128
 712.5 212.5 760.333333333 179.833333333 801 143.5 c 128
 841.666666667 107.166666667 874.666666667 72.6666666667 900 40 c 2
 915 21 l 1
 812 -63 l 1
 796 -42 l 2
 728 46.6666666667 660.666666667 107.333333333 594 140 c 0
 559.333333333 156.666666667 511.666666667 166.666666667 451 170 c 1
 451 170 451 170 432 170 c 0
 380 170 345 162.166666667 327 146.5 c 128
 309 130.833333333 284.333333333 105.333333333 253 70 c 2
 237 52 l 1
 125 142 l 1
 149 161 l 2
 197.666666667 200.333333333 231 230.333333333 249 251 c 1
 281 281.666666667 314.833333333 317.333333333 350.5 358 c 128
 386.166666667 398.666666667 418 433.333333333 446 462 c 0
 490 513.333333333 520.5 548 537.5 566 c 128
 554.5 584 566.333333333 601 573 617 c 1
 573 617 573 617 551 617 c 128
 536.333333333 617 513 611.333333333 481 600 c 0
EndSplineSet
EndChar

StartChar: u1B02C
Encoding: 110636 110636 142
Width: 1000
GlyphClass: 2
Flags: W
LayerCount: 2
Fore
SplineSet
691 -16 m 1
 491 48 340 80 238 80 c 2
 238 80 238 80 207 80 c 1
 204 103 l 2
 203.333333333 109.666666667 203 134.666666667 203 178 c 2
 203 189 l 1
 294.333333333 270.333333333 368.5 339.166666667 425.5 395.5 c 128
 482.5 451.833333333 516.333333333 485 527 495 c 0
 542 510 542 510 550 518 c 0
 562.666666667 531.333333333 569.666666667 544.666666667 571 558 c 0
 569 559.333333333 566 560 562 560 c 2
 561 560 l 1
 519 557.333333333 480.333333333 550.5 445 539.5 c 128
 409.666666667 528.5 377.333333333 518 348 508 c 1
 338 500 323.833333333 487.5 305.5 470.5 c 128
 287.166666667 453.5 271.666666667 440.333333333 259 431 c 2
 250 424 l 1
 238 427 l 2
 227.333333333 429.666666667 213.666666667 437 197 449 c 2
 173 466 l 1
 139 482 l 1
 167 507 l 1
 262.333333333 590.333333333 335.333333333 672 386 752 c 1
 388 754 l 1
 389 755 l 1
 396 763 l 1
 407 763 l 2
 418.333333333 763 431.666666667 757.833333333 447 747.5 c 128
 462.333333333 737.166666667 471.666666667 731.333333333 475 730 c 2
 500 717 l 1
 484 693 l 2
 478 683.666666667 467.333333333 668.666666667 452 648 c 1
 516.666666667 662.666666667 558.166666667 670.166666667 576.5 670.5 c 128
 594.833333333 670.833333333 612 671 628 671 c 128
 644 671 659.166666667 667 673.5 659 c 128
 687.833333333 651 698.666666667 642.333333333 706 633 c 128
 713.333333333 623.666666667 717 612.333333333 717 599 c 0
 717 569 703 533.333333333 675 492 c 1
 665 476 l 1
 635.666666667 436.666666667 602.5 398.833333333 565.5 362.5 c 128
 528.5 326.166666667 491.666666667 291.833333333 455 259.5 c 128
 418.333333333 227.166666667 390.666666667 202.666666667 372 186 c 1
 397.333333333 183.333333333 423.333333333 179 450 173 c 2
 506 161 l 2
 516 158.333333333 539 152.833333333 575 144.5 c 128
 611 136.166666667 637.333333333 130 654 126 c 0
 707.333333333 113.333333333 754.333333333 97.6666666667 795 79 c 1
 828 65 l 1
 803 38 l 2
 792.333333333 27.3333333333 779.666666667 11.3333333333 765 -10 c 0
 757.666666667 -21.3333333333 748.666666667 -27 738 -27 c 128
 727.333333333 -27 718.333333333 -25.3333333333 711 -22 c 128
 703.666666667 -18.6666666667 698 -16.6666666667 694 -16 c 1
 691 -16 l 1
EndSplineSet
EndChar

StartChar: u1B02D
Encoding: 110637 110637 143
Width: 1000
GlyphClass: 2
Flags: W
LayerCount: 2
Fore
SplineSet
524 648 m 1
 590 668 643 665.333333333 683 640 c 0
 717.666666667 618 734.666666667 573 734 505 c 1
 734 503 l 1
 730 471 722.666666667 445.666666667 712 427 c 0
 667.333333333 332.333333333 643.666666667 263 641 219 c 1
 641 219 641 219 641 207 c 0
 641 177 646.333333333 155 657 141 c 0
 672.333333333 124.333333333 696 116 728 116 c 0
 780 116 824.666666667 125.666666667 862 145 c 2
 899 164 l 1
 899 23 l 1
 882 17 l 2
 835.333333333 1 784.666666667 -7 730 -7 c 0
 702.666666667 -7 673.666666667 -2.33333333333 643 7 c 128
 612.333333333 16.3333333333 589.333333333 30 574 48 c 0
 542.666666667 86 527 140.333333333 527 211 c 0
 526.333333333 257.666666667 541.333333333 316 572 386 c 0
 586.666666667 420.666666667 597.333333333 446.333333333 604 463 c 0
 614 491 616.833333333 510.166666667 612.5 520.5 c 128
 608.166666667 530.833333333 604.166666667 536.833333333 600.5 538.5 c 128
 596.833333333 540.166666667 594 541 592 541 c 2
 592 541 592 541 578 541 c 128
 568.666666667 541 546.666666667 536 512 526 c 1
 499 457 l 1
 477.666666667 351 463.166666667 287.833333333 455.5 267.5 c 128
 447.833333333 247.166666667 440.166666667 226.5 432.5 205.5 c 128
 424.833333333 184.5 414 164.666666667 400 146 c 0
 391.333333333 132.666666667 380.333333333 116.666666667 367 98 c 1
 329.666666667 52.6666666667 279.666666667 13.3333333333 217 -20 c 1
 193 -33 l 1
 171 -46 l 1
 158 -24 l 1
 137.333333333 13.3333333333 119.833333333 51.5 105.5 90.5 c 128
 91.1666666667 129.5 83 153.333333333 81 162 c 2
 78 181 l 1
 180 230 l 1
 187 200 l 1
 194.333333333 172 203.666666667 146.333333333 215 123 c 1
 222 129 l 1
 268 161.666666667 299.666666667 198.666666667 317 240 c 128
 334.333333333 281.333333333 354.666666667 359.333333333 378 474 c 1
 380 485 l 1
 380 485 380 485 342.5 473.5 c 128
 317.5 465.833333333 295.333333333 458.5 276 451.5 c 128
 256.666666667 444.5 216 430 154 408 c 1
 141 546 l 1
 166 549 l 2
 182 551 200.666666667 554.666666667 222 560 c 0
 278 574 338 591.666666667 402 613 c 1
 405.333333333 638.333333333 406.333333333 660.166666667 405 678.5 c 128
 403.666666667 696.833333333 402.833333333 709.5 402.5 716.5 c 128
 402.166666667 723.5 398.333333333 750.333333333 391 797 c 1
 532 785 l 1
 526 758 l 1
 526 758 526 758 526 750.5 c 128
 526 745.5 526.333333333 731 527 707 c 1
 526.333333333 687.666666667 525.333333333 668 524 648 c 1
EndSplineSet
EndChar

StartChar: u1B02E
Encoding: 110638 110638 144
Width: 1000
GlyphClass: 2
Flags: W
LayerCount: 2
Fore
SplineSet
633 446 m 1
 737 454 811.333333333 459 856 461 c 1
 856 347 l 1
 803.333333333 345.666666667 766.666666667 343.666666667 746 341 c 1
 714.666666667 321 687.333333333 296.333333333 664 267 c 0
 618 211 590.666666667 169 582 141 c 0
 577.333333333 119 578.333333333 103.666666667 585 95 c 0
 591 87 614.5 83 655.5 83 c 128
 696.5 83 745.666666667 90.6666666667 803 106 c 2
 847 118 l 1
 808 -13 l 1
 794 -16 l 1
 740.666666667 -30 684.833333333 -37 626.5 -37 c 128
 568.166666667 -37 526.5 -28.3333333333 501.5 -11 c 128
 476.5 6.33333333333 461 36 455 78 c 0
 453.666666667 87.3333333333 453 94 453 98 c 2
 453 98 453 98 453 105 c 0
 453 149.666666667 467 192.5 495 233.5 c 128
 523 274.5 546.666666667 306.333333333 566 329 c 1
 565 329 l 1
 564 328 l 1
 563 328 l 1
 562 328 l 1
 561 328 l 1
 560 328 l 1
 559 328 l 1
 558 328 l 1
 557 328 l 1
 556 328 l 1
 555 328 l 1
 554 328 l 1
 553 327 l 1
 552 327 l 1
 551 327 l 1
 550 327 l 1
 549 327 l 1
 548 327 l 1
 547 327 l 1
 546 327 l 1
 545 327 l 1
 544 327 l 1
 543 326 l 1
 541 326 l 1
 537.666666667 322.666666667 532 316.666666667 524 308 c 1
 388 322 l 1
 422 359 l 2
 442.666666667 381.666666667 471.333333333 418 508 468 c 1
 464.666666667 462 427 455.666666667 395 449 c 2
 365 443 l 1
 361 565 l 1
 379 569 390.333333333 571.333333333 395 572 c 1
 389.666666667 584 387.166666667 603 387.5 629 c 128
 387.833333333 655 388.5 677.833333333 389.5 697.5 c 128
 390.5 717.166666667 391.666666667 746.333333333 393 785 c 1
 507 778 l 1
 503 736.666666667 500 707.333333333 498 690 c 0
 496.666666667 672.666666667 496 658.666666667 496 648 c 2
 496 648 496 648 496 633 c 1
 500 640.333333333 502.333333333 644.666666667 503 646 c 0
 507.666666667 664 510.333333333 674 511 676 c 2
 517 707 l 1
 546 694 l 2
 551.333333333 691.333333333 569 687 599 681 c 1
 628 676 l 1
 617.333333333 643.333333333 611.166666667 624.333333333 609.5 619 c 128
 607.833333333 613.666666667 604.333333333 606 599 596 c 1
 599.666666667 596 600.333333333 596.333333333 601 597 c 0
 639 661 664 717.333333333 676 766 c 1
 681 789 l 1
 799 771 l 1
 793 744 l 1
 782.333333333 702.666666667 763.666666667 656.666666667 737 606 c 1
 783.666666667 608 810.333333333 609 817 609 c 2
 817 609 817 609 852 609 c 1
 857 487 l 1
 823.666666667 488.333333333 793.5 489 766.5 489 c 128
 739.5 489 703 487 657 483 c 1
 647 468.333333333 639 456 633 446 c 1
166 735 m 1
 166 763 l 1
 312 751 l 1
 300 720 l 2
 294 704 288.333333333 684 283 660 c 0
 254.333333333 478.666666667 239.666666667 361 239 307 c 1
 239 307 239 307 239 297 c 1
 242.333333333 305.666666667 249.666666667 324 261 352 c 1
 345 293 l 1
 291 144.333333333 265.666666667 57.6666666667 269 33 c 1
 271 0 l 1
 272 -25 l 1
 158 -33 l 1
 152 -13 l 1
 129.333333333 71.6666666667 118 166.5 118 271.5 c 128
 118 376.5 125.833333333 474.333333333 141.5 565 c 128
 157.166666667 655.666666667 165.333333333 712.333333333 166 735 c 1
EndSplineSet
EndChar

StartChar: u1B02F
Encoding: 110639 110639 145
Width: 1000
GlyphClass: 2
Flags: W
LayerCount: 2
Fore
SplineSet
548 67 m 0
 548 107.666666667 564.666666667 143 598 173 c 1
 584.666666667 193.666666667 578 218 578 246 c 2
 578 246 578 246 578 260 c 1
 542 266 512.833333333 282.5 490.5 309.5 c 128
 468.166666667 336.5 456.666666667 363 456 389 c 1
 439.333333333 398.333333333 414 410.333333333 380 425 c 2
 352 437 l 1
 401.333333333 509.666666667 441.666666667 576.666666667 473 638 c 0
 480.333333333 650.666666667 487.333333333 666.333333333 494 685 c 128
 500.666666667 703.666666667 506.5 719.833333333 511.5 733.5 c 128
 516.5 747.166666667 521.666666667 763.333333333 527 782 c 1
 528 783 l 1
 529 785 l 1
 537 810 l 1
 590.333333333 790.666666667 621.666666667 779.333333333 631 776 c 1
 666 776 l 1
 650 741 l 2
 647.333333333 734.333333333 643.666666667 724.5 639 711.5 c 128
 634.333333333 698.5 631.666666667 692 631 692 c 1
 662.333333333 700 694.833333333 704.166666667 728.5 704.5 c 128
 762.166666667 704.833333333 788 701.666666667 806 695 c 0
 838.666666667 683.666666667 864.333333333 662.166666667 883 630.5 c 128
 901.666666667 598.833333333 911 570.666666667 911 546 c 128
 911 521.333333333 907.666666667 500 901 482 c 0
 883.666666667 436 856.666666667 395.666666667 820 361 c 0
 799.333333333 339.666666667 779.833333333 323.5 761.5 312.5 c 128
 743.166666667 301.5 722 290.333333333 698 279 c 1
 696.666666667 267 696 257.833333333 696 251.5 c 128
 696 245.166666667 696.333333333 240.333333333 697 237 c 1
 704.333333333 234.333333333 715.666666667 232.666666667 731 232 c 2
 761 231 l 1
 755 202 l 1
 749 160.666666667 743.833333333 136.166666667 739.5 128.5 c 128
 735.166666667 120.833333333 727.333333333 117.333333333 716 118 c 0
 713.333333333 118 704.333333333 112.5 689 101.5 c 128
 673.666666667 90.5 665.666666667 81 665 73 c 0
 666.333333333 70.3333333333 670.666666667 67.3333333333 678 64 c 0
 726.666666667 52.6666666667 783 53 847 65 c 2
 878 71 l 1
 876.666666667 21.6666666667 875.333333333 -18.6666666667 874 -50 c 1
 853 -52 l 1
 785.666666667 -60 725.333333333 -59.6666666667 672 -51 c 0
 622 -43 586 -22.6666666667 564 10 c 0
 553.333333333 28 548 47 548 67 c 0
789 535 m 1
 783.666666667 575.666666667 761 596 721 596 c 0
 669.666666667 596 614.666666667 573.333333333 556 528 c 0
 554 524.666666667 551.666666667 520.333333333 549 515 c 128
 546.333333333 509.666666667 541.333333333 500.666666667 534 488 c 1
 545.333333333 491.333333333 556.666666667 492.666666667 568 492 c 0
 601.333333333 490.666666667 627 482.166666667 645 466.5 c 128
 663 450.833333333 677.333333333 427.333333333 688 396 c 1
 700 404 l 2
 712.666666667 412 730.666666667 428.833333333 754 454.5 c 128
 777.333333333 480.166666667 789 504 789 526 c 2
 789 526 789 526 789 535 c 1
317 432 m 1
 324.333333333 337.333333333 327.833333333 246.5 327.5 159.5 c 128
 327.166666667 72.5 326 12.6666666667 324 -20 c 2
 323 -44 l 1
 195 -47 l 1
 197 -18 l 1
 201 22 203 66 203 114 c 2
 203 114 203 114 203 175 c 128
 203 215.666666667 202.333333333 269.666666667 201 337 c 1
 187.666666667 318.333333333 168.333333333 294.333333333 143 265 c 1
 27 320 l 1
 51 346 l 1
 81.6666666667 378 113.333333333 418.166666667 146 466.5 c 128
 178.666666667 514.833333333 205 560.666666667 225 604 c 1
 237 633.333333333 247.5 661.5 256.5 688.5 c 128
 265.5 715.5 270.666666667 742.666666667 272 770 c 2
 273 797 l 1
 403 785 l 1
 398 758 l 2
 394.666666667 737.333333333 383 698.333333333 363 641 c 0
 361 637.666666667 358 630.666666667 354 620 c 0
 342 583.333333333 320.333333333 537.666666667 289 483 c 1
 293 479.666666667 296.333333333 475.666666667 299 471 c 0
 309.666666667 457.666666667 315.666666667 445 317 433 c 1
 317 432 l 1
EndSplineSet
EndChar

StartChar: u1B030
Encoding: 110640 110640 146
Width: 1000
GlyphClass: 2
Flags: W
LayerCount: 2
Fore
SplineSet
498 -6 m 0
 486 9.33333333333 480 30.3333333333 480 57 c 128
 480 83.6666666667 496.333333333 127.666666667 529 189 c 1
 522.333333333 193 513 197.333333333 501 202 c 0
 477 211.333333333 465.666666667 230 467 258 c 1
 467 258 467 258 467 261 c 1
 420.333333333 247.666666667 383.666666667 246.333333333 357 257 c 1
 354 258 l 1
 352 260 l 1
 325.333333333 278 312 304.333333333 312 339 c 0
 312 379.666666667 329.333333333 423 364 469 c 0
 390.666666667 503.666666667 427 533 473 557 c 1
 498.333333333 566.333333333 522 571 544 571 c 128
 566 571 586 567 604 559 c 0
 634 545.666666667 650 522.333333333 652 489 c 1
 656.666666667 493.666666667 661.333333333 498.666666667 666 504 c 0
 687.333333333 528 699.333333333 559 702 597 c 0
 700.666666667 605.666666667 698.333333333 612.666666667 695 618 c 0
 690.333333333 623.333333333 676.166666667 626 652.5 626 c 128
 628.833333333 626 600 622.833333333 566 616.5 c 128
 532 610.166666667 494.166666667 595.833333333 452.5 573.5 c 128
 410.833333333 551.166666667 354 497.666666667 282 413 c 1
 267 395 l 1
 164 472 l 1
 183 492 l 1
 261.666666667 576.666666667 314.5 637.166666667 341.5 673.5 c 128
 368.5 709.833333333 402 758.333333333 442 819 c 1
 550 748 l 1
 537.333333333 733.333333333 530.666666667 725.666666667 530 725 c 1
 537.333333333 727.666666667 542 729 544 729 c 0
 586 740.333333333 625.666666667 746 663 746 c 0
 771.666666667 746 826.666666667 696.333333333 828 597 c 1
 828 596 l 1
 825.333333333 529.333333333 805.666666667 474.666666667 769 432 c 0
 735 390.666666667 681.333333333 353.333333333 608 320 c 1
 605.333333333 310 603 300.666666667 601 292 c 1
 601 292 601 292 616 286 c 0
 651.333333333 269.333333333 669 246.666666667 669 218 c 0
 669 204 664.333333333 189.666666667 655 175 c 0
 645 155 631 125.666666667 613 87 c 0
 611 80.3333333333 609.333333333 74 608 68 c 1
 610.666666667 68 614 67.8333333333 618 67.5 c 128
 622 67.1666666667 628.333333333 67.3333333333 637 68 c 0
 739 74.6666666667 806.333333333 84.3333333333 839 97 c 2
 863 106 l 1
 905 -17 l 1
 881 -24 l 2
 835 -38 755 -48.3333333333 641 -55 c 1
 641.666666667 -55 635.333333333 -55 622 -55 c 0
 564.666666667 -55 523.333333333 -38.6666666667 498 -6 c 0
500 398 m 1
 504.666666667 418 508 430.833333333 510 436.5 c 128
 512 442.166666667 513 445.666666667 513 447 c 1
 511 446.333333333 508.666666667 445.666666667 506 445 c 0
 476.666666667 432.333333333 456.666666667 413.333333333 446 388 c 1
 446 388 446 388 442 376 c 1
 463.333333333 384 482.666666667 391.333333333 500 398 c 1
EndSplineSet
EndChar

StartChar: u1B031
Encoding: 110641 110641 147
Width: 1000
GlyphClass: 2
Flags: W
LayerCount: 2
Fore
SplineSet
627 494 m 2
 627 494 627 494 638 494 c 0
 701.333333333 491.333333333 755 465 799 415 c 0
 837 373 856.333333333 319.333333333 857 254 c 0
 857 250.666666667 857.166666667 239.666666667 857.5 221 c 128
 857.833333333 202.333333333 855.333333333 179.333333333 850 152 c 1
 879.333333333 134 909.666666667 113 941 89 c 1
 962 72 l 1
 888 -11 l 1
 869 6 l 2
 850.333333333 22.6666666667 831 38 811 52 c 1
 774.333333333 2 716.333333333 -22.6666666667 637 -22 c 1
 637 -22 637 -22 623 -22 c 0
 537.666666667 -18 480.666666667 4.33333333333 452 45 c 0
 439.333333333 63 433 82.6666666667 433 104 c 128
 433 125.333333333 438.5 145.166666667 449.5 163.5 c 128
 460.5 181.833333333 475 196.666666667 493 208 c 0
 537 232.666666667 577.666666667 245 615 245 c 2
 615 245 615 245 621 245 c 0
 652.333333333 244.333333333 689.666666667 233 733 211 c 1
 734.333333333 227.666666667 735 246 735 266 c 0
 734.333333333 302 723.833333333 330.5 703.5 351.5 c 128
 683.166666667 372.5 656.666666667 384 624 386 c 1
 624 386 624 386 622 386 c 0
 569.333333333 386 497 360 405 308 c 1
 405 304 l 2
 405 300.666666667 405.333333333 294.333333333 406 285 c 1
 406 284 l 1
 405 269 l 1
 405 243 403.333333333 167.333333333 400 42 c 0
 400 12 400.666666667 -14 402 -36 c 1
 266 -36 l 1
 270 -7 l 1
 276.666666667 33 282 108.333333333 286 219 c 1
 260.666666667 195.666666667 245.333333333 181.666666667 240 177 c 0
 204.666666667 147 174.333333333 113.666666667 149 77 c 1
 138 60 l 1
 96 75.3333333333 55 89.6666666667 15 103 c 1
 36 131 l 2
 56 158.333333333 97.3333333333 234.666666667 160 360 c 1
 142 359.333333333 114.666666667 357.666666667 78 355 c 1
 57 478 l 1
 90 475 l 2
 101.333333333 473.666666667 122 473 152 473 c 2
 153 473 l 1
 171 472.333333333 190 472.666666667 210 474 c 1
 143 568 l 1
 177 578 l 2
 206.333333333 586.666666667 239 599.333333333 275 616 c 1
 271.666666667 663.333333333 268.333333333 698.666666667 265 722 c 1
 260 751 l 1
 410 754 l 1
 402 721 l 2
 400 713.666666667 398.333333333 699 397 677 c 1
 401 679 l 1
 433 698 l 1
 471 722 508.333333333 749.333333333 545 780 c 1
 567 799 l 1
 633 696 l 1
 614 681 l 2
 572 648.333333333 525.333333333 617 474 587 c 0
 434 561.666666667 408.666666667 547 398 543 c 1
 398.666666667 529.666666667 399.5 513.333333333 400.5 494 c 128
 401.5 474.666666667 402 455.333333333 402 436 c 1
 480.666666667 474.666666667 555.666666667 494 627 494 c 2
283 491 m 1
 271.666666667 486.333333333 260.666666667 482 250 478 c 1
 262 479.333333333 273.333333333 481 284 483 c 1
 283.333333333 485.666666667 283 488.333333333 283 491 c 1
751 712 m 2
 781.666666667 688.666666667 816.333333333 659.166666667 855 623.5 c 128
 893.666666667 587.833333333 922 559 940 537 c 2
 955 519 l 1
 863 430 l 1
 845 454 l 2
 827.666666667 478 801.666666667 506.333333333 767 539 c 1
 732.333333333 573 700.666666667 600.666666667 672 622 c 1
 649 640 l 1
 734 725 l 1
 751 712 l 2
604 143 m 2
 595.333333333 143 585 140 573 134 c 128
 561 128 553.833333333 122.833333333 551.5 118.5 c 128
 549.166666667 114.166666667 548 110.666666667 548 108 c 2
 548 108 548 108 548 105 c 1
 560.666666667 93.6666666667 584.666666667 87 620 85 c 1
 620 85 620 85 642 85 c 0
 671.333333333 85 692.333333333 93.3333333333 705 110 c 1
 668.333333333 131.333333333 637 142.333333333 611 143 c 1
 609 143 l 1
 608 144 l 1
 606 143 l 1
 604 143 l 2
EndSplineSet
EndChar

